<svg width="166" height="35" viewBox="0 0 166 35" fill="none" xmlns="http://www.w3.org/2000/svg">
<g clip-path="url(#clip0_86_1116)">
<path d="M164.924 0.591309H0.588867V34.1387H164.924V0.591309Z" fill="#017782" stroke="#017782" stroke-width="5.57335"/>
<path d="M10.9463 6.16352V27.5215H15.1844V19.8354H18.1256C18.9059 19.8352 19.6851 19.7764 20.4566 19.6596C21.2361 19.5386 21.9991 19.3282 22.7303 19.0323C23.323 18.7783 23.865 18.4193 24.3302 17.9728C24.7953 17.5299 25.1942 17.0225 25.5148 16.4661C25.841 15.8996 26.0891 15.2916 26.2522 14.6586C26.4204 14.0281 26.5066 13.3786 26.5086 12.726C26.5143 11.5974 26.2506 10.4837 25.7394 9.4775C25.2249 8.46266 24.3773 7.65544 23.3385 7.19104C22.5043 6.78624 21.6133 6.51112 20.6961 6.37521C19.6941 6.22946 18.6826 6.15863 17.67 6.1633L10.9463 6.16352ZM91.572 6.16352V12.1541C90.6816 11.8669 89.7528 11.7161 88.8173 11.707C87.6497 11.6792 86.4909 11.9146 85.4268 12.3957C84.5042 12.8244 83.6846 13.4466 83.0238 14.2202C82.3831 14.979 81.894 15.8538 81.5828 16.7969C81.265 17.7471 81.1032 18.7426 81.1039 19.7445C81.0988 20.7836 81.2481 21.8177 81.5468 22.8129C81.8234 23.753 82.2741 24.6329 82.8754 25.4066C83.4632 26.1549 84.2064 26.7666 85.0538 27.1994C85.9733 27.6617 86.9915 27.893 88.0205 27.8732C88.7826 27.8927 89.5388 27.7338 90.2286 27.4091C90.7886 27.1419 91.2977 26.7791 91.7331 26.3369L91.9259 27.5215H95.7339V6.1633L91.572 6.16352ZM99.4189 6.16352V27.5215H103.612V6.1633L99.4189 6.16352ZM150.903 6.16352V12.1541C150.013 11.867 149.084 11.7163 148.149 11.707C146.981 11.6797 145.822 11.915 144.758 12.3957C143.837 12.825 143.018 13.4472 142.357 14.2202C141.717 14.979 141.227 15.8538 140.916 16.7969C140.598 17.7471 140.437 18.7426 140.437 19.7445C140.432 20.7835 140.58 21.8176 140.878 22.8129C141.155 23.753 141.605 24.6329 142.207 25.4066C142.795 26.1549 143.538 26.7666 144.385 27.1994C145.305 27.6618 146.323 27.8931 147.352 27.8732C148.115 27.893 148.872 27.7341 149.562 27.4091C150.122 27.1419 150.631 26.7791 151.067 26.3369L151.259 27.5215H155.065V6.1633L150.903 6.16352ZM15.1844 9.84431H17.7357C18.2601 9.8374 18.7843 9.86999 19.3038 9.94179C19.6962 10.0017 20.0822 10.0982 20.4566 10.23C21.0314 10.4081 21.5174 10.7973 21.817 11.3192C22.092 11.8121 22.2404 12.3655 22.2489 12.9299C22.2574 13.4942 22.1258 14.0519 21.8658 14.5528C21.573 15.0764 21.1092 15.4834 20.552 15.7056C20.1405 15.8894 19.703 16.0081 19.2551 16.0574C18.6975 16.1242 18.1363 16.156 17.5747 16.1527H15.1844V9.84431ZM72.6489 11.6921C71.7994 11.6975 70.9563 11.8406 70.1526 12.1159C69.3537 12.3783 68.6076 12.7801 67.9488 13.3026L67.7539 12.0863H63.9396V27.5215H68.1353V16.5659C68.5718 16.1567 69.0555 15.801 69.5763 15.5064C70.1197 15.1921 70.737 15.0282 71.3647 15.0318C72.2814 15.033 72.9964 15.3538 73.5092 15.9938C74.022 16.6338 74.2784 17.5407 74.2784 18.7147V27.5215H78.4742V18.3945C78.4994 17.3535 78.3563 16.3153 78.0504 15.3199C77.8082 14.5462 77.3979 13.8356 76.8489 13.239C76.338 12.7028 75.7046 12.2985 75.0032 12.0608C74.2443 11.808 73.4487 11.6836 72.6489 11.6921ZM131.982 11.6921C131.133 11.6972 130.29 11.8404 129.486 12.1159C128.687 12.3783 127.941 12.7801 127.282 13.3026L127.087 12.0863H123.273V27.5215H127.469V16.5659C127.905 16.1567 128.389 15.801 128.91 15.5064C129.453 15.1921 130.07 15.0282 130.698 15.0318C131.615 15.033 132.33 15.3538 132.843 15.9938C133.356 16.6338 133.612 17.5407 133.612 18.7147V27.5215H137.808V18.3945C137.832 17.3536 137.689 16.3155 137.384 15.3199C137.141 14.5466 136.731 13.8361 136.182 13.239C135.671 12.7028 135.038 12.2985 134.337 12.0608C133.578 11.808 132.782 11.6836 131.982 11.6921ZM35.379 11.7027C34.2047 11.6756 33.0391 11.9109 31.9673 12.3914C31.0358 12.8215 30.2066 13.4449 29.5346 14.2202C28.8842 14.9751 28.3888 15.8506 28.0767 16.7969C27.7589 17.7471 27.5972 18.7426 27.5978 19.7445C27.5973 20.7527 27.759 21.7544 28.0767 22.7112C28.3899 23.6621 28.8851 24.543 29.5346 25.3049C30.2011 26.0867 31.025 26.7193 31.9525 27.1612C33.0269 27.6515 34.1982 27.8927 35.379 27.8669C36.5543 27.8935 37.7203 27.6522 38.7885 27.1612C39.7194 26.7265 40.5477 26.0996 41.2191 25.3219C41.8698 24.5544 42.3649 23.6677 42.677 22.7112C42.9947 21.7544 43.1564 20.7527 43.1559 19.7445C43.1577 18.7413 42.9967 17.7444 42.6791 16.7927C42.3661 15.8468 41.8708 14.9714 41.2212 14.2159C40.5488 13.4422 39.7196 12.8203 38.7885 12.3914C37.7173 11.9113 36.5526 11.676 35.379 11.7027ZM113.566 11.7133C113.073 11.7169 112.581 11.7544 112.093 11.8256C111.541 11.9041 110.999 12.0383 110.474 12.2261C109.911 12.4274 109.373 12.6956 108.874 13.025C108.344 13.3709 107.874 13.8003 107.482 14.2964L110.33 16.282C110.774 15.797 111.328 15.425 111.945 15.197C112.385 15.0273 112.85 14.9299 113.322 14.9088C113.879 14.9019 114.417 15.1081 114.827 15.4852C115.036 15.6743 115.202 15.907 115.311 16.1669C115.421 16.4269 115.473 16.7078 115.462 16.9898V17.4983C115.036 17.5422 114.502 17.5901 113.862 17.6424C113.271 17.6888 112.683 17.7687 112.101 17.8819C111.353 18.005 110.618 18.198 109.906 18.4583C109.246 18.6968 108.625 19.0333 108.065 19.4563C107.536 19.8535 107.099 20.3593 106.783 20.9397C106.454 21.5664 106.289 22.2663 106.304 22.974C106.289 23.6868 106.44 24.3932 106.744 25.0379C107.028 25.6277 107.431 26.1517 107.929 26.5764C108.436 27.0004 109.017 27.326 109.643 27.5363C110.287 27.7596 110.963 27.8735 111.644 27.8732C112.425 27.8824 113.201 27.7466 113.932 27.4727C114.579 27.2365 115.164 26.8594 115.647 26.3687L115.839 27.5215H119.688V17.6062C119.71 16.6942 119.558 15.7864 119.238 14.9319C118.963 14.2326 118.528 13.6077 117.967 13.1074C117.407 12.6167 116.746 12.255 116.03 12.0479C115.229 11.8176 114.399 11.7051 113.566 11.7133ZM56.0631 12.082V23.1011C55.6404 23.4327 55.1902 23.7276 54.7175 23.9826C54.0854 24.3103 53.3798 24.4701 52.6683 24.4467C51.6866 24.448 50.993 24.1174 50.5874 23.455C50.182 22.7924 49.9793 21.9278 49.9793 20.8613V12.0861H45.792V21.2764C45.7933 23.4747 46.2946 25.1182 47.2965 26.2074C48.298 27.2966 49.739 27.8412 51.6194 27.8412C52.407 27.8369 53.1907 27.7293 53.9504 27.5212C54.7948 27.2788 55.5798 26.8639 56.2559 26.3028L56.4148 27.5212H60.2588V12.0818L56.0631 12.082ZM89.3322 15.0572C90.1005 15.0702 90.8601 15.2224 91.5742 15.5064V23.135C91.2822 23.5498 90.884 23.8785 90.4214 24.0865C89.9366 24.3411 89.3987 24.4783 88.8512 24.487C88.2757 24.5029 87.7065 24.3646 87.2025 24.0865C86.7488 23.8236 86.3604 23.4614 86.0667 23.0269C85.7542 22.5573 85.5262 22.0366 85.3929 21.4885C85.2426 20.8863 85.1679 20.2677 85.1704 19.6471C85.1691 19.0771 85.2556 18.5103 85.4268 17.9666C85.59 17.4296 85.8499 16.9269 86.1939 16.4833C86.5408 16.0418 86.9845 15.6858 87.4907 15.4429C88.0669 15.1748 88.6969 15.0428 89.3322 15.0572ZM148.666 15.0572C149.434 15.0702 150.194 15.2224 150.908 15.5064V23.135C150.615 23.5494 150.217 23.8779 149.755 24.0865C149.27 24.3411 148.732 24.4783 148.185 24.487C147.609 24.5029 147.04 24.3646 146.536 24.0865C146.082 23.8236 145.694 23.4614 145.4 23.0269C145.087 22.5577 144.859 22.037 144.726 21.4885C144.576 20.8863 144.501 20.2677 144.504 19.6471C144.503 19.0773 144.589 18.5106 144.758 17.9666C144.923 17.4299 145.184 16.9274 145.527 16.4833C145.874 16.0418 146.318 15.6858 146.824 15.4429C147.4 15.1748 148.03 15.0428 148.666 15.0572ZM35.044 15.0784C35.7038 15.0177 36.3676 15.1409 36.9617 15.4344C37.4158 15.675 37.8099 16.0147 38.1149 16.4282C38.4393 16.875 38.6784 17.3779 38.8201 17.9115C39.1394 19.1134 39.1394 20.3778 38.8201 21.5796C38.6741 22.1117 38.4354 22.6138 38.1149 23.063C37.8069 23.4994 37.3963 23.8533 36.9192 24.0936C36.4421 24.3338 35.9132 24.4529 35.3792 24.4404C34.8173 24.4535 34.261 24.3268 33.7602 24.0716C33.3063 23.8313 32.9168 23.4853 32.6244 23.063V23.0693C32.309 22.6156 32.0725 22.1119 31.9249 21.5794C31.6056 20.3776 31.6056 19.1132 31.9249 17.9113C32.066 17.3774 32.3053 16.8744 32.6306 16.428C32.9349 16.014 33.329 15.6742 33.7833 15.4342C34.1781 15.2391 34.6055 15.1187 35.044 15.0784ZM115.486 20.3167V23.4592C115.1 23.7942 114.662 24.0641 114.189 24.2581C113.698 24.4696 113.17 24.5785 112.635 24.5781C111.888 24.5781 111.323 24.4236 110.94 24.1142C110.754 23.969 110.604 23.7817 110.504 23.5678C110.404 23.3538 110.356 23.1192 110.364 22.8831C110.368 22.3798 110.556 21.8955 110.891 21.5205C111.245 21.1037 111.869 20.8106 112.765 20.6411C113.188 20.5534 113.642 20.4828 114.125 20.4292C114.608 20.3754 115.062 20.3379 115.486 20.3167Z" fill="white"/>
</g>
<defs>
<clipPath id="clip0_86_1116">
<rect width="165.526" height="34.641" fill="white"/>
</clipPath>
</defs>
</svg>
