<svg width="120" height="35" viewBox="0 0 120 35" fill="none" xmlns="http://www.w3.org/2000/svg">
<path d="M40.0542 2.22269L44.0316 2.17773L44.1103 28.3367L39.9988 28.4442L40.0245 10.9805L37.75 10.9724L37.7622 7.34896C37.7622 7.34896 40.186 6.40997 40.0542 2.22269Z" fill="#0072BC"/>
<path d="M17.6505 10.6617C17.6505 10.6617 17.6873 6.83442 21.3733 7.1792L21.3027 28.6588C17.6863 28.5905 17.6035 25.0045 17.6035 25.0045L17.6505 10.6617Z" fill="#0072BC"/>
<path d="M21.9939 9.92185L22.0304 7.18295C26.0135 6.96932 25.8006 10.7922 25.8006 10.7922L25.9195 18.1991L21.9746 18.244L21.9858 15.6183C21.9858 15.6183 22.5269 15.7863 22.4553 14.3471L22.4982 11.183C22.4982 11.183 22.5472 9.74574 21.9939 9.92185Z" fill="#0072BC"/>
<path d="M25.877 20.0393L25.8882 25.0527C25.8882 25.0527 26.1231 28.7593 21.9023 28.7214L21.9145 26.1076C22.3749 25.9981 22.2796 24.7985 22.2796 24.7985L22.2887 20.0332L25.877 20.0393Z" fill="#0072BC"/>
<path d="M5.92234 28.3651L5.84054 2.10205L1.84863 2.11321V28.3624L5.92234 28.3651Z" fill="#0072BC"/>
<path d="M11.6029 15.0943C11.6029 15.0943 11.7807 19.4073 6.50469 18.7712L6.5314 15.7527C7.80975 15.6483 7.66779 13.9806 7.66779 13.9806L7.59985 6.4223C7.59985 6.4223 7.63264 4.97933 6.49219 4.97629L6.50334 2.08799C11.7009 1.45185 11.6212 5.62257 11.6212 5.62257L11.6029 15.0943Z" fill="#0072BC"/>
<path d="M30.7919 28.3396L30.7317 7.42653L26.7949 7.37549L26.7246 28.4565L30.7919 28.3396Z" fill="#0072BC"/>
<path d="M31.8788 18.2879L31.9136 11.2197C31.9136 11.2197 31.9987 9.81159 31.4248 9.77374L31.4556 7.49419C35.9957 5.83828 35.3758 10.8773 35.3758 10.8773L35.3352 18.2362L31.8788 18.2879Z" fill="#0072BC"/>
<path d="M97.5266 7.43093L97.5499 4.08936L101.283 4.10051L101.258 7.43262L102.015 7.4316L102.019 10.1337L101.234 10.1387L101.148 24.6259C101.148 24.6259 101.204 25.4297 102.306 25.5625L102.289 28.1317C96.8485 29.7308 97.5164 24.4521 97.5164 24.4521L97.5093 10.1266C97.5174 10.1519 96.7978 10.1276 96.7978 10.1276L96.7812 7.43262L97.5266 7.43093Z" fill="#0072BC"/>
<path d="M102.598 19.6587L102.551 24.8829C102.551 24.8829 102.425 28.4838 106.516 28.4635L106.535 26.455C106.14 26.4692 106.251 25.4478 106.251 25.4478L106.291 19.6509L102.598 19.6587Z" fill="#0072BC"/>
<path d="M111.053 14.2961L111.059 10.1571C111.059 10.1571 110.808 6.79528 107.092 7.02546L107.062 9.09578C107.426 9.04372 107.367 10.5164 107.367 10.5164L107.322 14.3066L111.053 14.2961Z" fill="#0072BC"/>
<path d="M102.754 14.543C102.754 14.543 102.739 15.5513 103.4 16.1864C103.961 16.7225 106.752 19.4266 106.752 19.4266C106.752 19.4266 107.324 19.842 107.361 20.9321L107.34 25.2837C107.34 25.2837 107.369 26.4045 107.06 26.5039L107.094 28.4562C111.212 28.8365 111.1 24.8723 111.1 24.8723L111 21.1657C111.065 18.4393 109.33 17.0676 109.33 17.0676L106.931 14.7316C106.32 14.3125 106.311 12.9439 106.311 12.9439L106.357 10.347C106.357 10.347 106.265 9.07572 106.624 9.09228L106.606 7.05982C102.468 6.89724 102.642 11.0568 102.642 11.0568L102.754 14.543Z" fill="#0072BC"/>
<path d="M114.692 7.31828C115.807 7.30814 116.742 8.18629 116.752 9.33823C116.762 10.4827 115.842 11.3829 114.728 11.392C113.612 11.4011 112.678 10.5186 112.667 9.37304C112.658 8.22043 113.579 7.32842 114.692 7.31828ZM114.731 11.7878C116.093 11.7766 117.161 10.6903 117.149 9.33417C117.137 7.97875 116.05 6.9103 114.689 6.92247C113.327 6.93396 112.258 8.01999 112.272 9.37609C112.283 10.7318 113.37 11.7989 114.731 11.7878ZM115.132 9.47512C115.498 9.45991 115.861 9.25812 115.856 8.71967C115.851 8.14471 115.405 7.99835 114.908 8.00376L113.757 8.0139L113.781 10.7498L114.177 10.7457L114.166 9.48357L114.674 9.4785L115.385 10.7366L115.836 10.7322L115.132 9.47512ZM114.838 8.40025C115.166 8.39721 115.458 8.41985 115.46 8.76631C115.463 9.13779 114.955 9.08033 114.584 9.08337L114.163 9.08641L114.156 8.40633L114.838 8.40025Z" fill="#0072BC"/>
<path d="M52.9414 6.13508L52.9491 2.47949L48.9721 2.5258L48.9609 6.13913L52.9414 6.13508Z" fill="#0072BC"/>
<path d="M52.8649 28.4081L52.9244 7.40918L48.9541 7.41425L49.0024 28.4091L52.8649 28.4081Z" fill="#0072BC"/>
<path d="M62.7537 28.4089L62.6996 9.86259C62.6996 9.86259 62.7192 6.00251 58.1848 7.4252L58.1777 9.83183C58.9406 9.93526 59.0038 11.1366 59.0038 11.1366L58.921 28.4106L62.7537 28.4089Z" fill="#0072BC"/>
<path d="M57.6666 28.4081L57.7261 7.40918L53.7568 7.41425L53.8052 28.4091L57.6666 28.4081Z" fill="#0072BC"/>
<path d="M63.6145 7.337C67.9583 5.82237 67.7301 10.9277 67.7301 10.9277L67.6984 28.4076L63.9982 28.4299L63.9921 10.9338C63.9921 10.9338 63.942 9.8812 63.3478 9.77101C63.3478 9.77101 63.31 8.42809 62.7617 7.89302C62.7617 7.89302 63.189 7.48504 63.6145 7.337Z" fill="#0072BC"/>
<path d="M73.4614 11.0337C73.4614 11.0337 73.4756 9.86381 72.7353 9.75429L72.7363 7.67418C77.4377 5.64104 77.1257 11.0523 77.1257 11.0523L77.1311 24.5423C77.1311 24.5423 77.6679 29.9454 72.7242 27.8345L72.6924 26.2411C73.3694 26.0129 73.5432 24.8755 73.5432 24.8755L73.4614 11.0337Z" fill="#0072BC"/>
<mask id="mask0_86_1129" style="mask-type:luminance" maskUnits="userSpaceOnUse" x="1" y="2" width="117" height="31">
<path d="M117.149 2.02246H1.84863V32.6172H117.149V2.02246Z" fill="white"/>
</mask>
<g mask="url(#mask0_86_1129)">
<path d="M72.1227 32.6834L72.0662 7.3623L68.6104 7.48297L68.5391 32.6783L72.1227 32.6834Z" fill="#0072BC"/>
</g>
<path d="M78.1972 11.1134C78.1972 11.1134 78.0008 6.73918 82.282 7.19718L82.2729 9.35099C81.6246 9.32361 81.7327 10.5479 81.7327 10.5479L81.6952 15.8097L81.6756 24.5675C81.6756 24.5675 81.5266 25.9449 82.2597 26.0933L82.2651 28.3915C78.0136 28.9644 78.1292 24.6872 78.1292 24.6872L78.1972 11.1134Z" fill="#0072BC"/>
<path d="M86.9579 11.1075C86.9579 11.1075 87.1533 6.73431 82.873 7.19231L82.8812 9.34645C83.5305 9.31975 83.5491 10.544 83.5491 10.544L83.4592 15.8058L83.4805 24.5637C83.4805 24.5637 83.6285 25.9404 82.8954 26.0888L82.8893 28.3859C87.1428 28.9605 87.0252 24.6837 87.0252 24.6837L86.9579 11.1075Z" fill="#0072BC"/>
<path d="M91.8303 28.3396L91.7698 7.42653L87.833 7.37549L87.7627 28.4565L91.8303 28.3396Z" fill="#0072BC"/>
<path d="M92.9182 18.2879L92.9536 11.2197C92.9536 11.2197 93.0375 9.81159 92.4639 9.77374L92.4946 7.49419C97.0348 5.83828 96.4139 10.8773 96.4139 10.8773L96.373 18.2362L92.9182 18.2879Z" fill="#0072BC"/>
<path d="M16.4182 6.13508L16.4273 2.47949L12.4499 2.5258L12.4395 6.13913L16.4182 6.13508Z" fill="#0072BC"/>
<path d="M16.3427 28.4081L16.4019 7.40918L12.4326 7.41425L12.4796 28.4091L16.3427 28.4081Z" fill="#0072BC"/>
</svg>
