<svg width="151" height="35" viewBox="0 0 151 35" fill="none" xmlns="http://www.w3.org/2000/svg">
<path d="M17.3124 28.8732C10.9353 28.8732 5.76011 23.705 5.76011 17.3254C5.76011 10.9342 10.9353 5.76979 17.3124 5.76979C23.695 5.76979 28.8637 10.9342 28.8637 17.3254C28.8637 23.705 23.695 28.8732 17.3124 28.8732ZM17.3124 0C7.75238 0 0 7.75617 0 17.3254C0 26.8873 7.75238 34.641 17.3124 34.641C26.8765 34.641 34.641 26.8873 34.641 17.3254C34.641 7.75617 26.8765 0 17.3124 0Z" fill="#CC0000"/>
<path d="M17.3161 11.3623C14.0272 11.3623 11.3623 14.0218 11.3623 17.322C11.3623 20.6114 14.0271 23.2788 17.3161 23.2788C20.6082 23.2788 23.2788 20.6113 23.2788 17.322C23.2788 14.0219 20.6082 11.3623 17.3161 11.3623Z" fill="#CC0000"/>
<path d="M48.0335 11.13H42.1221V7.48193H58.2825V11.13H52.3711V27.2079H48.0335V11.13Z" fill="#CC0000"/>
<path d="M56.4043 27.2079H60.7948L62.3432 22.814H69.7195L71.2118 27.2079H75.714L68.3377 7.48193H63.8909L56.4043 27.2079ZM66.0453 12.3425H66.0996L68.5849 19.5819H63.4777L66.0453 12.3425Z" fill="#CC0000"/>
<path d="M77.4258 27.2068H81.7653V19.4993H86.0999C88.2845 19.4993 89.084 20.4102 89.3872 22.4812C89.6108 24.0564 89.5546 25.9631 90.08 27.2071H94.4148C93.6422 26.1024 93.6708 23.7787 93.5868 22.5361C93.4479 20.5441 92.8427 18.4745 90.7138 17.9225V17.8679C92.899 16.9844 93.8373 15.2459 93.8373 12.9222C93.8373 9.94089 91.5978 7.48193 88.0628 7.48193H77.4261L77.4258 27.2068ZM81.7653 10.8513H86.5178C88.4486 10.8513 89.4991 11.6804 89.4991 13.5846C89.4991 15.5727 88.4486 16.403 86.5178 16.403H81.7653V10.8513Z" fill="#CC0000"/>
<path d="M111.073 24.8825C109.552 26.8468 107.567 27.5953 105.659 27.5953C99.5553 27.5953 95.9629 23.0296 95.9629 17.3383C95.9629 11.4845 99.555 6.92822 105.659 6.92822C109.692 6.92822 113.505 9.41434 113.976 13.8861H109.83C109.332 11.7015 107.702 10.573 105.659 10.573C101.764 10.573 100.297 13.8861 100.297 17.3383C100.297 20.6275 101.764 23.9411 105.659 23.9411C108.478 23.9411 110.104 22.4227 110.354 19.6861H105.992V16.4576H114.277V27.1214H111.513L111.073 24.8825Z" fill="#CC0000"/>
<path d="M117.234 7.48193H131.981V11.13H121.571V15.3549H131.128V18.7283H121.571V23.5598H132.205V27.2079H117.234V7.48193Z" fill="#CC0000"/>
<path d="M140.051 11.13H134.14V7.48193H150.302V11.13H144.388V27.2079H140.051V11.13Z" fill="#CC0000"/>
</svg>
