<svg width="196" height="35" viewBox="0 0 196 35" fill="none" xmlns="http://www.w3.org/2000/svg">
<path d="M116.003 33.2362C114.494 31.4259 105.348 20.7877 105.348 20.3519C105.348 19.9161 114.081 10.6747 115.735 8.95387C115.756 8.93138 115.771 8.90302 115.777 8.87228C115.783 8.84156 115.78 8.80972 115.768 8.78071C115.756 8.75171 115.736 8.72683 115.71 8.70914C115.684 8.69145 115.654 8.68155 115.623 8.68065H109.13C109.108 8.67993 109.087 8.68409 109.066 8.69277C109.046 8.70145 109.028 8.71448 109.013 8.73092C108.454 9.41815 103.538 16.0949 100.632 18.9724C100.663 15.5898 100.754 12.2135 100.906 8.84267C100.908 8.81097 100.899 8.77958 100.882 8.75279C100.865 8.72598 100.84 8.70508 100.811 8.69293C100.792 8.68478 100.771 8.6806 100.75 8.68065H95.5869C95.5553 8.68055 95.5243 8.69014 95.4982 8.7081C95.4721 8.72607 95.4523 8.75159 95.4412 8.78122C95.4333 8.80076 95.4299 8.82168 95.4306 8.84267C95.8031 17.0113 95.8031 25.1854 95.4306 33.3651C95.4297 33.3861 95.4333 33.4071 95.441 33.4267C95.4484 33.4464 95.4599 33.4641 95.4747 33.4792C95.489 33.4944 95.5066 33.5064 95.526 33.5147C95.5451 33.523 95.5659 33.5272 95.5869 33.5272H100.75C100.771 33.527 100.791 33.5228 100.811 33.5145C100.83 33.5062 100.848 33.4942 100.863 33.4792C100.877 33.4641 100.888 33.4461 100.896 33.4267C100.903 33.4071 100.907 33.3861 100.906 33.3651C100.739 29.7557 100.646 26.1482 100.627 22.5426C102.381 23.9841 108.561 32.7281 109.226 33.4768C109.239 33.4935 109.256 33.5064 109.275 33.5152C109.295 33.524 109.316 33.5281 109.337 33.5272H115.88C115.914 33.5293 115.949 33.5205 115.978 33.5023C116.007 33.4838 116.03 33.457 116.044 33.4249C116.057 33.3932 116.06 33.3581 116.053 33.3244C116.046 33.2907 116.028 33.2595 116.003 33.2362ZM59.6776 20.8162C59.6776 27.1017 55.1128 33.4824 46.4135 33.4824H38.2394C38.2184 33.4817 38.1976 33.4766 38.1787 33.4678C38.1595 33.4588 38.1424 33.4464 38.1283 33.4307C38.1142 33.415 38.1036 33.3967 38.0967 33.3769C38.0898 33.357 38.087 33.336 38.0884 33.315C38.4609 25.1431 38.4609 16.9586 38.0884 8.78681C38.087 8.76607 38.0898 8.74524 38.0965 8.72563C38.1034 8.70603 38.1142 8.68804 38.1286 8.67284C38.1426 8.65762 38.1597 8.6455 38.1789 8.63723C38.1978 8.62896 38.2186 8.62471 38.2394 8.62478H46.9331C55.314 8.62478 59.6776 14.6758 59.6776 20.8162ZM43.5081 13.3628C43.3517 18.3522 43.318 23.8108 43.4746 28.7948L46.732 28.7444C51.6656 28.7444 54.3362 24.7942 54.3417 20.995C54.3475 17.1956 51.7436 13.4242 46.9833 13.4242L43.5081 13.3628ZM141.419 33.2639C140.687 31.5097 135.653 19.8546 131.776 8.70801C131.765 8.676 131.745 8.64801 131.718 8.62797C131.691 8.60795 131.658 8.59686 131.625 8.59628H126.904C126.87 8.59718 126.838 8.60839 126.81 8.62838C126.783 8.64836 126.763 8.67617 126.753 8.70801C122.842 19.8825 117.813 31.5097 117.103 33.2639C117.093 33.2886 117.09 33.3154 117.092 33.342C117.095 33.3685 117.104 33.3939 117.119 33.4161C117.134 33.4383 117.154 33.4563 117.178 33.4688C117.201 33.4812 117.228 33.4877 117.254 33.4875H122.518C122.551 33.4884 122.583 33.4785 122.611 33.4593C122.638 33.4404 122.658 33.4129 122.668 33.3815L124.551 28.2523C126.272 28.1909 132.256 28.1909 133.977 28.2523L135.86 33.3815C135.871 33.4126 135.891 33.4397 135.918 33.4588C135.945 33.4778 135.978 33.4879 136.011 33.4875H141.268C141.309 33.4879 141.348 33.4734 141.378 33.4464C141.408 33.4196 141.426 33.3824 141.43 33.3422C141.433 33.3157 141.429 33.2889 141.419 33.2639ZM126.155 24.073C127.418 20.5698 129.116 15.8876 129.261 15.5189C129.407 15.8876 131.122 20.5474 132.385 24.073C131.334 24.1344 127.205 24.1344 126.155 24.073ZM32.7638 8.79182C32.7645 8.77083 32.761 8.74988 32.7534 8.73025C32.746 8.71062 32.7345 8.6927 32.7199 8.67757C32.7054 8.66245 32.6878 8.65044 32.6684 8.64222C32.6493 8.63402 32.6285 8.62979 32.6072 8.62979H27.5788C27.5577 8.62979 27.537 8.63402 27.5176 8.64222C27.4984 8.65044 27.4808 8.66245 27.4663 8.67757C27.4515 8.6927 27.4402 8.71062 27.4326 8.73025C27.4252 8.74988 27.4217 8.77083 27.4224 8.79182C27.6794 14.3288 27.7633 20.1675 27.6681 25.7046L16.5105 8.99297C16.4355 8.8823 16.3349 8.79145 16.2171 8.72822C16.0994 8.66496 15.9681 8.6312 15.8344 8.62979H10.9511C10.9301 8.62979 10.9093 8.63402 10.8899 8.64222C10.8706 8.65044 10.8531 8.66245 10.8385 8.67757C10.8239 8.6927 10.8125 8.71062 10.8049 8.73025C10.7974 8.74988 10.7939 8.77083 10.7947 8.79182C11.1672 16.9617 11.1672 25.1443 10.7947 33.3143C10.7934 33.3459 10.8017 33.3773 10.8187 33.4041C10.8357 33.4309 10.8604 33.4517 10.8897 33.4641C10.9091 33.4725 10.93 33.4768 10.9511 33.4768H15.9797C16.0007 33.4768 16.0215 33.4727 16.0408 33.4644C16.0602 33.4563 16.0777 33.4443 16.0923 33.429C16.1069 33.414 16.1183 33.396 16.1259 33.3764C16.1334 33.3568 16.1369 33.336 16.1361 33.315C15.8903 27.9957 15.8009 22.3862 15.8791 17.0615L26.9977 33.1304C27.0721 33.2383 27.1714 33.3265 27.2871 33.3877C27.403 33.4489 27.5316 33.4815 27.6626 33.4824H32.6072C32.6285 33.4826 32.6493 33.4782 32.6684 33.4701C32.6878 33.4618 32.7054 33.4498 32.7199 33.4348C32.7345 33.4196 32.746 33.4018 32.7534 33.3822C32.761 33.3625 32.7645 33.3415 32.7638 33.3205C32.3839 25.1489 32.3839 16.964 32.7638 8.7924V8.79182ZM63.5943 33.326C63.9671 25.1575 63.9671 16.9833 63.5943 8.80358C63.5934 8.78247 63.5969 8.76143 63.6045 8.74173C63.6121 8.72203 63.6237 8.70409 63.6384 8.68903C63.653 8.67383 63.6703 8.66178 63.6897 8.65363C63.7089 8.64545 63.7297 8.64134 63.7507 8.64152H68.9189C68.9505 8.64171 68.9815 8.65139 69.0076 8.66933C69.0337 8.68725 69.0537 8.71261 69.0653 8.7421C69.0729 8.76166 69.0764 8.78261 69.0755 8.80358C68.7032 16.9735 68.7032 25.1561 69.0755 33.326C69.0768 33.3577 69.0683 33.3889 69.0514 33.4156C69.0343 33.4422 69.0096 33.4632 68.9803 33.4752C68.9609 33.4835 68.9401 33.4879 68.9189 33.4882H63.7507C63.719 33.4882 63.6881 33.4787 63.662 33.4607C63.6361 33.4427 63.616 33.417 63.6049 33.3875C63.5973 33.3678 63.5936 33.3471 63.5943 33.326ZM9.98111e-05 33.326C0.372769 25.1575 0.372769 16.9833 9.98111e-05 8.80358C-0.00065102 8.78256 0.00284042 8.76161 0.0103656 8.74198C0.0178907 8.72235 0.0292953 8.70443 0.0438979 8.68931C0.0585004 8.67418 0.0760013 8.66217 0.0953555 8.65395C0.11471 8.64575 0.13552 8.64152 0.156543 8.64152H5.32476C5.34578 8.64152 5.36658 8.64575 5.38594 8.65395C5.40531 8.66217 5.42279 8.67418 5.43741 8.68931C5.45201 8.70443 5.46342 8.72235 5.47095 8.74198C5.47845 8.76161 5.48196 8.78256 5.4812 8.80358C5.10872 16.9735 5.10872 25.1561 5.4812 33.326C5.48196 33.3471 5.47845 33.3681 5.47095 33.3877C5.46342 33.4073 5.45201 33.4251 5.43741 33.4404C5.42279 33.4554 5.40531 33.4674 5.38594 33.4757C5.36658 33.4838 5.34578 33.4882 5.32476 33.4882H0.156543C0.13552 33.4882 0.11471 33.4838 0.0953555 33.4757C0.0760013 33.4674 0.0585004 33.4554 0.0438979 33.4404C0.0292953 33.4251 0.0178907 33.4073 0.0103656 33.3877C0.00284042 33.3681 -0.00065102 33.3471 9.98111e-05 33.326ZM87.4128 15.3792C87.3978 15.3962 87.3793 15.4097 87.3585 15.419C87.3377 15.4283 87.3153 15.4331 87.2927 15.4331C87.2701 15.4331 87.2474 15.4283 87.2269 15.419C87.2061 15.4097 87.1876 15.3962 87.1726 15.3792C86.0103 13.9153 83.9935 12.7532 82.2446 12.7532C80.3617 12.7532 79.0262 13.9656 79.0262 15.6027C79.0262 17.385 81.3282 18.2287 83.6023 18.8321C89.022 20.296 91.2958 22.5477 91.2958 26.2353C91.2958 31.6326 87.1389 34.0239 82.3564 34.0965C80.589 34.1221 78.8391 33.7461 77.2383 32.9972C75.6374 32.248 74.2277 31.1453 73.1151 29.7721C73.088 29.7421 73.0733 29.7033 73.0733 29.6631C73.0733 29.6229 73.088 29.5841 73.1151 29.5541L76.4339 26.0676C76.4489 26.0498 76.4678 26.0355 76.4891 26.0258C76.5103 26.0159 76.5334 26.0108 76.5568 26.0108C76.5801 26.0108 76.6032 26.0159 76.6244 26.0258C76.6457 26.0355 76.6646 26.0498 76.6796 26.0676C78.1491 28.0232 80.4342 29.325 82.4792 29.325C84.4293 29.325 85.9713 28.1126 85.9713 26.5872C85.9713 24.8496 84.8203 24.3021 81.6915 23.2349C78.5625 22.1677 73.83 20.4413 73.83 15.4127C73.83 10.3842 77.6685 7.99845 82.3898 7.99845C83.9459 8.00346 85.4826 8.34571 86.8936 9.00161C88.3047 9.6575 89.5571 10.6114 90.564 11.7978C90.5912 11.8275 90.6065 11.8664 90.6065 11.9067C90.6065 11.9471 90.5912 11.986 90.564 12.0157L87.4128 15.3792ZM195.912 32.9127C195.67 31.9395 195.274 31.0113 194.739 30.1635C194.247 29.3982 194.18 28.5657 193.951 26.8112C193.747 25.8838 193.633 24.939 193.61 23.9898C194.8 21.7548 194.766 18.6651 194.236 15.715C192.057 3.69123 187.039 3.98175 184.095 2.52348C183.125 2.069 182.12 1.69525 181.089 1.40603C179.936 1.0294 178.731 0.840742 177.518 0.847305C175.01 0.953462 174.228 1.54571 172.009 1.5066C170.769 1.5066 168.629 -0.0857682 166.422 0.00362795C165.049 0.0930241 163.712 0.488043 162.511 1.16019C161.556 1.71892 161.014 2.89784 160.064 3.19395C159.114 3.49008 158.505 3.36715 157.941 4.07674C157.577 4.55185 157.262 5.06295 157.002 5.60205C156.622 6.40663 156.974 6.42898 156.002 7.52966C155.376 8.46832 155.482 8.71974 155.147 9.45168C154.946 9.89867 154.136 10.9547 153.94 11.4631C153.745 11.9715 153.46 12.5806 153.382 12.9381C153.191 13.639 153.06 14.3549 152.991 15.0781C152.845 16.162 152.365 17.2236 152.365 18.341C151.622 19.3244 149.722 19.207 148.66 19.045C148.66 19.7546 149.7 20.3077 150.398 20.4642C151.098 20.6284 151.814 20.7033 152.532 20.6877C152.951 22.6544 153.711 25.4034 156.153 26.3085C156.865 26.5429 157.623 26.6036 158.364 26.4861C159.104 26.3685 159.806 26.0759 160.41 25.6325C161.852 24.6154 162.461 21.3637 161.919 20.7156C161.754 20.5148 161.525 20.376 161.271 20.3219C161.017 20.2678 160.752 20.3016 160.519 20.4178C160.365 20.4953 160.231 20.6066 160.125 20.7435C159.455 21.861 159.36 23.5762 157.946 23.4478C156.65 23.3249 155.89 20.9503 156.27 19.5814C156.446 19.0422 156.691 18.5293 157.002 18.0561C157.181 17.8158 157.561 17.2012 157.868 17.0671C158.631 16.9095 159.404 16.8068 160.181 16.7598C162.483 16.4972 162.729 15.5139 164.025 15.1339C164.372 16.1564 166.065 17.57 166.104 18.7601C166.081 19.5912 165.935 20.4142 165.668 21.2017C165.549 21.6508 165.4 22.0914 165.221 22.5203C164.847 23.6769 164.277 24.8445 164.187 26.1018C164.087 27.5544 164.008 28.6105 163.869 29.5435C163.718 30.4822 163.363 31.3767 162.83 32.164C162.83 32.164 162.355 32.9461 162.93 33.3708C163.506 33.7953 164.305 34.1306 165.813 34.0357C168.11 33.8905 168.048 32.8288 168.048 32.8288C168.118 30.5622 168.505 28.3165 169.199 26.1577C169.199 26.1577 169.64 24.6099 169.937 24.6323C170.11 24.6323 170.831 25.1909 170.752 30.9012C170.752 31.052 170.752 31.2028 170.719 31.3538C170.608 31.8783 170.47 32.3967 170.305 32.9071C170.305 32.9071 170.121 33.6669 170.691 33.8847C171.44 34.1752 174.317 34.4826 175.412 33.5383C176.043 32.9796 175.563 31.8621 175.44 31.3035C174.613 27.8842 175.345 23.8388 175.865 22.3024C176.931 22.9969 178.077 23.5598 179.278 23.9785C179.887 25.1406 180.854 26.381 180.916 27.711C180.881 28.4775 180.718 29.2326 180.435 29.9458C180.156 30.7169 179.619 31.566 179.29 32.393C179.211 32.5639 179.187 32.7549 179.221 32.9397C179.256 33.1247 179.346 33.2946 179.48 33.4267C180.038 33.8681 181.156 34.0803 182.731 34.1196C183.726 34.1196 185.179 33.9798 185.061 32.5997C184.751 30.5183 184.909 28.3934 185.525 26.381C186.441 26.5096 187.334 26.765 188.179 27.141C189.235 27.7445 189.984 29.158 190.218 30.8287C190.33 31.6388 190.107 32.0018 189.95 32.7674C189.816 33.4323 190.079 33.7507 191.124 33.9685C192.35 34.2482 193.624 34.2482 194.85 33.9685C195.716 33.8009 196.007 33.5383 195.912 32.9127Z" fill="#102228"/>
</svg>
