<svg width="123" height="35" viewBox="0 0 123 35" fill="none" xmlns="http://www.w3.org/2000/svg">
<g clip-path="url(#clip0_86_1108)">
<path fill-rule="evenodd" clip-rule="evenodd" d="M108.047 0C99.1196 0 94.0253 5.1913 94.0253 11.4985C94.0253 17.7572 99.1196 22.997 108.047 22.997C116.974 22.997 122.068 17.7572 122.068 11.4985C122.02 5.1913 116.925 0 108.047 0ZM108.047 19.6493C103.535 19.6493 100.624 15.9135 100.624 11.4985C100.624 7.03494 103.535 3.34766 108.047 3.34766C112.559 3.34766 115.47 7.03494 115.47 11.4985C115.421 15.9135 112.51 19.6493 108.047 19.6493ZM1.01855 0.436651H25.8107V5.87054C24.064 4.36651 20.3282 3.78431 16.3499 3.78431V18.5819C16.3499 20.7652 16.5439 21.3959 17.3687 22.5118H9.46048C10.3338 21.3959 10.4793 20.7652 10.4793 18.5819V3.78431C6.50096 3.78431 2.76516 4.36651 1.01855 5.87054V0.436651ZM37.6973 19.1641C40.2201 19.1641 44.4896 18.5819 46.1392 17.0779V22.5118H28.0909C28.9642 21.493 29.1098 20.7652 29.1098 18.679V4.318C29.1098 2.18326 28.9642 1.50402 28.0909 0.485168H45.2174V5.91905C43.5193 4.41503 39.2983 3.78431 36.7269 3.78431H34.7377V9.65485H36.1932C37.6488 9.65485 39.8805 9.60633 41.336 9.07265V13.4392C39.8805 12.9055 37.6488 12.857 36.1932 12.857H34.7377V19.2127L37.6973 19.1641ZM61.3735 8.9271C65.6915 9.5093 69.2332 11.0618 69.2332 15.7195C69.2332 21.2504 64.0419 22.997 58.414 22.9485C54.4841 22.8999 51.1364 22.5603 48.7106 21.5415V16.6413C52.2038 18.9216 55.794 19.6493 58.414 19.6493C61.1309 19.6493 63.6538 18.9701 63.6538 16.8839C63.6538 14.7976 61.325 14.3125 56.5703 13.5847C52.4464 12.954 48.7106 11.2074 48.7106 7.13197C48.6621 1.64957 53.8534 0 58.8021 0C62.0042 0 65.1093 0.388135 67.9718 1.30995V6.6468C65.5944 4.51206 62.0527 3.34766 58.5595 3.34766C56.1822 3.34766 53.9504 4.12393 53.9504 5.87054C53.9504 8.05379 57.2496 8.39341 61.3735 8.9271ZM85.8745 0C88.4459 0 90.6776 0.291101 92.4728 0.776269V6.25867C90.7262 4.46355 88.6399 3.34766 85.923 3.34766C80.9258 3.34766 77.6266 6.84087 77.6266 11.4985C77.6266 16.1561 80.9743 19.6493 85.9715 19.6493C88.6884 19.6493 90.7747 18.5334 92.5213 16.7383V22.2207C90.7262 22.7059 88.4944 23.0455 85.923 23.0455C77.287 23.0455 71.0283 18.7275 71.0283 11.4985C70.9798 4.26948 77.2385 0 85.8745 0Z" fill="#E62432"/>
<path d="M121.777 28.5278H106.834C104.408 28.5278 102.468 30.0319 101.546 31.1477C101.546 31.1477 99.217 33.5736 97.6644 34.4469L97.6159 34.4954L97.5674 34.5439L97.6159 34.641H111.88C114.645 34.641 115.955 33.5736 117.702 31.924C117.702 31.924 120.031 29.4982 121.777 28.7219H121.826L121.874 28.6734V28.5278H121.777Z" fill="#02549F"/>
<path d="M97.373 28.5278H82.4298C80.004 28.5278 78.0633 30.0319 77.1415 31.1477C77.1415 31.1477 74.8127 33.5736 73.2601 34.4469L73.2116 34.4954L73.1631 34.5439L73.2116 34.641H87.4755C90.241 34.641 91.551 33.5736 93.2976 31.924C93.2976 31.924 95.6264 29.4982 97.373 28.7219H97.4215L97.47 28.6734V28.5278H97.373Z" fill="#02549F"/>
<path d="M73.0175 28.5278H58.0743C55.6485 28.5278 53.7078 30.0319 52.786 31.1477C52.786 31.1477 50.4572 33.5736 48.9047 34.4469L48.8561 34.4954L48.8076 34.5439L48.8561 34.641H63.0716C65.837 34.641 67.147 33.5736 68.8936 31.924C68.8936 31.924 71.2224 29.4982 72.969 28.7219H73.0175L73.066 28.6734V28.5278H73.0175Z" fill="#02549F"/>
<path d="M48.6142 28.5278H33.671C31.2452 28.5278 29.3045 30.0319 28.3827 31.1477C28.3827 31.1477 26.0539 33.5736 24.5013 34.4469L24.4528 34.4954L24.4043 34.5439L24.4528 34.641H38.7168C41.4822 34.641 42.7922 33.5736 44.5388 31.924C44.5388 31.924 46.8676 29.4982 48.6142 28.7219H48.6627L48.7112 28.6734V28.5278H48.6142Z" fill="#02549F"/>
<path d="M24.2584 28.5278H9.26671C6.84087 28.5278 4.9002 30.0319 3.97838 31.1477C3.97838 31.1477 1.64957 33.5736 0.0970336 34.4469L0.0485168 34.4954L0 34.5439L0.0485168 34.641H14.3125C17.0779 34.641 18.3879 33.5736 20.1345 31.924C20.1345 31.924 22.4633 29.4982 24.2099 28.7219H24.2584L24.3069 28.6734L24.2584 28.5278Z" fill="#02549F"/>
</g>
<defs>
<clipPath id="clip0_86_1108">
<rect width="122.068" height="34.641" fill="white"/>
</clipPath>
</defs>
</svg>
