<svg width="1143" height="163" viewBox="0 0 1143 163" fill="none" xmlns="http://www.w3.org/2000/svg">
<path d="M51.9875 5.16443V6.19733C43.5524 8.2631 40.1095 13.4275 40.1095 22.7235V107.076C40.1095 116.888 43.7246 122.569 51.9875 124.635V125.668H0V124.635C8.26291 122.569 11.8779 119.299 11.8779 107.076V22.7235C11.8779 11.5339 8.43505 8.2631 0 6.19733V5.16443H51.9875ZM63.8654 47.685L106.385 108.453C114.476 119.815 117.746 123.086 124.977 124.635V125.668H82.6291L40.1095 64.039L75.2269 29.9537C81.5962 23.7564 84.6948 20.3135 84.6948 15.8376C84.6948 10.6732 81.252 7.23021 70.9233 6.19733V5.16443H116.541V6.19733C104.319 8.95169 96.9171 15.6655 87.277 24.7893L63.8654 47.685Z" fill="#FBFBFB"/>
<path d="M207.117 106.732L208.667 106.904C205.74 121.02 196.617 128.25 184.567 128.25C173.894 128.25 167.869 122.225 166.664 113.101L166.319 111.724C163.909 120.331 155.474 128.25 142.563 128.25C127.759 128.25 119.496 118.093 119.496 106.732C119.496 91.4106 131.891 81.426 151.687 77.2944L165.975 74.3679V70.7528C165.975 57.4974 161.155 48.3736 146.695 48.3736C135.506 48.3736 127.587 53.7102 123.8 67.1377L122.423 66.7934C125.177 46.9964 138.26 34.6017 158.573 34.6017C181.468 34.6017 191.452 49.2343 191.452 71.2692V105.871C191.452 111.896 194.379 114.995 198.166 114.995C201.437 114.995 205.224 113.101 207.117 106.732ZM155.819 115.167C160.639 115.167 163.909 113.273 165.975 108.798V78.6716L159.261 79.8766C145.834 82.631 143.252 91.0663 143.252 99.5015C143.252 108.281 147.556 115.167 155.819 115.167Z" fill="#FBFBFB"/>
<path d="M230.82 103.805L265.076 106.387C279.192 107.42 289.348 113.79 289.348 128.422C289.348 144.26 277.298 162.68 243.042 162.68C215.843 162.68 203.621 154.761 203.621 142.194C203.621 134.964 208.785 128.25 218.425 125.496C212.056 122.397 208.441 116.544 208.441 108.453C208.441 99.1572 214.638 90.722 223.589 88.3119C214.466 83.1475 209.129 74.5401 209.129 63.8669C209.129 46.4799 223.589 34.6017 245.624 34.6017C251.821 34.6017 257.33 35.4625 262.15 37.184H288.143V40.6269H269.38C277.643 45.7914 282.291 53.8823 282.291 63.8669C282.291 81.426 267.83 93.3042 245.624 93.3042C238.394 93.3042 232.024 92.0992 226.688 89.6891C222.384 90.8941 220.147 93.3042 220.147 96.575C220.147 101.051 223.934 103.461 230.82 103.805ZM245.796 37.7004C238.222 37.7004 233.746 46.3078 233.746 64.7276C233.746 82.1146 238.222 90.0334 245.796 90.0334C253.198 90.0334 257.674 82.1146 257.674 64.7276C257.674 46.3078 253.198 37.8725 245.796 37.7004ZM250.272 156.31C268.175 156.31 278.159 149.424 278.159 140.473C278.159 134.448 274.544 132.037 263.699 131.177L227.549 127.906C225.311 127.734 223.417 127.389 221.524 126.701C219.286 129.283 218.425 131.693 218.425 135.308C218.425 147.875 230.475 156.31 250.272 156.31Z" fill="#FBFBFB"/>
<path d="M359.823 125.668H286.834V125.152L335.378 40.9712H327.976C309.729 40.9712 297.679 53.8823 291.998 74.3679H291.137L296.129 37.184H365.331V37.7004L316.787 121.881H322.984C342.608 121.881 355.347 110.347 362.405 85.7297H363.265L359.823 125.668Z" fill="#FBFBFB"/>
<path d="M387.013 29.093C378.922 29.093 372.725 22.8957 372.725 14.9769C372.725 7.05807 378.922 0.860739 387.013 0.860739C395.104 0.860739 401.129 7.05807 401.129 14.9769C401.129 22.8957 395.104 29.093 387.013 29.093ZM400.613 35.1182V113.273C400.613 120.159 404.055 123.086 410.769 124.635V125.668H364.979V124.635C371.692 123.086 375.135 120.159 375.135 113.273V58.5303C375.135 49.5786 372.725 46.8242 364.979 46.1357V45.1028L400.613 35.1182Z" fill="#FBFBFB"/>
<path d="M490.215 5.16443V6.19733C481.78 8.2631 478.337 13.4275 478.337 22.7235V107.076C478.337 116.888 481.952 122.569 490.215 124.635V125.668H438.227V124.635C446.49 122.569 450.105 119.299 450.105 107.076V22.7235C450.105 11.5339 446.662 8.2631 438.227 6.19733V5.16443H490.215Z" fill="#FBFBFB"/>
<path d="M577.2 60.7682V113.273C577.2 120.159 580.643 123.086 587.357 124.635V125.668H543.976V124.635C549.657 123.258 551.723 120.676 551.723 114.306V61.8011C551.723 51.3001 547.763 45.9635 539.673 45.9635C532.959 45.9635 529 49.9229 526.762 54.3987V114.306C526.762 120.676 528.655 123.258 534.508 124.635V125.668H491.128V124.635C497.842 123.086 501.285 120.159 501.285 113.273V58.3582C501.285 49.2343 498.875 46.4799 491.128 45.7914V44.7585L526.762 34.946V51.8165C530.033 41.4877 539.501 34.6017 552.067 34.6017C568.421 34.6017 577.2 44.5863 577.2 60.7682Z" fill="#FBFBFB"/>
<path d="M669.558 0V112.068C669.558 120.848 673.173 123.086 679.714 124.635V125.668H644.081V110.691C640.81 119.987 632.547 128.25 619.464 128.25C600.528 128.25 587.617 110.863 587.617 84.6968C587.617 54.3987 606.037 34.6017 629.448 34.6017C635.818 34.6017 640.466 36.1511 644.081 38.5611V22.7235C644.081 15.4933 640.466 11.8782 629.793 12.7389V11.7061L669.558 0ZM633.408 114.651C638.744 114.651 642.359 112.068 644.081 107.937V45.7914C642.531 42.1762 639.089 39.2497 633.752 39.2497C622.218 39.2497 615.16 54.5709 615.16 77.6387C615.16 101.051 623.251 114.651 633.408 114.651Z" fill="#FBFBFB"/>
<path d="M761.468 34.946V112.068C761.468 120.848 765.083 123.086 771.625 124.635V125.668H735.991V110.347C732.548 120.159 723.768 128.25 711.718 128.25C696.742 128.25 686.93 119.987 686.93 100.362V54.743C686.93 45.2749 684.52 42.6927 676.773 42.0041V40.9712L712.407 34.946V99.6737C712.407 109.658 717.055 114.823 724.801 114.823C729.966 114.651 733.925 111.896 735.991 107.765V54.5709C735.991 45.2749 734.097 42.3484 727.556 41.6598V40.6269L761.468 34.946Z" fill="#FBFBFB"/>
<path d="M802.608 128.25C790.902 128.25 779.024 124.119 770.761 118.093L777.647 93.4763L778.852 93.6485C782.123 110.003 794.001 122.053 807.944 122.053C818.445 122.053 822.749 116.028 822.749 110.003C822.749 104.494 819.478 100.879 812.936 98.2965L790.041 88.1397C777.647 82.631 773.515 73.6793 773.515 63.8669C773.515 49.7508 784.36 34.6017 808.977 34.6017C818.961 34.6017 829.979 37.3561 837.897 42.6927L830.667 64.2112H829.462C824.47 45.6192 813.453 40.2826 803.296 40.2826C793.484 40.2826 789.525 44.9306 789.525 50.7836C789.525 55.4316 792.279 59.7353 799.165 62.6618L821.199 72.4743C832.733 77.4666 838.069 85.0411 838.069 96.0585C838.069 113.101 825.675 128.25 802.608 128.25Z" fill="#FBFBFB"/>
<path d="M896.28 104.838L897.657 105.355C893.87 117.921 884.574 128.25 869.597 128.25C855.137 128.25 848.251 119.126 848.251 105.699V40.9712H838.267V40.1105C851.694 32.1917 863.572 22.5514 873.212 9.12384H873.901V37.5282H891.287V40.9712H873.901V101.739C873.901 109.658 877.172 114.995 883.541 114.995C890.427 114.995 894.214 110.691 896.28 104.838Z" fill="#FBFBFB"/>
<path d="M955.558 34.6017H957.451V59.391H956.591C954.697 58.3582 951.943 57.8417 947.639 57.8417C936.45 57.8417 929.047 63.8669 929.047 86.7626V113.273C929.047 121.02 933.351 123.43 942.647 124.635V125.668H893.414V124.635C900.127 123.086 903.57 120.159 903.57 113.273V59.9075C903.57 50.0951 900.988 46.6521 893.414 45.9635V44.9306L928.015 34.946V73.5072H928.875C930.252 45.7914 940.581 34.6017 955.558 34.6017Z" fill="#FBFBFB"/>
<path d="M977.111 29.093C969.02 29.093 962.823 22.8957 962.823 14.9769C962.823 7.05807 969.02 0.860739 977.111 0.860739C985.201 0.860739 991.226 7.05807 991.226 14.9769C991.226 22.8957 985.201 29.093 977.111 29.093ZM990.71 35.1182V113.273C990.71 120.159 994.153 123.086 1000.87 124.635V125.668H955.076V124.635C961.79 123.086 965.233 120.159 965.233 113.273V58.5303C965.233 49.5786 962.823 46.8242 955.076 46.1357V45.1028L990.71 35.1182Z" fill="#FBFBFB"/>
<path d="M1072.4 94.1649L1073.61 94.5092C1069.3 119.299 1053.64 128.25 1038.66 128.25C1018.69 128.25 1000.44 112.757 1000.44 83.1475C1000.44 54.9152 1016.11 34.6017 1039.69 34.6017C1056.39 34.6017 1073.61 45.1028 1073.43 73.5072H1020.41C1022.13 95.5421 1033.5 107.765 1050.19 107.765C1059.49 107.765 1067.41 105.01 1072.4 94.1649ZM1035.91 39.4219C1026.27 39.4219 1020.24 50.0951 1020.24 67.3098V69.2035H1050.02C1050.19 47.1685 1044.51 39.4219 1035.91 39.4219Z" fill="#FBFBFB"/>
<path d="M1106.89 128.25C1095.18 128.25 1083.3 124.119 1075.04 118.093L1081.92 93.4763L1083.13 93.6485C1086.4 110.003 1098.28 122.053 1112.22 122.053C1122.72 122.053 1127.03 116.028 1127.03 110.003C1127.03 104.494 1123.76 100.879 1117.21 98.2965L1094.32 88.1397C1081.92 82.631 1077.79 73.6793 1077.79 63.8669C1077.79 49.7508 1088.64 34.6017 1113.25 34.6017C1123.24 34.6017 1134.26 37.3561 1142.18 42.6927L1134.95 64.2112H1133.74C1128.75 45.6192 1117.73 40.2826 1107.57 40.2826C1097.76 40.2826 1093.8 44.9306 1093.8 50.7836C1093.8 55.4316 1096.56 59.7353 1103.44 62.6618L1125.48 72.4743C1137.01 77.4666 1142.35 85.0411 1142.35 96.0585C1142.35 113.101 1129.95 128.25 1106.89 128.25Z" fill="#FBFBFB"/>
</svg>
