<svg width="204" height="50" viewBox="0 0 204 50" fill="none" xmlns="http://www.w3.org/2000/svg">
<path d="M196.38 17.2864V13.3103H194.96V12.5007H198.763V13.3103H197.346V17.2864H196.38Z" fill="#860000"/>
<path d="M199.377 17.2864V12.5007H200.823L201.691 15.7652L202.55 12.5007H203.999V17.2864H203.102V13.5192L202.152 17.2864H201.221L200.275 13.5192V17.2864H199.377Z" fill="#860000"/>
<path fill-rule="evenodd" clip-rule="evenodd" d="M25.157 0.005479C25.4711 -0.0141646 25.5398 0.0154348 25.5398 0.15294C25.5396 0.447828 25.284 1.17451 24.862 2.07774C24.6363 2.55891 24.4898 3.00125 24.529 3.06017C24.5582 3.11874 24.538 3.12866 24.4792 3.08946C24.3515 3.01173 24.0383 3.68826 24.1365 3.84532C24.1659 3.89441 24.1553 3.91385 24.0964 3.88439C24.0372 3.84626 23.8801 4.03291 23.7331 4.29747C23.4485 4.81785 23.4197 4.94554 23.5964 4.83751C23.6647 4.79851 23.6745 4.80822 23.6355 4.88634C23.5962 4.94521 23.5273 4.9752 23.488 4.95567C23.4487 4.92621 23.3206 5.07369 23.2126 5.27013C23.1045 5.46674 22.8696 5.88873 22.7029 6.20274C22.5262 6.50709 22.4177 6.81165 22.447 6.86095C22.4863 6.91988 22.4571 6.94889 22.3982 6.93907C22.339 6.92003 22.0644 7.30302 21.7898 7.79356C21.2009 8.8637 21.1416 8.98243 21.3181 8.87462C21.4065 8.82551 21.4258 8.83511 21.3767 8.91368C21.3374 8.97237 21.2694 9.00151 21.2302 8.98204C21.1909 8.95258 21.053 9.10008 20.945 9.30626C20.6996 9.7286 20.6805 9.85668 20.8474 9.74864C20.9158 9.70955 20.9256 9.71915 20.8865 9.79747C20.8472 9.8564 20.7686 9.87576 20.7097 9.8463C20.6312 9.79722 20.6216 9.83691 20.6609 9.94493C20.7001 10.043 20.6895 10.0926 20.6306 10.0533C20.5814 10.0243 20.3951 10.2986 20.2185 10.6617C20.0419 11.0248 19.8654 11.3388 19.8259 11.359C19.7768 11.3786 19.7478 11.4378 19.7478 11.4967C19.7478 11.5458 19.5906 11.8998 19.404 12.2731C19.0409 12.9897 18.9813 13.2052 19.1775 13.0875C19.2462 13.0482 19.2568 13.0587 19.2175 13.1373C19.1783 13.1962 19.1093 13.2252 19.07 13.1959C18.9621 13.137 18.55 14.1176 18.6374 14.2565C18.6669 14.3154 18.6475 14.325 18.5886 14.2858C18.5296 14.247 18.4122 14.3456 18.324 14.5221C18.2457 14.6786 18.1965 14.8151 18.2156 14.816C18.245 14.816 18.0878 15.17 17.8718 15.6022C17.4792 16.4074 17.4109 16.6437 17.6072 16.526C17.6759 16.4867 17.6855 16.4962 17.6462 16.5748C17.6069 16.6336 17.538 16.6628 17.4988 16.6432C17.3993 16.588 16.557 18.4493 16.5661 18.7154C16.5661 18.8332 16.5273 18.9019 16.4685 18.8727C16.4194 18.8334 16.399 18.8829 16.4382 18.9811C16.4775 19.0695 16.4678 19.1287 16.4187 19.0992C16.3107 19.0307 16.1936 19.3153 16.282 19.4527C16.3111 19.5113 16.2909 19.531 16.2419 19.5016C16.114 19.4245 15.6926 20.3954 15.7908 20.5426C15.8202 20.5917 15.8105 20.6111 15.7615 20.5817C15.7025 20.5522 15.5357 20.8179 15.3786 21.1813C14.9172 22.2714 14.6417 22.8702 14.1902 23.8326C13.9545 24.3335 13.7585 24.7661 13.7585 24.7955C13.7582 24.8256 13.5614 25.2675 13.3161 25.7877C13.0708 26.2983 12.8747 26.7504 12.8747 26.7799C12.8645 26.8202 12.786 27.0256 12.6784 27.2408C12.4625 27.6926 12.4334 27.8205 12.6003 27.7223C12.6686 27.6833 12.6784 27.693 12.6394 27.7711C12.6002 27.83 12.5312 27.8599 12.5017 27.8404C12.3937 27.7717 10.892 31.1306 10.9509 31.2877C10.9803 31.3661 10.9696 31.405 10.9304 31.3756C10.881 31.3476 10.7539 31.5244 10.6462 31.7594L10.4499 32.191L10.6853 32.2506C10.8227 32.2801 11.0196 32.2801 11.1374 32.2506C11.2844 32.2114 11.3136 32.221 11.2253 32.2799C11.1273 32.3388 11.2352 32.4275 11.5984 32.5846C12.2954 32.8891 12.9242 33.3599 13.5525 34.0572C13.8368 34.3809 14.121 34.6367 14.1902 34.6275C14.249 34.6177 14.2888 34.6663 14.279 34.7252C14.2398 34.9019 14.6513 35.3532 14.7693 35.275C14.8282 35.2455 14.8388 35.2561 14.8093 35.315C14.7705 35.3744 15.0352 35.767 15.3884 36.1891C15.7514 36.6111 16.0949 37.0428 16.1638 37.1412C16.2324 37.2393 16.3402 37.3081 16.4187 37.2887C16.4874 37.269 16.5564 37.3283 16.5564 37.4068C16.5761 37.6916 16.7334 37.9071 16.8708 37.858C16.9492 37.8287 16.9784 37.849 16.949 37.8981C16.8725 38.0277 17.8625 39.2919 17.9802 39.2233C18.0293 39.194 18.0982 39.224 18.1374 39.2828C18.1765 39.361 18.1667 39.3707 18.0984 39.3316C17.8824 39.204 17.9802 39.3905 18.3825 39.901C18.5985 40.176 18.8344 40.402 18.8933 40.402C18.9619 40.4021 19.0113 40.4905 19.0115 40.5983C19.0115 40.7062 19.0697 40.7848 19.1384 40.7652C19.217 40.7554 19.247 40.7757 19.2175 40.8248C19.1586 40.923 20.3955 42.6617 20.5329 42.6617C20.5723 42.6618 20.6509 42.7006 20.6999 42.7496C20.7488 42.7986 20.7293 42.8082 20.6609 42.7691C20.5137 42.6808 20.4838 42.8672 20.6306 42.9557C20.6895 42.995 20.8467 43.1918 20.9841 43.4078C21.1214 43.6335 21.2688 43.7709 21.3376 43.732C21.4064 43.6928 21.416 43.7024 21.3767 43.7711C21.2886 43.9185 21.4853 44.2918 21.6325 44.2525C21.6914 44.2429 21.7399 44.3213 21.7497 44.4293C21.7793 44.7142 22.7911 46.0596 22.9089 45.9908C22.9774 45.9517 22.9871 45.9711 22.948 46.0397C22.8499 46.1869 23.3502 46.6684 23.4978 46.5807C23.5567 46.5414 23.5761 46.5609 23.5466 46.61C23.4595 46.7483 24.0675 47.4346 24.2048 47.3561C24.2636 47.3267 24.2831 47.3266 24.2439 47.3756C24.1359 47.4836 24.3516 47.8367 24.4792 47.7584C24.5381 47.7191 24.5585 47.7297 24.5193 47.7984C24.49 47.8575 24.5483 48.073 24.6462 48.2789C25.1469 49.2315 24.9313 49.9779 24.156 49.9781C22.8405 49.9781 19.326 49.1342 17.9118 48.4762C17.794 48.4271 17.6262 48.4066 17.5378 48.4459C17.4497 48.4753 17.401 48.4657 17.4304 48.4166C17.4589 48.3673 17.1943 48.2102 16.822 48.0631C16.4587 47.9158 16.1045 47.7587 16.0456 47.6998C15.9769 47.641 15.8497 47.6215 15.7712 47.6608C15.6831 47.6901 15.6338 47.6803 15.6628 47.6315C15.7414 47.5136 14.8579 47.1105 14.7204 47.1891C14.6518 47.2283 14.6422 47.2187 14.6814 47.15C14.7206 47.0813 14.5927 46.9631 14.3767 46.8551C13.8367 46.5899 13.0609 46.1482 12.7566 45.942C12.6196 45.8344 12.4829 45.756 12.4529 45.7555C12.4038 45.7555 11.4016 45.0575 9.6638 43.8102C9.40868 43.6335 9.15338 43.5063 9.0847 43.5358C9.00628 43.565 8.92762 43.535 8.88841 43.4762C8.84944 43.4079 8.85921 43.3982 8.92747 43.4371C8.99619 43.4764 9.04562 43.4667 9.04563 43.4176C9.04563 43.1917 6.71012 42.1509 6.43431 42.2584C6.34605 42.2878 6.31617 42.2683 6.34544 42.2193C6.48288 42.0033 6.10032 42.1406 5.72728 42.4352C5.21674 42.8477 4.80388 43.6826 4.5388 44.8121C4.24433 46.0297 3.96984 46.9038 3.70481 47.4244C3.51836 47.7877 3.42985 47.8762 3.09642 47.9449C2.4877 48.0726 0.887117 48.2792 0.946025 48.2301C0.974932 48.2004 0.857532 48.0927 0.700908 47.9947C0.534002 47.8965 0.356496 47.6996 0.297588 47.5621C0.0424343 46.8841 0.0134589 44.7894 0.00364234 24.5797C-0.00617481 5.31097 -0.0258428 5.93781 0.39622 5.61388C0.562995 5.48629 1.39631 5.46605 1.58372 5.5836C1.65244 5.62289 1.7213 6.03571 1.74095 6.57579C1.7704 7.08648 1.81018 7.76434 1.82981 8.08849C1.84945 8.41261 1.86888 8.75693 1.86888 8.84532C1.87886 8.9628 1.95728 9.022 2.13353 9.02208C2.30043 9.02208 2.35937 8.98255 2.31028 8.89415C2.26119 8.80575 2.27173 8.80581 2.36009 8.88439C2.52944 9.03099 4.58925 8.71712 5.70774 8.38341C5.95318 8.30484 6.2578 8.22635 6.39524 8.19689C7.73984 7.95137 11.1138 6.96013 11.0388 6.83165C11.0094 6.77273 11.0287 6.7631 11.0974 6.80235C11.1563 6.84164 11.4416 6.79212 11.7263 6.70372C12.001 6.6056 12.2853 6.51735 12.3347 6.50743C12.8549 6.37978 14.2882 5.77087 14.2693 5.68224C14.2594 5.62331 14.2885 5.60394 14.3474 5.63341C14.4752 5.71185 15.0548 5.49533 14.9861 5.38731C14.9665 5.34806 15.0548 5.33833 15.1824 5.36778C15.3197 5.38735 15.4867 5.36807 15.5554 5.30919C15.6147 5.25995 16.0164 5.07275 16.4382 4.8961C16.8898 4.70949 17.165 4.54293 17.1257 4.48399C17.0963 4.42513 17.1166 4.40566 17.1755 4.44493C17.2862 4.50235 18.3724 4.07146 18.3728 3.96349C18.3728 3.93402 18.3233 3.93397 18.2546 3.97325C18.1862 4.0123 18.1765 4.00262 18.2156 3.93419C18.2548 3.87536 18.3432 3.84541 18.4118 3.87462C18.6081 3.95315 19.3733 3.54163 19.2956 3.40392C19.2564 3.3451 19.2663 3.3249 19.3347 3.36388C19.4721 3.45227 20.3458 3.02081 20.2673 2.90294C20.2379 2.84401 20.2484 2.83441 20.3074 2.86388C20.4467 2.95053 21.4355 2.35278 21.3572 2.22521C21.3179 2.15645 21.3285 2.14686 21.3972 2.18614C21.5355 2.26821 21.8795 2.09255 21.8659 1.97325L21.8464 1.91466C21.8514 1.88923 21.903 1.89118 21.9763 1.92052C22.0743 1.94991 22.123 1.95005 22.0837 1.90099C22.0447 1.8616 22.1823 1.73351 22.3982 1.63536C22.6136 1.52758 22.7607 1.3908 22.7224 1.33165C22.693 1.27279 22.7125 1.26225 22.781 1.30138C22.9183 1.38971 23.7031 0.830874 23.5964 0.722276C23.5571 0.673167 23.5765 0.673223 23.6452 0.71251C23.7044 0.741729 23.9199 0.663187 24.1159 0.535752C24.3121 0.398396 24.5576 0.260732 24.6658 0.231065C24.7738 0.191778 24.8328 0.132657 24.8132 0.0933696C24.7847 0.0541817 24.9415 0.0152851 25.157 0.005479ZM34.2888 13.1568C34.9071 13.0783 35.0745 13.0781 35.9187 13.1959C36.7433 13.3041 37.7544 13.9229 38.1667 14.5611C38.4416 15.0031 38.5695 15.8284 38.4812 16.5748C38.4321 16.9284 38.373 17.2921 38.3337 17.3707C38.3043 17.4492 38.2645 17.5861 38.2449 17.6647C38.1958 17.8807 37.3316 20.4841 36.6345 22.5074C36.3008 23.4697 36.0553 24.3241 36.0847 24.4029C36.1142 24.4815 36.1045 24.5301 36.0554 24.4908C35.9367 24.4264 35.3491 26.2594 35.4177 26.4752C35.457 26.6028 35.4473 26.6124 35.3884 26.524C35.2706 26.3671 34.9074 27.5064 35.0154 27.6832C35.0644 27.7715 35.0538 27.7909 34.9851 27.7418C34.9169 27.7029 34.8682 27.6835 34.8679 27.7027C34.8679 27.7224 34.4846 28.8425 34.0232 30.1979C33.3065 32.2995 32.9137 33.4585 31.6277 37.4557C31.3332 38.3886 31.0097 39.8716 30.9997 40.3531C30.9899 40.9325 31.1271 41.5515 31.2351 41.483C31.2939 41.4536 31.3035 41.4925 31.2742 41.5807C31.1956 41.7673 31.422 42.337 31.5398 42.2584C31.5886 42.2294 31.6082 42.269 31.5788 42.3375C31.5495 42.4062 31.569 42.5333 31.6277 42.6119C31.7062 42.7396 31.7847 42.7397 32.2361 42.5729C33.0215 42.3077 33.9841 41.8264 33.9841 41.7184C33.9842 41.6598 34.0231 41.6404 34.072 41.6695C34.2192 41.7579 36.7514 40.2658 36.6745 40.1373C36.6451 40.0981 36.6938 40.0884 36.7722 40.1178C36.8604 40.1472 36.9291 40.1276 36.9294 40.0787C36.9294 40.0198 37.0178 39.9412 37.1355 39.9117C37.2533 39.8725 37.7637 39.5775 38.2742 39.2633C38.7847 38.949 39.2368 38.6832 39.2761 38.6832C39.3252 38.6831 39.4329 38.5852 39.5212 38.4674C39.6096 38.3397 39.6591 38.301 39.6296 38.36C39.5513 38.5168 39.6296 38.5168 39.8845 38.3795C39.9923 38.3305 40.0513 38.2421 40.0222 38.193C39.9927 38.1537 40.0617 38.1332 40.1697 38.1627C40.2777 38.1921 40.4349 38.1631 40.5134 38.0943C40.6311 37.9964 40.729 38.0262 41.0232 38.2027C41.2294 38.3304 41.4361 38.4284 41.4753 38.4088C41.5243 38.399 41.5339 38.4282 41.5046 38.4772C41.4654 38.5262 41.485 38.5951 41.5437 38.6344C41.7597 38.7719 41.6326 39.2537 41.2497 39.735C41.0338 40.01 40.896 40.265 40.9353 40.3043C40.9545 40.3283 40.9596 40.3406 40.9529 40.3434L40.8679 40.3141C40.7194 40.2868 40.4412 40.5869 40.5329 40.7066C40.582 40.7558 40.5723 40.7655 40.5232 40.7262C40.4052 40.6281 39.8558 41.0311 39.9343 41.1588C39.9734 41.2175 39.9629 41.2371 39.904 41.2076C39.776 41.13 39.2677 41.4723 39.3542 41.5807C39.4033 41.62 39.3742 41.6298 39.2956 41.5807C39.2269 41.5415 39.1386 41.5521 39.0993 41.6109C39.0396 41.7095 38.4605 42.0823 37.5974 42.5729C37.3429 42.7197 37.1563 42.8768 37.1843 42.9264C37.2138 42.9755 37.2041 43.0055 37.155 42.9957C36.9489 42.9565 36.7626 43.025 36.5368 43.2115C36.3996 43.3194 36.3602 43.3783 36.4382 43.3395C36.5658 43.2707 36.5658 43.2898 36.448 43.4274C36.3008 43.6041 36.1936 43.6537 36.2917 43.4967C36.3801 43.3494 36.3009 43.3781 35.8591 43.6236C35.6339 43.751 35.4869 43.8887 35.5251 43.9381C35.5742 43.9774 35.545 43.9871 35.4861 43.9479C35.3378 43.8703 34.3479 44.5078 34.4558 44.6256C34.495 44.6747 34.4649 44.6746 34.3962 44.6354C34.3173 44.5868 34.0429 44.6951 33.7097 44.901C33.4053 45.0876 33.0512 45.2739 32.9236 45.3033C32.806 45.3426 32.7276 45.4115 32.7566 45.4606C32.786 45.5097 32.7569 45.5785 32.698 45.6178C32.6194 45.6571 32.6099 45.6475 32.6492 45.5787C32.7571 45.402 32.5505 45.441 32.3738 45.6178C32.2858 45.696 32.217 45.7452 32.2165 45.7164C32.2165 45.687 31.9913 45.7752 31.7263 45.9127C31.4319 46.06 31.2546 46.2072 31.2937 46.2662C31.333 46.335 31.3136 46.3446 31.2449 46.3053C31.1171 46.2269 30.4314 46.4228 30.489 46.5211C30.5086 46.5604 30.43 46.6002 30.322 46.6002C30.2041 46.61 29.684 46.7381 29.1736 46.8854C27.8189 47.2684 27.7595 47.2779 26.572 47.2779C25.5313 47.2779 25.4717 47.2583 24.8728 46.9342C24.0089 46.4726 23.2919 45.7455 22.8894 44.9303C22.5655 44.2822 22.5564 44.2128 22.5564 43.1129C22.5466 41.6301 22.7523 40.4515 23.3904 38.3697C23.4982 37.9969 23.6059 37.6237 23.6257 37.5348C23.6453 37.4366 23.9792 36.4248 24.362 35.2955C24.7449 34.1564 25.2456 32.7028 25.4617 32.0543C25.6776 31.4062 25.9134 30.738 25.9822 30.5807C26.1 30.2958 26.3462 29.5984 26.3855 29.402C26.4159 29.2522 27.3959 26.6135 27.612 26.0826C27.72 25.8175 27.789 25.5324 27.7497 25.444C27.7203 25.3557 27.7205 25.3162 27.7595 25.3551C27.7988 25.3944 27.9851 25.0315 28.1716 24.5602C28.3581 24.0888 28.6337 23.3914 28.781 23.0182C29.2325 21.9086 29.3789 21.3979 29.3103 21.2799C29.271 21.221 29.2816 21.2006 29.3503 21.2399C29.4092 21.2691 29.5072 21.1519 29.5759 20.9361C29.7625 20.3959 29.7819 20.2972 29.8015 20.0026C29.8015 19.8651 29.8413 19.7671 29.8806 19.7867C29.9985 19.8632 30.2139 18.9019 30.155 18.4996C30.1059 18.1463 30.0764 18.1072 29.7917 18.0777C29.4185 18.0386 27.9562 18.7946 28.0642 18.9615C28.0936 19.0302 28.0733 19.0399 28.0144 19.0006C27.9057 18.9423 27.4839 19.099 27.0622 19.3639C26.9542 19.4326 26.5225 19.6789 26.1003 19.9147C25.6291 20.1798 25.3637 20.3762 25.4128 20.4449C25.4422 20.5135 25.4423 20.533 25.3933 20.4938C25.3536 20.4547 24.6472 20.7689 23.8327 21.191C21.7219 22.3009 20.229 22.8901 19.5417 22.9098C18.6091 22.9294 18.1185 22.4973 18.3835 21.8688C18.462 21.6922 18.5104 21.5157 18.4909 21.4664C18.4811 21.4271 18.5112 21.4068 18.5505 21.4166C18.5998 21.4359 18.8258 21.2498 19.071 21.0143C19.3066 20.7787 19.689 20.4353 19.9148 20.2486C20.1504 20.0522 20.3075 19.8651 20.2781 19.816C20.2487 19.767 20.2885 19.7475 20.3572 19.777C20.4263 19.8057 20.6417 19.678 20.8279 19.5016C21.0144 19.3248 21.3783 19.0203 21.6335 18.8238C21.8881 18.6377 22.0742 18.4515 22.0554 18.4117C22.0259 18.3823 22.0357 18.3725 22.0652 18.402C22.1636 18.4703 22.5068 18.254 22.4577 18.1656C22.4287 18.1265 22.4676 18.0877 22.5359 18.0875C22.7518 18.0875 24.2543 17.0465 24.196 16.9381C24.1666 16.889 24.1859 16.8793 24.2449 16.9186C24.3727 16.9969 24.9708 16.6926 24.9021 16.5846C24.8829 16.5552 24.942 16.526 25.03 16.5162C25.3146 16.4966 26.1292 15.9859 26.071 15.8775C26.0318 15.8088 26.0512 15.7992 26.1101 15.8385C26.2673 15.9364 26.9238 15.6128 26.8464 15.4752C26.817 15.4262 26.8366 15.406 26.8855 15.4352C27.0228 15.5235 29.5708 14.426 29.5075 14.3063C29.4781 14.267 29.5169 14.2573 29.5954 14.2867C29.7823 14.3552 31.6349 13.7372 31.5691 13.6285C31.5396 13.5795 31.5883 13.5698 31.6667 13.5992C31.7453 13.6287 32.2266 13.5598 32.737 13.4518C33.2378 13.3339 33.9354 13.1961 34.2888 13.1568ZM35.2107 0.221299C36.0057 0.2606 36.9088 0.496217 37.2624 0.771104C37.3704 0.849677 37.6353 1.09604 37.8513 1.31212C38.0673 1.5282 38.2051 1.63581 38.156 1.55724C38.1069 1.4689 38.1167 1.43978 38.1658 1.48888C38.2148 1.53801 38.2546 1.62628 38.2546 1.68517C38.2645 1.75421 38.3227 1.99952 38.3913 2.24474C38.4797 2.52956 38.4999 2.93237 38.4607 3.42345C38.4214 3.82614 38.3816 4.27808 38.3718 4.4254C38.362 4.56259 38.3134 4.66046 38.2644 4.62169C38.2153 4.59222 38.2047 4.64164 38.2341 4.73985C38.2733 4.82819 38.2637 4.87673 38.2146 4.84728C38.1655 4.8184 38.0868 4.88701 38.0574 5.0045C37.9788 5.23036 37.2137 6.19281 36.8406 6.53673C36.7031 6.65455 36.379 6.90004 36.1238 7.067C35.8587 7.23397 35.6821 7.42116 35.7214 7.48009C35.7506 7.53867 35.7304 7.54858 35.6716 7.50939C35.5626 7.44129 34.4371 7.87172 34.5134 7.95079C34.5429 7.97043 34.1207 8.0103 33.5808 8.02013C32.5695 8.05941 31.9605 7.93155 31.2634 7.53868C31.0968 7.44064 30.93 7.39133 30.8904 7.43028C30.8511 7.46957 30.8414 7.4501 30.8611 7.40099C30.9095 7.25316 30.3402 6.55683 30.2224 6.63536C30.1638 6.66456 30.1539 6.64436 30.1931 6.58556C30.2321 6.52605 30.1935 6.21199 30.1052 5.88829C29.8991 5.10283 29.9183 4.74928 30.1931 3.90489C30.3207 3.50221 30.4091 3.13857 30.3796 3.08946C30.3406 3.04054 30.3698 3.03091 30.4284 3.06993C30.4972 3.10922 30.5864 3.04044 30.6355 2.90294C30.6944 2.76547 30.7827 2.62777 30.8318 2.58849C30.9787 2.50008 30.9689 2.31399 30.822 2.40196C30.7436 2.44119 30.7234 2.43134 30.7722 2.38243C30.8212 2.33342 30.8901 2.29372 30.9392 2.29357C31.0374 2.29357 32.1074 1.28213 32.0583 1.23302C32.0394 1.21348 32.0788 1.19396 32.1472 1.19396C32.3436 1.19388 33.001 0.76189 32.9421 0.663682C32.9127 0.614603 32.9525 0.595163 33.0212 0.62462C33.0907 0.653635 33.4339 0.554834 33.7868 0.427354C34.3267 0.221159 34.5529 0.182017 35.2107 0.221299Z" fill="#860000"/>
<path d="M58.9205 36.807H54.5107V11.2962H58.9205V36.807ZM63.5124 22.5209L74.0447 36.807H68.5417L60.524 25.9467V25.5458L62.7106 22.2658C65.371 18.2205 66.6101 14.6855 66.7559 11.2962H72.4412C70.5461 13.2642 66.027 18.7308 63.5124 22.5209Z" fill="#860000"/>
<path d="M74.5213 19.7147C77.0724 19.2045 79.6235 18.6943 81.8101 18.6943C85.5274 18.6943 88.2607 20.1156 88.2607 25.1813V37.0256H88.1878L84.2518 33.0532C82.7941 35.9687 80.0972 37.2807 77.7284 37.2807C75.1044 37.2807 72.8084 35.6772 72.8084 32.871C72.8084 28.8257 75.5053 26.8942 84.0696 24.9262V21.2818C84.0696 20.0427 83.3772 19.3139 82.211 19.3139C80.4981 19.3139 77.7648 20.8081 74.5578 24.3796L74.5213 19.7147ZM84.0696 31.887V25.5458C78.7124 27.0764 76.8902 29.7368 76.8902 31.8506C76.8902 33.7821 78.3844 34.9119 80.0608 34.9119C81.5914 34.9119 83.2679 33.9643 84.0696 31.887Z" fill="#860000"/>
<path d="M96.7624 37.0985C102.593 36.6976 106.894 38.7749 106.894 43.0389C106.894 47.6673 102.047 49.9997 97.1633 49.9997C92.3162 49.9997 87.4327 47.6673 87.4327 43.0389C87.4327 38.4105 91.2593 36.479 94.9766 34.5474C92.0247 33.3448 88.7811 31.0124 88.7811 26.4933C88.7811 20.881 93.7375 18.2934 98.293 18.7672C101.901 19.1316 102.849 15.9975 103.468 13.5922L107.404 14.7948C106.675 18.3663 104.233 19.3868 100.698 19.3503C103.577 20.4072 105.8 22.8854 105.8 26.7484C105.8 32.7252 100.808 34.8754 96.7624 37.0985ZM92.79 25.2178C92.79 28.8622 93.5917 31.3039 96.3979 33.7821C99.277 32.1786 101.792 30.3199 101.792 26.8213C101.792 22.2294 99.3134 19.4232 96.653 19.4232C94.43 19.4232 92.79 21.7192 92.79 25.2178ZM91.6602 42.966C91.6602 46.7562 95.0859 49.2708 98.1108 49.2708C100.48 49.2708 102.63 47.7037 102.63 43.8771C102.63 40.2327 99.7143 37.5358 95.1224 38.0825C93.1544 39.3216 91.6602 40.7429 91.6602 42.966Z" fill="#860000"/>
<path d="M119.899 32.3972H119.936V36.807H105.285V35.9687L114.833 19.9334C111.517 19.9699 108.565 21.6827 105.504 23.5414V19.1316H119.717V19.9334L110.169 35.9687C113.376 35.9687 116.692 34.3652 119.899 32.3972Z" fill="#860000"/>
<path d="M122.574 15.6695C120.971 15.6695 120.023 14.5397 120.023 13.1184C120.023 11.7335 120.971 10.6038 122.574 10.6038C124.178 10.6038 125.089 11.7335 125.089 13.1184C125.089 14.5397 124.178 15.6695 122.574 15.6695ZM120.461 19.7512L124.579 18.8765H124.652V36.807H120.461V19.7512Z" fill="#860000"/>
<path d="M136.57 36.807H132.161V11.2962H136.57V36.807Z" fill="#860000"/>
<path d="M142.354 22.9583C143.885 20.0427 146.29 18.7308 148.586 18.7308C151.829 18.7308 154.854 21.3183 154.854 25.5093V36.807H150.663V26.3111C150.663 22.448 148.914 20.553 146.91 20.553C145.306 20.553 143.484 21.8285 142.354 24.3067V36.807H138.163V19.7512L142.281 18.8765H142.354V22.9583Z" fill="#860000"/>
<path d="M166.043 8.34424C166.043 16.7992 173.733 21.3183 173.733 28.7164C173.733 34.4381 169.323 37.2078 164.804 37.2078C160.103 37.2078 155.292 34.183 155.292 28.3155C155.292 23.3956 158.791 19.2774 165.278 18.8401C163.419 15.6695 161.779 12.3166 161.779 8.34424H166.043ZM159.593 27.9875C159.593 33.7821 162.945 36.4425 165.97 36.4425C168.485 36.4425 170.781 34.6203 170.781 31.231C170.781 27.04 167.975 23.2863 165.496 19.2045C161.451 20.5894 159.593 23.9787 159.593 27.9875Z" fill="#860000"/>
<path d="M176.493 15.6695C174.889 15.6695 173.942 14.5397 173.942 13.1184C173.942 11.7335 174.889 10.6038 176.493 10.6038C178.096 10.6038 179.008 11.7335 179.008 13.1184C179.008 14.5397 178.096 15.6695 176.493 15.6695ZM174.379 19.7512L178.497 18.8765H178.57V36.807H174.379V19.7512Z" fill="#860000"/>
<path d="M180.693 19.7147C183.244 19.2045 185.795 18.6943 187.982 18.6943C191.699 18.6943 194.432 20.1156 194.432 25.1813V37.0256H194.359L190.423 33.0532C188.966 35.9687 186.269 37.2807 183.9 37.2807C181.276 37.2807 178.98 35.6772 178.98 32.871C178.98 28.8257 181.677 26.8942 190.241 24.9262V21.2818C190.241 20.0427 189.549 19.3139 188.382 19.3139C186.67 19.3139 183.936 20.8081 180.729 24.3796L180.693 19.7147ZM190.241 31.887V25.5458C184.884 27.0764 183.062 29.7368 183.062 31.8506C183.062 33.7821 184.556 34.9119 186.232 34.9119C187.763 34.9119 189.439 33.9643 190.241 31.887Z" fill="#860000"/>
</svg>
