<svg width="284" height="40" viewBox="0 0 284 40" fill="none" xmlns="http://www.w3.org/2000/svg">
<path d="M54.546 8.04762V8.25714C52.8349 8.67619 52.1365 9.72381 52.1365 11.6095V28.7206C52.1365 30.7111 52.8698 31.8635 54.546 32.2825V32.4921H44V32.2825C45.6762 31.8635 46.4095 31.2 46.4095 28.7206V11.6095C46.4095 9.33968 45.7111 8.67619 44 8.25714V8.04762H54.546ZM56.9556 16.673L65.581 29C67.2222 31.3048 67.8857 31.9683 69.3524 32.2825V32.4921H60.7619L52.1365 19.9905L59.2603 13.0762C60.5524 11.819 61.181 11.1206 61.181 10.2127C61.181 9.16508 60.4825 8.46667 58.3873 8.25714V8.04762H67.6413V8.25714C65.1619 8.81587 63.6603 10.1778 61.7048 12.0286L56.9556 16.673Z" fill="#860000"/>
<path d="M86.0153 28.6508L86.3295 28.6857C85.7359 31.5492 83.8851 33.0159 81.4407 33.0159C79.2756 33.0159 78.0533 31.7937 77.8089 29.9429L77.7391 29.6635C77.2502 31.4095 75.5391 33.0159 72.92 33.0159C69.9168 33.0159 68.2407 30.9556 68.2407 28.6508C68.2407 25.5429 70.7549 23.5175 74.7708 22.6794L77.6692 22.0857V21.3524C77.6692 18.6635 76.6914 16.8127 73.7581 16.8127C71.4883 16.8127 69.8819 17.8952 69.1137 20.619L68.8343 20.5492C69.393 16.5333 72.047 14.019 76.1676 14.019C80.8121 14.019 82.8375 16.9873 82.8375 21.4571V28.4762C82.8375 29.6984 83.4311 30.327 84.1994 30.327C84.8629 30.327 85.6311 29.9429 86.0153 28.6508ZM75.6089 30.3619C76.5867 30.3619 77.2502 29.9778 77.6692 29.0698V22.9587L76.3073 23.2032C73.5835 23.7619 73.0597 25.473 73.0597 27.1841C73.0597 28.9651 73.9327 30.3619 75.6089 30.3619Z" fill="#860000"/>
<path d="M90.8234 28.0571L97.7726 28.581C100.636 28.7905 102.696 30.0825 102.696 33.0508C102.696 36.2635 100.252 40 93.3028 40C87.7853 40 85.3059 38.3937 85.3059 35.8444C85.3059 34.3778 86.3535 33.0159 88.3091 32.4571C87.017 31.8286 86.2837 30.6413 86.2837 29C86.2837 27.1143 87.5408 25.4032 89.3567 24.9143C87.5059 23.8667 86.4234 22.1206 86.4234 19.9556C86.4234 16.4286 89.3567 14.019 93.8266 14.019C95.0837 14.019 96.2012 14.1937 97.1789 14.5429H102.452V15.2413H98.6456C100.322 16.2889 101.265 17.9302 101.265 19.9556C101.265 23.5175 98.3313 25.927 93.8266 25.927C92.3599 25.927 91.0678 25.6825 89.9853 25.1937C89.1123 25.4381 88.6583 25.927 88.6583 26.5905C88.6583 27.4984 89.4266 27.9873 90.8234 28.0571ZM93.8615 14.6476C92.325 14.6476 91.417 16.3937 91.417 20.1302C91.417 23.6571 92.325 25.2635 93.8615 25.2635C95.3631 25.2635 96.271 23.6571 96.271 20.1302C96.271 16.3937 95.3631 14.6825 93.8615 14.6476ZM94.7694 38.7079C98.4012 38.7079 100.427 37.3111 100.427 35.4952C100.427 34.273 99.6932 33.7841 97.4932 33.6095L90.1599 32.946C89.7059 32.9111 89.3218 32.8413 88.9377 32.7016C88.4837 33.2254 88.3091 33.7143 88.3091 34.4476C88.3091 36.9968 90.7535 38.7079 94.7694 38.7079Z" fill="#860000"/>
<path d="M116.993 32.4921H102.186V32.3873L112.034 15.3111H110.532C106.831 15.3111 104.386 17.9302 103.234 22.0857H103.059L104.072 14.5429H118.11V14.6476L108.262 31.7238H109.52C113.501 31.7238 116.085 29.3841 117.516 24.3905H117.691L116.993 32.4921Z" fill="#860000"/>
<path d="M122.508 12.9016C120.867 12.9016 119.61 11.6444 119.61 10.0381C119.61 8.43175 120.867 7.1746 122.508 7.1746C124.15 7.1746 125.372 8.43175 125.372 10.0381C125.372 11.6444 124.15 12.9016 122.508 12.9016ZM125.267 14.1238V29.9778C125.267 31.3746 125.966 31.9683 127.327 32.2825V32.4921H118.039V32.2825C119.4 31.9683 120.099 31.3746 120.099 29.9778V18.873C120.099 17.0571 119.61 16.4984 118.039 16.3587V16.1492L125.267 14.1238Z" fill="#860000"/>
<path d="M143.444 8.04762V8.25714C141.732 8.67619 141.034 9.72381 141.034 11.6095V28.7206C141.034 30.7111 141.767 31.8635 143.444 32.2825V32.4921H132.898V32.2825C134.574 31.8635 135.307 31.2 135.307 28.7206V11.6095C135.307 9.33968 134.609 8.67619 132.898 8.25714V8.04762H143.444Z" fill="#860000"/>
<path d="M161.089 19.327V29.9778C161.089 31.3746 161.788 31.9683 163.149 32.2825V32.4921H154.349V32.2825C155.502 32.0032 155.921 31.4794 155.921 30.1873V19.5365C155.921 17.4063 155.118 16.3238 153.476 16.3238C152.115 16.3238 151.311 17.127 150.857 18.0349V30.1873C150.857 31.4794 151.242 32.0032 152.429 32.2825V32.4921H143.629V32.2825C144.991 31.9683 145.689 31.3746 145.689 29.9778V18.8381C145.689 16.9873 145.2 16.4286 143.629 16.2889V16.0794L150.857 14.0889V17.5111C151.521 15.4159 153.442 14.019 155.991 14.019C159.308 14.019 161.089 16.0444 161.089 19.327Z" fill="#860000"/>
<path d="M179.825 7V29.7333C179.825 31.5143 180.558 31.9683 181.885 32.2825V32.4921H174.656V29.454C173.993 31.3397 172.317 33.0159 169.663 33.0159C165.821 33.0159 163.202 29.4889 163.202 24.181C163.202 18.0349 166.939 14.019 171.688 14.019C172.98 14.019 173.923 14.3333 174.656 14.8222V11.6095C174.656 10.1429 173.923 9.40952 171.758 9.58413V9.3746L179.825 7ZM172.491 30.2571C173.574 30.2571 174.307 29.7333 174.656 28.8952V16.2889C174.342 15.5556 173.644 14.9619 172.561 14.9619C170.221 14.9619 168.79 18.0698 168.79 22.7492C168.79 27.4984 170.431 30.2571 172.491 30.2571Z" fill="#860000"/>
<path d="M198.469 14.0889V29.7333C198.469 31.5143 199.203 31.9683 200.53 32.2825V32.4921H193.301V29.3841C192.603 31.3746 190.822 33.0159 188.377 33.0159C185.339 33.0159 183.349 31.3397 183.349 27.3587V18.1048C183.349 16.1841 182.86 15.6603 181.288 15.5206V15.3111L188.517 14.0889V27.219C188.517 29.2444 189.46 30.2921 191.031 30.2921C192.079 30.2571 192.882 29.6984 193.301 28.8603V18.0698C193.301 16.1841 192.917 15.5905 191.59 15.4508V15.2413L198.469 14.0889Z" fill="#860000"/>
<path d="M206.815 33.0159C204.44 33.0159 202.031 32.1778 200.354 30.9556L201.751 25.9619L201.996 25.9968C202.659 29.3143 205.069 31.7587 207.897 31.7587C210.027 31.7587 210.9 30.5365 210.9 29.3143C210.9 28.1968 210.237 27.4635 208.91 26.9397L204.266 24.8794C201.751 23.7619 200.913 21.946 200.913 19.9556C200.913 17.0921 203.113 14.019 208.107 14.019C210.132 14.019 212.367 14.5778 213.973 15.6603L212.507 20.0254H212.262C211.25 16.254 209.015 15.1714 206.954 15.1714C204.964 15.1714 204.161 16.1143 204.161 17.3016C204.161 18.2444 204.719 19.1175 206.116 19.7111L210.586 21.7016C212.926 22.7143 214.008 24.2508 214.008 26.4857C214.008 29.9429 211.494 33.0159 206.815 33.0159Z" fill="#860000"/>
<path d="M225.817 28.2667L226.096 28.3714C225.328 30.9206 223.442 33.0159 220.404 33.0159C217.471 33.0159 216.074 31.1651 216.074 28.4413V15.3111H214.048V15.1365C216.772 13.5302 219.182 11.5746 221.137 8.85079H221.277V14.6127H224.804V15.3111H221.277V27.6381C221.277 29.2444 221.941 30.327 223.233 30.327C224.629 30.327 225.398 29.454 225.817 28.2667Z" fill="#860000"/>
<path d="M237.842 14.019H238.226V19.0476H238.051C237.667 18.8381 237.108 18.7333 236.235 18.7333C233.966 18.7333 232.464 19.9556 232.464 24.6V29.9778C232.464 31.5492 233.337 32.0381 235.223 32.2825V32.4921H225.235V32.2825C226.597 31.9683 227.296 31.3746 227.296 29.9778V19.1524C227.296 17.1619 226.772 16.4635 225.235 16.3238V16.1143L232.254 14.0889V21.9111H232.429C232.708 16.2889 234.804 14.019 237.842 14.019Z" fill="#860000"/>
<path d="M242.214 12.9016C240.573 12.9016 239.315 11.6444 239.315 10.0381C239.315 8.43175 240.573 7.1746 242.214 7.1746C243.855 7.1746 245.077 8.43175 245.077 10.0381C245.077 11.6444 243.855 12.9016 242.214 12.9016ZM244.973 14.1238V29.9778C244.973 31.3746 245.671 31.9683 247.033 32.2825V32.4921H237.744V32.2825C239.106 31.9683 239.804 31.3746 239.804 29.9778V18.873C239.804 17.0571 239.315 16.4984 237.744 16.3587V16.1492L244.973 14.1238Z" fill="#860000"/>
<path d="M261.544 26.1016L261.789 26.1714C260.916 31.2 257.738 33.0159 254.7 33.0159C250.649 33.0159 246.947 29.873 246.947 23.8667C246.947 18.1397 250.125 14.019 254.909 14.019C258.296 14.019 261.789 16.1492 261.754 21.9111H250.998C251.347 26.381 253.652 28.8603 257.039 28.8603C258.925 28.8603 260.531 28.3016 261.544 26.1016ZM254.141 14.9968C252.185 14.9968 250.963 17.1619 250.963 20.654V21.0381H257.004C257.039 16.5683 255.887 14.9968 254.141 14.9968Z" fill="#860000"/>
<path d="M268.54 33.0159C266.165 33.0159 263.756 32.1778 262.079 30.9556L263.476 25.9619L263.721 25.9968C264.384 29.3143 266.794 31.7587 269.622 31.7587C271.752 31.7587 272.625 30.5365 272.625 29.3143C272.625 28.1968 271.962 27.4635 270.635 26.9397L265.99 24.8794C263.476 23.7619 262.638 21.946 262.638 19.9556C262.638 17.0921 264.838 14.019 269.832 14.019C271.857 14.019 274.092 14.5778 275.698 15.6603L274.232 20.0254H273.987C272.975 16.254 270.74 15.1714 268.679 15.1714C266.689 15.1714 265.886 16.1143 265.886 17.3016C265.886 18.2444 266.444 19.1175 267.841 19.7111L272.311 21.7016C274.651 22.7143 275.733 24.2508 275.733 26.4857C275.733 29.9429 273.219 33.0159 268.54 33.0159Z" fill="#860000"/>
<path d="M277.257 12V8.67667H276V8H279.366V8.67667H278.112V12H277.257Z" fill="#860000"/>
<path d="M279.909 12V8H281.189L281.957 10.7285L282.717 8H284V12H283.205V8.8513L282.365 12H281.541L280.704 8.8513V12H279.909Z" fill="#860000"/>
<path fill-rule="evenodd" clip-rule="evenodd" d="M20.5372 0.00441537C20.7932 -0.0112814 20.8495 0.011955 20.8497 0.121603C20.8497 0.357401 20.6415 0.939534 20.2969 1.66262C20.1126 2.04779 19.9924 2.40159 20.0245 2.44875C20.0484 2.49584 20.0324 2.50353 19.9844 2.47219C19.8803 2.40934 19.6234 2.95149 19.7032 3.07766C19.7272 3.1169 19.7198 3.13232 19.6719 3.10891C19.6238 3.07748 19.4952 3.22689 19.375 3.43899C19.1426 3.8556 19.1185 3.95807 19.2627 3.8716C19.3188 3.84021 19.3269 3.84803 19.295 3.91067C19.263 3.95766 19.207 3.98171 19.1748 3.96633C19.1428 3.94276 19.0384 4.06018 18.9502 4.21731C18.8621 4.37452 18.6695 4.71283 18.5332 4.96438C18.3891 5.20791 18.3013 5.4513 18.3252 5.49074C18.3572 5.53781 18.3331 5.56193 18.2852 5.55422C18.2371 5.5385 18.0125 5.84478 17.7881 6.23781C17.3073 7.0946 17.2591 7.18854 17.4034 7.10207C17.4753 7.06288 17.4913 7.07146 17.4512 7.1343C17.4191 7.18119 17.3631 7.20466 17.3311 7.18899C17.2991 7.16542 17.1868 7.28288 17.0987 7.44777C16.8984 7.78568 16.8825 7.88859 17.0186 7.80227C17.0747 7.77083 17.0829 7.77848 17.0508 7.84133C17.0188 7.88849 16.9544 7.90397 16.9063 7.88039C16.8423 7.84124 16.8342 7.8731 16.8663 7.95949C16.8982 8.03795 16.8899 8.07684 16.8418 8.04543C16.8011 8.02367 16.6496 8.2431 16.5059 8.53274C16.3616 8.82358 16.2167 9.07561 16.1846 9.09133C16.1448 9.10722 16.1211 9.15469 16.1211 9.20168C16.1201 9.24271 15.9924 9.52445 15.8409 9.8218C15.5443 10.3956 15.4961 10.5694 15.6563 10.4751C15.7124 10.4437 15.7206 10.4513 15.6885 10.5142C15.6565 10.5613 15.5995 10.5846 15.5674 10.5611C15.4788 10.5166 15.144 11.2982 15.2149 11.4097C15.2389 11.4569 15.2229 11.4655 15.1748 11.4341C15.1267 11.4027 15.0311 11.4811 14.959 11.6226C14.8956 11.747 14.8555 11.8557 14.8702 11.8579C14.8942 11.8579 14.7662 12.141 14.5899 12.4868C14.2693 13.1314 14.2138 13.3204 14.3741 13.2261C14.43 13.1948 14.4373 13.2023 14.4053 13.2652C14.3732 13.3122 14.3172 13.3355 14.2852 13.3198C14.2031 13.278 13.5165 14.7671 13.5245 14.979C13.5244 15.0729 13.4922 15.128 13.4444 15.105C13.4043 15.0736 13.388 15.1124 13.42 15.1909C13.4519 15.2614 13.444 15.3086 13.4043 15.2857C13.3162 15.2306 13.2199 15.4588 13.292 15.5689C13.3156 15.6155 13.2996 15.6312 13.2598 15.6079C13.1557 15.5451 12.8108 16.3226 12.8907 16.4409C12.9147 16.4802 12.9072 16.4956 12.8672 16.4722C12.8192 16.4486 12.6829 16.661 12.5547 16.9517C12.178 17.8242 11.9537 18.3044 11.585 19.0747C11.3935 19.4738 11.2329 19.8179 11.2315 19.8443C11.2315 19.8678 11.0715 20.2217 10.8711 20.6382C10.6717 21.0451 10.5122 21.4056 10.5108 21.4321C10.5028 21.4636 10.4388 21.6293 10.3506 21.8023C10.1744 22.1638 10.1499 22.2656 10.2862 22.187C10.3421 22.1557 10.3502 22.1635 10.3184 22.2261C10.2864 22.2731 10.2303 22.2972 10.2061 22.2818C10.1179 22.2267 8.89174 24.9141 8.9395 25.0405C8.96354 25.1034 8.95593 25.1344 8.92387 25.1109C8.88382 25.0873 8.77957 25.229 8.69145 25.4175L8.53129 25.7642L8.72367 25.8111C8.83582 25.8345 8.99578 25.8346 9.09184 25.8111C9.21204 25.7796 9.23619 25.7873 9.1641 25.8345C9.08396 25.8817 9.17224 25.9529 9.46879 26.0786C10.0377 26.3223 10.5507 26.6993 11.0635 27.2573C11.2959 27.5167 11.5289 27.7213 11.585 27.7134C11.6328 27.7059 11.6642 27.7446 11.6563 27.7915C11.6242 27.933 11.9615 28.2948 12.0577 28.232C12.1054 28.2086 12.1137 28.2164 12.0899 28.2632C12.0578 28.3104 12.274 28.6254 12.5625 28.9634C12.8586 29.3008 13.1387 29.6459 13.1954 29.7251C13.2515 29.8037 13.3402 29.859 13.4043 29.8433C13.4603 29.8279 13.5157 29.8753 13.5157 29.938C13.5318 30.1658 13.6603 30.3385 13.7725 30.2993C13.8365 30.2758 13.8607 30.2915 13.837 30.3306C13.7729 30.4326 14.5797 31.444 14.6778 31.3921C14.7178 31.3685 14.7746 31.3919 14.8067 31.439C14.8387 31.5019 14.8306 31.5095 14.7745 31.478C14.5984 31.3761 14.6785 31.5256 15.0069 31.9341C15.1832 32.1542 15.3758 32.3355 15.4239 32.3355C15.4799 32.3357 15.5196 32.4063 15.5196 32.4927C15.5196 32.579 15.568 32.6422 15.6241 32.6265C15.6881 32.6186 15.7124 32.6342 15.6885 32.6734C15.6405 32.7519 16.6477 34.1401 16.7618 34.1431C16.7938 34.1431 16.8584 34.1751 16.8985 34.2144C16.9382 34.2535 16.9222 34.2613 16.8663 34.23C16.7461 34.1593 16.7218 34.3086 16.8418 34.3794C16.8899 34.4109 17.0187 34.5678 17.1309 34.7407C17.2428 34.921 17.3627 35.0311 17.419 35.0005C17.4751 34.9691 17.4833 34.9767 17.4512 35.0318C17.3795 35.1498 17.5401 35.4479 17.6602 35.4165C17.7081 35.4091 17.7479 35.472 17.7559 35.5581C17.7799 35.7861 18.606 36.8631 18.7022 36.8081C18.758 36.7769 18.7654 36.7923 18.7334 36.8472C18.6534 36.9651 19.0624 37.3505 19.1827 37.2798C19.2307 37.2484 19.2467 37.264 19.2227 37.3032C19.1506 37.4133 19.6476 37.9638 19.7598 37.9009C19.8078 37.8773 19.824 37.8773 19.792 37.9165C19.7039 38.003 19.8802 38.286 19.9844 38.2232C20.0324 38.1918 20.0477 38.1994 20.0157 38.2544C19.9919 38.3018 20.0402 38.4744 20.1202 38.6392C20.5289 39.4016 20.3528 39.9994 19.7198 39.9995C18.6458 39.9995 15.7762 39.3231 14.6221 38.7964C14.5259 38.7572 14.3895 38.7415 14.3174 38.773C14.2453 38.7965 14.2055 38.7888 14.2295 38.7495C14.253 38.7101 14.0367 38.5841 13.7325 38.4663C13.4368 38.3488 13.1489 38.2237 13.0997 38.1763C13.0436 38.1292 12.9392 38.1128 12.875 38.1441C12.8029 38.1676 12.7631 38.1599 12.7872 38.1206C12.8495 38.026 12.1304 37.7048 12.0176 37.7671C11.9616 37.7985 11.9534 37.7908 11.9854 37.7359C12.0175 37.6808 11.9127 37.586 11.7364 37.4995C11.2956 37.2873 10.6625 36.9341 10.4141 36.7691C10.3021 36.6828 10.1904 36.6199 10.1661 36.6196C10.126 36.6196 9.30831 36.0613 7.88969 35.063C7.68136 34.9216 7.4732 34.8198 7.41703 34.8433C7.35291 34.8669 7.28894 34.8426 7.25688 34.7954C7.22492 34.7406 7.23238 34.733 7.28813 34.7642C7.34422 34.7956 7.3848 34.7878 7.38481 34.7486C7.38481 34.5678 5.47832 33.7349 5.25297 33.8208C5.18084 33.8444 5.15667 33.8289 5.18071 33.7896C5.2929 33.6166 4.98036 33.7266 4.67582 33.9624C4.25906 34.2926 3.9225 34.9608 3.7061 35.8648C3.46565 36.8395 3.24085 37.539 3.02446 37.9556C2.87217 38.2464 2.79989 38.3176 2.52739 38.3726C2.03016 38.4748 0.724426 38.6394 0.772502 38.6001C0.796213 38.5764 0.700321 38.4901 0.572307 38.4116C0.436067 38.333 0.291308 38.176 0.243206 38.0659C0.0348196 37.5235 0.0109861 35.8488 0.00297126 19.6714C-0.00504147 4.25312 -0.0210648 4.75162 0.323284 4.4927C0.459466 4.39056 1.14026 4.37509 1.29301 4.46926C1.34911 4.5007 1.40589 4.83086 1.42192 5.2632C1.44595 5.67175 1.47815 6.21368 1.49418 6.47317C1.5102 6.73236 1.52541 7.00761 1.52543 7.07863C1.53345 7.17295 1.59801 7.22022 1.74223 7.22024C1.87848 7.22024 1.92683 7.18844 1.88676 7.1177C1.84685 7.04721 1.85483 7.04714 1.9268 7.10988C2.06303 7.22777 3.74542 6.97671 4.65922 6.70949C4.85958 6.64661 5.10853 6.58366 5.22074 6.56008C6.31878 6.36356 9.07588 5.5695 9.01176 5.46731C8.98777 5.42022 9.00364 5.41253 9.05961 5.44387C9.1077 5.47531 9.34085 5.43551 9.57328 5.36477C9.79706 5.2864 10.0286 5.21564 10.0694 5.20754C10.4942 5.10535 11.6645 4.61813 11.6485 4.54738C11.6406 4.50045 11.6649 4.48479 11.7129 4.50832C11.8173 4.57102 12.2895 4.39847 12.2334 4.31203C12.2174 4.28062 12.2896 4.27292 12.3936 4.29641C12.5058 4.31213 12.6422 4.29572 12.6983 4.24856C12.7464 4.20925 13.0753 4.05997 13.42 3.91848C13.7886 3.76915 14.0126 3.63556 13.9805 3.5884C13.9567 3.54153 13.9736 3.52579 14.0215 3.55715C14.1116 3.60314 14.9967 3.25931 14.9991 3.17238C14.9991 3.1488 14.9585 3.14875 14.9024 3.1802C14.8466 3.21141 14.8382 3.20288 14.8702 3.14797C14.9023 3.10088 14.9752 3.07753 15.0313 3.10109C15.192 3.16351 15.816 2.83415 15.752 2.72414C15.7199 2.67698 15.7281 2.66145 15.7842 2.69289C15.8968 2.76337 16.61 2.41708 16.5459 2.32277C16.522 2.27574 16.5301 2.26797 16.5782 2.29152C16.6912 2.36143 17.4987 1.88327 17.4356 1.78078C17.4035 1.72576 17.4117 1.71809 17.4678 1.74953C17.5883 1.8196 17.8993 1.65531 17.8438 1.56106C17.8117 1.51389 17.8603 1.5052 17.9405 1.53664C18.0206 1.56021 18.0604 1.56031 18.0284 1.52102C17.9969 1.48936 18.1092 1.38756 18.2852 1.3091C18.4614 1.22265 18.5819 1.11211 18.5498 1.06496C18.5259 1.01793 18.5417 1.01011 18.5977 1.04152C18.7099 1.11222 19.3509 0.664122 19.2627 0.577658C19.2309 0.5386 19.2469 0.538548 19.3028 0.569845C19.3509 0.593427 19.5272 0.530433 19.6875 0.428243C19.8478 0.318236 20.0486 0.208653 20.1368 0.185079C20.2247 0.153637 20.2729 0.106135 20.2569 0.0747279C20.2328 0.043285 20.3608 0.0122761 20.5372 0.00441537ZM27.9922 10.5298C28.4968 10.467 28.6332 10.4668 29.3223 10.5611C29.9955 10.6475 30.8206 11.143 31.1573 11.6538C31.3817 12.0075 31.4862 12.6678 31.4141 13.2652C31.3741 13.5479 31.326 13.8387 31.294 13.9019C31.2699 13.9648 31.2378 14.0753 31.2217 14.1382C31.1807 14.3137 30.4759 16.3951 29.9073 18.0132C29.6355 18.7814 29.4353 19.4637 29.458 19.5298C29.4821 19.5926 29.4746 19.6323 29.4346 19.6011C29.3384 19.5461 28.857 21.0161 28.9131 21.189C28.9452 21.2912 28.9378 21.2988 28.8897 21.228C28.7935 21.1023 28.4968 22.0143 28.585 22.1558C28.625 22.2264 28.6167 22.2419 28.5606 22.2027C28.5047 22.1714 28.465 22.1558 28.4649 22.1714C28.4649 22.1871 28.1521 23.0837 27.7754 24.1685C27.1904 25.8505 26.8693 26.778 25.8194 29.9771C25.5789 30.7238 25.3147 31.9112 25.3067 32.2964C25.2987 32.7601 25.4109 33.2547 25.4991 33.1997C25.5471 33.1762 25.5553 33.2081 25.5313 33.2788C25.4674 33.4282 25.6509 33.8828 25.7471 33.8208C25.7872 33.7972 25.8034 33.8293 25.7793 33.8843C25.7556 33.9394 25.7715 34.0413 25.8194 34.104C25.8835 34.2062 25.948 34.2063 26.3164 34.0728C26.9565 33.8609 27.7404 33.4766 27.7432 33.3892C27.7432 33.342 27.7754 33.3256 27.8155 33.3491C27.9356 33.4198 29.9985 32.2282 29.9395 32.1236C29.9155 32.0921 29.9555 32.0834 30.0196 32.107C30.0917 32.1305 30.1475 32.115 30.1475 32.0757C30.1478 32.0286 30.2205 31.9655 30.3164 31.9419C30.4135 31.9098 30.8301 31.6745 31.2461 31.4234C31.6628 31.1719 32.0315 30.9595 32.0635 30.9595C32.1037 30.9592 32.1917 30.8808 32.2637 30.7866C32.3358 30.6846 32.3756 30.6536 32.3516 30.7007C32.2878 30.8261 32.3524 30.8263 32.5606 30.7163C32.6483 30.6771 32.6964 30.6063 32.6729 30.5669C32.6488 30.5355 32.7048 30.5199 32.793 30.5435C32.8812 30.5669 33.0093 30.5427 33.0733 30.4878C33.1694 30.4094 33.25 30.4333 33.4903 30.5747C33.6582 30.6766 33.8259 30.7551 33.8584 30.7398C33.8984 30.7319 33.9067 30.7553 33.8829 30.7945C33.8508 30.8338 33.867 30.889 33.9151 30.9204C34.0911 31.0307 33.9863 31.4163 33.6739 31.8013C33.4979 32.021 33.3863 32.2246 33.418 32.2564C33.45 32.2956 33.4337 32.2964 33.3858 32.273C33.2737 32.2102 33.0098 32.4761 33.0889 32.5786C33.1289 32.6179 33.121 32.6265 33.0811 32.5952C32.9849 32.5166 32.5365 32.8387 32.6006 32.9409C32.6324 32.9878 32.6242 33.0035 32.5762 32.98C32.4721 32.9171 32.0553 33.1922 32.127 33.2788C32.1671 33.3103 32.1433 33.3181 32.0791 33.2788C32.023 33.2474 31.951 33.2551 31.919 33.3023C31.8708 33.3809 31.3976 33.6798 30.6924 34.0728C30.4842 34.1906 30.3325 34.3167 30.3565 34.356C30.3802 34.395 30.372 34.4185 30.3321 34.4107C30.1638 34.3792 30.0115 34.4342 29.8272 34.5835C29.715 34.67 29.683 34.7175 29.7471 34.6861C29.8513 34.631 29.8511 34.6463 29.7549 34.7564C29.6347 34.8979 29.5468 34.9368 29.627 34.8111C29.6987 34.6937 29.6344 34.7175 29.2745 34.9136C29.0901 35.0158 28.9699 35.1262 29.002 35.1655C29.0415 35.1967 29.0175 35.2045 28.9698 35.1734C28.8496 35.1105 28.0404 35.6208 28.128 35.7154C28.16 35.7546 28.1362 35.7546 28.0801 35.7232C28.016 35.6839 27.7911 35.771 27.5186 35.9361C27.2704 36.0852 26.9823 36.2346 26.878 36.2583C26.7821 36.2897 26.7177 36.344 26.7413 36.3833C26.7653 36.4226 26.7414 36.4778 26.6934 36.5093C26.6293 36.5407 26.6213 36.5331 26.6534 36.478C26.7415 36.3366 26.573 36.3678 26.4288 36.5093C26.357 36.5718 26.3014 36.6112 26.3008 36.5884C26.3008 36.5648 26.1159 36.6356 25.8995 36.7456C25.66 36.8631 25.516 36.9805 25.5469 37.0279C25.579 37.0829 25.563 37.0915 25.5069 37.0601C25.4026 36.9972 24.8416 37.1543 24.8897 37.2329C24.9055 37.2643 24.8419 37.2954 24.7539 37.2954C24.6578 37.3033 24.2331 37.4051 23.8164 37.523C22.7105 37.8295 22.6619 37.8374 21.6924 37.8374C20.843 37.8374 20.7944 37.8223 20.3057 37.563C19.6005 37.1936 19.0152 36.6118 18.6866 35.9595C18.4221 35.4408 18.4141 35.3854 18.4141 34.5054C18.4061 33.3185 18.5748 32.3749 19.0957 30.7085C19.1839 30.4098 19.2711 30.1103 19.2872 30.0396C19.3039 29.9589 19.5766 29.1502 19.8887 28.2476C20.2013 27.3358 20.6098 26.1727 20.7862 25.6538C20.9623 25.1357 21.1546 24.6017 21.211 24.4751C21.3071 24.2473 21.5078 23.6894 21.5401 23.5318C21.5641 23.4138 22.3657 21.299 22.542 20.8745C22.63 20.6627 22.686 20.435 22.6543 20.3638C22.6303 20.293 22.6301 20.2611 22.6622 20.2925C22.6942 20.3238 22.8458 20.033 22.9981 19.6558C23.1503 19.2787 23.3749 18.7212 23.4952 18.4224C23.8638 17.5341 23.9839 17.1251 23.9278 17.0308C23.8958 16.9837 23.9039 16.9681 23.96 16.9995C24.0081 17.0231 24.0885 16.9283 24.1446 16.7554C24.2968 16.3231 24.3131 16.2441 24.3291 16.0083C24.3292 15.899 24.3608 15.8208 24.3926 15.8355C24.4888 15.8983 24.6652 15.1286 24.6172 14.8062C24.5772 14.5234 24.5534 14.4919 24.3213 14.4683C24.0169 14.4369 22.823 15.0414 22.9102 15.1753C22.9342 15.2303 22.9182 15.238 22.8702 15.2066C22.7817 15.1597 22.4372 15.2855 22.0928 15.4976C22.0047 15.5526 21.6522 15.7494 21.3077 15.938C20.9229 16.1502 20.7061 16.3078 20.7461 16.3628C20.77 16.4175 20.7703 16.433 20.7305 16.4019C20.6985 16.3704 20.1212 16.6215 19.4561 16.9595C17.7329 17.8478 16.5142 18.3197 15.9532 18.3355C15.192 18.3511 14.7916 18.0054 15.0079 17.5025C15.0719 17.3612 15.1116 17.2198 15.0957 17.1802C15.0878 17.1489 15.1118 17.1325 15.1436 17.1402C15.1837 17.1559 15.368 17.0065 15.5684 16.8179C15.7607 16.6293 16.0735 16.355 16.2579 16.2056C16.4502 16.0484 16.5788 15.8982 16.5547 15.8589C16.531 15.8199 16.5625 15.8044 16.6182 15.8277C16.6743 15.8512 16.8508 15.7493 17.003 15.6079C17.1552 15.4665 17.4518 15.2222 17.6602 15.065C17.8686 14.9156 18.021 14.7663 18.0049 14.7349C17.9813 14.7116 17.9898 14.7036 18.0137 14.7271C18.0941 14.7817 18.3741 14.6093 18.334 14.5386C18.31 14.5072 18.3417 14.4763 18.3975 14.4761C18.5737 14.4761 19.7987 13.6439 19.753 13.5562C19.7289 13.5169 19.7449 13.5091 19.793 13.5405C19.898 13.6026 20.3852 13.3593 20.3291 13.273C20.3137 13.2495 20.3619 13.2261 20.4336 13.2183C20.6658 13.2026 21.3299 12.7946 21.2832 12.7075C21.2512 12.6526 21.2675 12.644 21.3155 12.6753C21.4437 12.7539 21.9797 12.4954 21.9161 12.3853C21.8921 12.3461 21.9085 12.3298 21.9483 12.353C22.0603 12.4237 24.1393 11.546 24.0889 11.4497C24.0649 11.4183 24.0963 11.4106 24.1602 11.4341C24.3125 11.4891 25.8276 10.9932 25.7715 10.9068C25.7479 10.8677 25.7878 10.8599 25.8516 10.8833C25.9157 10.9069 26.3089 10.8516 26.7256 10.7652C27.1344 10.6708 27.7038 10.5612 27.9922 10.5298ZM28.7452 0.177267C29.3942 0.208777 30.1315 0.397649 30.42 0.617697C30.5082 0.680712 30.7243 0.876633 30.9004 1.04934C31.0764 1.22195 31.1889 1.30882 31.1495 1.2466C31.1094 1.17593 31.1173 1.1518 31.1573 1.19094C31.1972 1.23015 31.2294 1.301 31.2295 1.34817C31.2375 1.40319 31.2857 1.59991 31.3418 1.79641C31.414 2.02435 31.4296 2.34676 31.3975 2.73977C31.3655 3.06196 31.3333 3.42351 31.3252 3.54152C31.3172 3.65157 31.2774 3.73019 31.2373 3.69875C31.1973 3.67519 31.1889 3.71488 31.2129 3.79348C31.2449 3.86415 31.2374 3.90298 31.1973 3.87942C31.1572 3.85592 31.0934 3.91118 31.0694 4.00539C31.0053 4.18619 30.3798 4.95683 30.0752 5.23195C29.963 5.32626 29.6986 5.52219 29.4903 5.65578C29.2746 5.78899 29.1303 5.93819 29.1612 5.98586C29.1852 6.03303 29.1692 6.04172 29.1211 6.01027C29.0328 5.95532 28.1117 6.30091 28.1758 6.36379C28.1977 6.37956 27.8537 6.41064 27.4141 6.41848C26.5886 6.44991 26.0915 6.34813 25.5225 6.03371C25.3863 5.95513 25.2499 5.91536 25.2178 5.9468C25.1858 5.97816 25.1784 5.96264 25.1944 5.92336C25.234 5.80513 24.769 5.24722 24.6729 5.31008C24.6249 5.33358 24.6174 5.31814 24.6495 5.27102C24.6813 5.22347 24.6492 4.97155 24.5772 4.71242C24.409 4.08394 24.4252 3.80115 24.6495 3.12551C24.7536 2.80322 24.8258 2.51149 24.8018 2.47219C24.7698 2.43292 24.7938 2.42513 24.8418 2.45656C24.8979 2.48781 24.9698 2.43272 25.0098 2.32277C25.0578 2.21297 25.1299 2.10333 25.17 2.0718C25.2902 2.00106 25.2823 1.8517 25.1622 1.92238C25.098 1.95382 25.082 1.94606 25.1221 1.90676C25.1621 1.86758 25.2178 1.83567 25.2579 1.83547C25.338 1.83547 26.212 1.02614 26.1719 0.986837C26.156 0.97113 26.1881 0.955587 26.2442 0.955587C26.4046 0.955416 26.9417 0.60937 26.8936 0.530783C26.8696 0.491542 26.9011 0.476113 26.9571 0.499533C27.0132 0.523104 27.2937 0.444425 27.5821 0.342306C28.0229 0.177231 28.2082 0.145824 28.7452 0.177267Z" fill="#860000"/>
</svg>
