<svg width="60" height="60" viewBox="0 0 60 60" fill="none" xmlns="http://www.w3.org/2000/svg">
<path d="M13.877 19.1076V13.7908H0V19.1076H3.18371V30.4806H0V35.7974H13.877V30.4806H10.6933V19.1076H13.877Z" fill="#00539F"/>
<path d="M29.1916 22.2347C28.3339 21.9851 23.9205 20.722 23.1564 20.4725C22.3923 20.2229 21.7685 19.8643 21.7685 19.412C21.7685 18.9598 22.4702 18.4763 23.8894 18.4763C28.3651 18.4763 30.5151 21.2366 30.5151 21.2366C30.5151 21.2366 30.7574 21.5593 30.8386 21.6751H35.1568V14.1443H30.5211V15.5144C30.1671 15.2699 27.5531 13.564 23.4995 13.564C18.1505 13.564 15.1719 16.3398 15.1719 20.488C15.1719 24.6363 18.9302 26.3517 19.9751 26.7883C21.0199 27.225 25.1057 28.379 26.8524 28.9248C28.599 29.4706 29.2384 29.8605 29.2384 30.1412C29.2384 30.4219 28.4742 31.1549 26.291 31.1549C22.4879 31.1549 20.5295 28.9122 20.1858 28.4779V28.4746C20.0765 28.3281 19.9482 28.1548 19.9047 28.0896C19.8543 28.0141 19.7374 27.8465 19.6563 27.7308H15.3382V35.7728H20.1858V34.0934C20.7498 34.4688 23.6371 36.27 27.1019 36.27C30.9694 36.27 35.8973 34.5857 35.8973 29.3303C35.8973 24.0748 30.0493 22.4842 29.1916 22.2347Z" fill="#00539F"/>
<path d="M48.2057 13.4902C41.7585 13.4902 36.4707 16.7137 36.4707 24.9424C36.4707 33.1711 42.211 36.2533 48.2339 36.2533C54.2569 36.2533 59.9406 33.1993 59.9406 25.0274C59.9406 16.8555 54.2571 13.4902 48.2057 13.4902ZM48.2624 30.7675C46.0566 30.7675 44.6427 30.2585 44.6427 24.9142C44.6427 19.5698 45.6891 19.0043 48.3471 19.0043C49.9588 19.0043 51.91 19.1173 51.91 24.7445C51.91 30.3718 50.4681 30.7675 48.2624 30.7675Z" fill="#00539F"/>
<path d="M9.24633 11.3639C10.6956 9.22375 12.4779 7.32668 14.5211 5.75123C15.3473 6.36205 16.2254 6.9161 17.1486 7.40989C15.6019 9.13405 14.2161 11.0442 13.9865 11.3639H14.9146C15.4716 10.6131 16.6239 9.10273 17.8389 7.7637C19.167 8.41656 20.5784 8.95053 22.051 9.35724C21.659 10.1889 21.3627 10.9161 21.1888 11.3639H21.9951C22.1804 10.9027 22.4519 10.2596 22.7906 9.549C24.6692 10.008 26.6376 10.2652 28.6514 10.3044V11.364H29.3999V10.308C31.3989 10.2934 33.3565 10.0656 35.2285 9.63757C35.5476 10.3126 35.8045 10.9221 35.982 11.3639H36.7883C36.6212 10.9338 36.3415 10.2464 35.972 9.45555C37.471 9.06556 38.9093 8.54556 40.264 7.90294C41.4325 9.20641 42.5248 10.6391 43.0627 11.3639H43.9906C43.7682 11.0541 42.4541 9.24221 40.9609 7.5581C41.9875 7.02751 42.9609 6.4238 43.8707 5.75123C45.9139 7.32668 47.6963 9.22375 49.1455 11.3639H50.0459C45.6185 4.53072 37.9266 0 29.1958 0C20.465 0 12.7731 4.53072 8.3457 11.3639H9.24633ZM22.385 8.67269C20.9842 8.2943 19.6402 7.79826 18.3731 7.19144C18.5453 7.01254 18.7174 6.83925 18.8874 6.67519C20.6224 5.00206 23.4761 3.16487 24.1017 2.76938C24.6093 3.04822 25.1632 3.28401 25.7525 3.47115C25.2949 4.07124 24.3963 5.28937 23.4179 6.83451C23.037 7.43584 22.69 8.06787 22.385 8.67269ZM28.6514 9.55561C26.7555 9.51768 24.9019 9.28164 23.1301 8.86145C23.4071 8.31975 23.7163 7.76233 24.0503 7.2351C25.1776 5.45518 26.1946 4.11877 26.5335 3.68399C27.2095 3.8428 27.92 3.94323 28.6514 3.97605V9.55561ZM29.3999 9.55935V3.98453C30.1214 3.9723 30.8273 3.89595 31.5028 3.76009C31.8901 4.26099 32.8592 5.549 33.927 7.2351C34.2783 7.7899 34.6023 8.37801 34.8904 8.94629C33.1248 9.33678 31.2819 9.54538 29.3999 9.55935ZM35.6408 8.76901C35.3243 8.13523 34.9604 7.46778 34.5593 6.83451C33.6313 5.36909 32.775 4.19761 32.2988 3.56858C32.9254 3.39255 33.517 3.16374 34.0602 2.88691C34.9384 3.44981 37.489 5.13156 39.0897 6.67519C39.3022 6.88017 39.5175 7.09912 39.7326 7.32618C38.4391 7.9234 37.068 8.40683 35.6408 8.76901ZM43.2439 5.28326C42.3658 5.91716 41.4275 6.48506 40.4395 6.98434C40.1634 6.68816 39.885 6.40209 39.6094 6.13636C38.1121 4.69253 35.8828 3.17784 34.7906 2.46659C35.1616 2.22606 35.501 1.96008 35.8035 1.67051C38.5071 2.44302 41.0171 3.67825 43.2439 5.28326ZM29.196 0.748549C31.1727 0.748549 33.0939 0.989707 34.9334 1.44108C33.5374 2.57501 31.4456 3.24022 29.196 3.24022C26.9363 3.24022 24.8502 2.57713 23.456 1.44171C25.2962 0.989956 27.2183 0.748549 29.196 0.748549ZM22.5882 1.67051C22.8345 1.90656 23.1041 2.12738 23.3962 2.33098C22.4066 2.96775 19.9692 4.59223 18.3679 6.13623C18.1374 6.35855 17.9049 6.59534 17.6734 6.84012C16.7877 6.37639 15.9431 5.85702 15.1483 5.28326C17.3747 3.67825 19.8846 2.44314 22.5882 1.67051Z" fill="#00539F"/>
<path d="M49.1471 38.2909C47.7286 40.386 45.9907 42.2478 44.0017 43.8033C43.0544 43.091 42.0376 42.4542 40.9624 41.898C42.2577 40.4369 43.4183 38.8796 43.848 38.291H42.9158C42.3412 39.0583 41.3353 40.3599 40.2653 41.5534C38.9107 40.9106 37.4725 40.3902 35.9733 40.0003C36.2903 39.3215 36.5407 38.7199 36.7111 38.291H35.9024C35.731 38.7092 35.5031 39.2398 35.2292 39.8191C33.3583 39.3916 31.401 39.164 29.4004 39.1495V38.291H28.6518V39.1528C26.6365 39.1919 24.6682 39.4489 22.7907 39.9073C22.4983 39.2938 22.2559 38.7303 22.0758 38.291H21.267C21.4455 38.7406 21.712 39.3799 22.0509 40.0988C20.5779 40.5056 19.166 41.0388 17.838 41.6921C16.7222 40.4621 15.6596 39.0881 15.0624 38.2909H14.1302C14.5741 38.8991 15.8001 40.5437 17.149 42.047C16.1775 42.5672 15.255 43.1535 14.3911 43.8032C12.4019 42.2477 10.6641 40.3858 9.24569 38.2908H8.34668C12.7742 45.1239 20.4658 49.6546 29.1965 49.6546C37.9271 49.6546 45.6188 45.124 50.0464 38.2908L49.1471 38.2909ZM35.6415 40.6873C37.0693 41.0493 38.4404 41.5326 39.734 42.1301C39.5185 42.3574 39.3031 42.5767 39.0902 42.7821C37.4944 44.3207 34.952 45.9986 34.0672 46.566C33.524 46.288 32.9317 46.0592 32.303 45.8832C32.7801 45.253 33.6342 44.0838 34.5596 42.6225C34.961 41.9891 35.3249 41.3213 35.6415 40.6873ZM29.4003 39.8979C31.2837 39.9119 33.1267 40.1199 34.8911 40.5098C34.6029 41.0785 34.2789 41.6667 33.9272 42.222C32.8609 43.9058 31.8933 45.1924 31.5049 45.6948C30.8312 45.5606 30.1254 45.4848 29.4001 45.4729V39.8979H29.4003ZM28.6517 39.9016V45.4806C27.9176 45.5131 27.2064 45.6123 26.5312 45.77C26.19 45.332 25.1762 43.9993 24.0506 42.222C23.7164 41.6944 23.407 41.1366 23.1298 40.5944C24.9006 40.1747 26.7543 39.9395 28.6517 39.9016ZM22.385 40.7838C22.6901 41.389 23.0373 42.021 23.4182 42.6226C24.396 44.1665 25.2938 45.3839 25.7518 45.9845C25.1617 46.1715 24.6084 46.4075 24.101 46.6871C23.4731 46.2899 20.6219 44.4541 18.8879 42.7821C18.7176 42.6179 18.5455 42.4443 18.3731 42.2653C19.6399 41.6582 20.9838 41.1621 22.385 40.7838ZM15.013 44.2726C15.8473 43.6592 16.7368 43.1063 17.6726 42.6161C17.9044 42.8612 18.1373 43.0983 18.3681 43.3209C19.969 44.8645 22.4057 46.4886 23.3956 47.1256C23.043 47.3725 22.7214 47.644 22.4358 47.9387C19.7357 47.1475 17.2312 45.8949 15.013 44.2726ZM29.1964 48.9062C27.155 48.9062 25.1723 48.6498 23.2782 48.1694C24.6613 46.954 26.8576 46.217 29.1964 46.217C31.5324 46.217 33.7307 46.9545 35.1139 48.1695C33.22 48.6499 31.2376 48.9062 29.1964 48.9062ZM35.9566 47.9387C35.617 47.5888 35.2288 47.2696 34.7958 46.9873C35.8899 46.2748 38.1147 44.7625 39.6097 43.3208C39.8854 43.0549 40.1639 42.7687 40.4402 42.4723C41.4786 42.9975 42.4627 43.5984 43.3797 44.2724C41.1613 45.895 38.6567 47.1476 35.9566 47.9387Z" fill="#00539F"/>
<path d="M1.42797 57.5933C1.46128 58.2126 1.70019 58.6406 2.14496 58.8774C2.37351 59.0022 2.63114 59.0644 2.91796 59.0644C3.45404 59.0644 3.91116 58.8411 4.28943 58.3943C4.66757 57.9476 4.93567 57.0405 5.09362 55.6732C4.84423 56.068 4.5357 56.3454 4.16791 56.5054C3.80012 56.6654 3.40427 56.7454 2.98034 56.7454C2.12 56.7454 1.43945 56.4777 0.938669 55.9422C0.437765 55.4066 0.1875 54.7175 0.1875 53.8746C0.1875 53.0652 0.434771 52.353 0.929313 51.7386C1.42385 51.1242 2.15332 50.8169 3.11745 50.8169C4.41818 50.8169 5.31594 51.4025 5.81048 52.5737C6.08482 53.2175 6.22193 54.0232 6.22193 54.9909C6.22193 56.0832 6.05775 57.0508 5.72951 57.8941C5.18494 59.2978 4.26235 59.9997 2.96162 59.9997C2.08882 59.9997 1.42585 59.771 0.972978 59.3139C0.519981 58.8568 0.29342 58.2833 0.29342 57.5934H1.42797V57.5933ZM4.34869 55.3217C4.71647 55.0291 4.90037 54.5177 4.90037 53.7874C4.90037 53.1318 4.73519 52.6432 4.4047 52.3216C4.07434 52.0001 3.65353 51.8393 3.1424 51.8393C2.59384 51.8393 2.15843 52.0229 1.8363 52.3901C1.51418 52.7573 1.35312 53.2481 1.35312 53.8621C1.35312 54.443 1.49434 54.9047 1.77704 55.2471C2.05962 55.5894 2.5105 55.7604 3.1298 55.7604C3.57456 55.7604 3.9809 55.6142 4.34869 55.3217Z" fill="#00539F"/>
<path d="M12.7922 52.257C13.1911 52.9925 13.3906 54.0005 13.3906 55.2805C13.3906 56.494 13.2099 57.4976 12.8483 58.2915C12.3247 59.4302 11.4684 59.9996 10.2799 59.9996C9.20762 59.9996 8.40966 59.5342 7.88605 58.6032C7.44965 57.826 7.23145 56.7828 7.23145 55.4737C7.23145 54.4597 7.36244 53.589 7.62418 52.8615C8.11448 51.5068 9.00189 50.8293 10.286 50.8293C11.4414 50.8293 12.2768 51.3053 12.7922 52.257ZM11.663 58.2041C12.0084 57.6888 12.1812 56.7288 12.1812 55.324C12.1812 54.31 12.0562 53.4756 11.8066 52.8211C11.5568 52.1665 11.0718 51.8393 10.3516 51.8393C9.68968 51.8393 9.20574 52.1499 8.89984 52.7713C8.5938 53.3926 8.44085 54.3079 8.44085 55.5174C8.44085 56.4275 8.53866 57.1591 8.73428 57.7118C9.03395 58.5555 9.54608 58.9773 10.2703 58.9773C10.8532 58.9772 11.3173 58.7194 11.663 58.2041Z" fill="#00539F"/>
<path d="M19.8928 52.257C20.2917 52.9925 20.4912 54.0005 20.4912 55.2805C20.4912 56.494 20.3104 57.4976 19.9489 58.2915C19.4253 59.4302 18.5689 59.9996 17.3805 59.9996C16.3082 59.9996 15.5102 59.5342 14.9866 58.6032C14.5502 57.826 14.332 56.7828 14.332 55.4737C14.332 54.4597 14.463 53.589 14.7248 52.8615C15.2151 51.5068 16.1025 50.8293 17.3866 50.8293C18.5421 50.8293 19.3774 51.3053 19.8928 52.257ZM18.7636 58.2041C19.109 57.6888 19.2818 56.7288 19.2818 55.324C19.2818 54.31 19.1568 53.4756 18.9072 52.8211C18.6574 52.1665 18.1723 51.8393 17.4522 51.8393C16.7903 51.8393 16.3063 52.1499 16.0004 52.7713C15.6944 53.3926 15.5414 54.3079 15.5414 55.5174C15.5414 56.4275 15.6392 57.1591 15.8349 57.7118C16.1345 58.5555 16.6467 58.9773 17.3709 58.9773C17.9538 58.9772 18.4179 58.7194 18.7636 58.2041Z" fill="#00539F"/>
<path d="M22.2559 53.435V52.5746C23.0663 52.4957 23.6314 52.3638 23.9514 52.1788C24.2715 51.9939 24.5104 51.5565 24.6684 50.8665H25.5536V59.7561H24.3567V53.4349L22.2559 53.435Z" fill="#00539F"/>
<path d="M29.5488 53.1672H30.8518V54.5262H29.5488V53.1672ZM29.5488 58.3975H30.8518V59.7566H29.5488V58.3975Z" fill="#00539F"/>
<path d="M32.5569 57.7491C32.8332 57.1798 33.3724 56.6624 34.1746 56.1969L35.3716 55.505C35.9078 55.1932 36.2838 54.927 36.5 54.7064C36.8406 54.3607 37.0111 53.9652 37.0111 53.5196C37.0111 52.9991 36.8553 52.5858 36.5437 52.2797C36.2319 51.9737 35.8163 51.8206 35.2968 51.8206C34.528 51.8206 33.996 52.1125 33.7009 52.696C33.543 53.0087 33.4557 53.4421 33.4391 53.9964H32.2983C32.3108 53.2193 32.4541 52.5854 32.7283 52.0951C33.2145 51.2306 34.0727 50.7983 35.303 50.7983C36.3254 50.7983 37.0724 51.0748 37.5441 51.6275C38.0157 52.1803 38.2517 52.7953 38.2517 53.4728C38.2517 54.1875 38.0002 54.7986 37.4975 55.3055C37.2064 55.6007 36.6848 55.958 35.9326 56.3778L35.0785 56.8516C34.6712 57.076 34.3513 57.2901 34.1186 57.4936C33.7029 57.8552 33.4411 58.2563 33.333 58.6968H38.2081V59.7566H32.0801C32.1215 58.9877 32.2806 58.3185 32.5569 57.7491Z" fill="#00539F"/>
<path d="M44.7413 52.257C45.1402 52.9925 45.3397 54.0005 45.3397 55.2805C45.3397 56.494 45.1591 57.4976 44.7974 58.2915C44.2738 59.4302 43.4175 59.9996 42.229 59.9996C41.1567 59.9996 40.3588 59.5342 39.8351 58.6032C39.3989 57.826 39.1807 56.7828 39.1807 55.4737C39.1807 54.4597 39.3115 53.589 39.5733 52.8615C40.0637 51.5068 40.951 50.8293 42.2352 50.8293C43.3905 50.8293 44.2259 51.3053 44.7413 52.257ZM43.6121 58.2041C43.9577 57.6888 44.1303 56.7288 44.1303 55.324C44.1303 54.31 44.0053 53.4756 43.7555 52.8211C43.5058 52.1665 43.0208 51.8393 42.3007 51.8393C41.6388 51.8393 41.1548 52.1499 40.8489 52.7713C40.5428 53.3926 40.3898 54.3079 40.3898 55.5174C40.3898 56.4275 40.4876 57.1591 40.6834 57.7118C40.983 58.5555 41.4952 58.9773 42.2194 58.9773C42.8024 58.9772 43.2664 58.7194 43.6121 58.2041Z" fill="#00539F"/>
<path d="M47.1045 53.4352V52.5749C47.9149 52.4959 48.4799 52.364 48.8002 52.179C49.1201 51.9941 49.359 51.5567 49.5171 50.8667H50.4024V59.7563H49.2053V53.4351L47.1045 53.4352Z" fill="#00539F"/>
<path d="M54.5604 57.4813C54.6353 58.1213 54.9323 58.5639 55.4519 58.8092C55.7179 58.9338 56.0256 58.9962 56.3746 58.9962C57.0396 58.9962 57.532 58.7842 57.8521 58.3602C58.172 57.9364 58.3322 57.4668 58.3322 56.9514C58.3322 56.328 58.1421 55.8459 57.7618 55.5051C57.3816 55.1643 56.9254 54.9938 56.3935 54.9938C56.0068 54.9938 55.6755 55.0687 55.3991 55.2183C55.1227 55.3679 54.8869 55.5757 54.6915 55.8417L53.719 55.7856L54.3987 50.9792H59.0366V52.0639H55.2401L54.8597 54.5451C55.0675 54.3871 55.2649 54.2687 55.4519 54.1897C55.7844 54.0525 56.1689 53.984 56.6052 53.984C57.4238 53.984 58.118 54.2479 58.6873 54.7758C59.2567 55.3035 59.5414 55.9727 59.5414 56.7831C59.5414 57.6269 59.2805 58.3708 58.759 59.0149C58.2374 59.6592 57.4051 59.9812 56.2622 59.9812C55.5349 59.9812 54.8918 59.7763 54.3328 59.3671C53.7739 58.9579 53.461 58.3293 53.3945 57.4814L54.5604 57.4813Z" fill="#00539F"/>
</svg>
