<svg width="160" height="100" viewBox="0 0 160 100" fill="none" xmlns="http://www.w3.org/2000/svg">
<g clip-path="url(#clip0_89_812)">
<path d="M79.9989 100C60.7895 100 42.4295 96.0558 28.3032 88.8927C10.3158 79.7727 0 65.6 0 49.999C0 34.3979 10.3158 20.2253 28.3053 11.1074C42.4284 3.94421 60.7895 0 79.9989 0C99.2084 0 117.568 3.94421 131.698 11.1074C149.681 20.2316 160 34.4053 160 49.999C160 65.5926 149.684 79.7727 131.697 88.8927C117.568 96.0558 99.2105 100 79.9989 100ZM38.5611 50C41.9895 54.059 56.5242 61.8105 79.9958 61.8105C103.467 61.8105 118.002 54.0547 121.434 49.9947C118.005 45.9347 103.467 38.179 79.9958 38.179C56.5242 38.179 41.9895 45.939 38.5611 49.999V50Z" fill="#004896"/>
<path d="M79.9982 97.6938C61.1424 97.6938 43.1561 93.837 29.3435 86.8349C12.1603 78.1201 2.30664 64.6959 2.30664 50.0012C2.30664 35.3064 12.1603 21.8812 29.3435 13.1727C43.1487 6.16641 61.1424 2.30957 79.9982 2.30957C98.854 2.30957 116.84 6.16641 130.653 13.1685C147.836 21.8812 157.69 35.3085 157.69 50.0022C157.69 64.6959 147.836 78.1222 130.653 86.8359C116.843 93.837 98.855 97.6938 79.9982 97.6938ZM35.8214 49.9991C37.094 53.6001 52.0487 64.1201 79.9982 64.1201C107.948 64.1201 122.902 53.5938 124.176 49.998C122.9 46.3969 107.945 35.8759 79.9982 35.8759C52.0519 35.8759 37.0972 46.3969 35.8214 49.9991Z" fill="#007ABA"/>
<path d="M67.0848 42.2998H59.0984C58.6504 44.7586 58.4207 47.2521 58.4121 49.7514H66.6721C66.6802 47.262 66.8179 44.7748 67.0848 42.2998Z" fill="#004896"/>
<path d="M80.2373 19.3701V25.907H83.8321C82.7784 21.9659 81.4952 19.6406 80.2373 19.3701Z" fill="#004896"/>
<path d="M80.2344 73.5902H83.9607C84.5656 71.1353 85.0275 68.6472 85.3439 66.1387H80.2344V73.5902Z" fill="#004896"/>
<path d="M80.2334 49.7514H86.3071C86.3008 47.1345 86.233 44.6507 86.1039 42.2998H80.2334V49.7514Z" fill="#004896"/>
<path d="M80.2334 65.6459H85.4029C85.6913 63.3701 85.9229 60.8775 86.0776 58.1943H80.2334V65.6459Z" fill="#004896"/>
<path d="M80.2334 57.6957H86.105C86.2292 55.3463 86.3029 52.861 86.3081 50.2441H80.2334V57.6957Z" fill="#004896"/>
<path d="M80.2345 33.8547H85.3429C85.0262 31.3472 84.5644 28.8602 83.9597 26.4062H80.2334L80.2345 33.8547Z" fill="#004896"/>
<path d="M104.846 25.9075H109.97C104.133 23.0773 97.8974 21.1575 91.4795 20.2148C96.222 21.3483 100.74 23.2728 104.843 25.9075H104.846Z" fill="#004896"/>
<path d="M84.3513 25.9082H87.9408C86.1082 22.4766 83.8808 20.2039 81.4492 19.5439C82.5429 20.5987 83.5282 22.8113 84.3513 25.9082Z" fill="#004896"/>
<path d="M110.896 26.4062H105.527C108.568 28.4519 111.265 30.9658 113.52 33.8547H121.204C118.172 30.8558 114.695 28.3433 110.896 26.4062Z" fill="#004896"/>
<path d="M99.9103 25.9072H103.931C99.4364 23.1512 94.4791 21.2329 89.2998 20.2451C93.1667 21.4353 96.7689 23.3576 99.9103 25.9072Z" fill="#004896"/>
<path d="M88.452 25.9072H93.3415C90.6588 22.7432 87.0163 20.5417 82.9678 19.6377C85.3679 21.1477 87.2736 23.3271 88.4499 25.9072H88.452Z" fill="#004896"/>
<path d="M93.9809 25.9069H99.1167C95.1454 22.8153 90.4826 20.7346 85.5293 19.8438C88.815 21.1155 91.7234 23.2019 93.9809 25.9069Z" fill="#004896"/>
<path d="M80.2334 41.8022H86.0776C85.9229 39.1159 85.6913 36.6264 85.4029 34.3506H80.2334V41.8022Z" fill="#004896"/>
<path d="M113.286 34.3525H107.138C108.517 36.6857 109.58 39.1914 110.301 41.8041H117.324C116.37 39.1269 115.008 36.6133 113.286 34.3525Z" fill="#004896"/>
<path d="M128.43 49.7514C128.393 47.1915 127.867 44.6624 126.881 42.2998H117.934C118.712 44.7081 119.12 47.2206 119.143 49.7514H128.427H128.43Z" fill="#004896"/>
<path d="M119.265 26.4062H111.85C115.527 28.3697 118.884 30.8813 121.805 33.8547H131.911C128.066 30.7905 123.809 28.283 119.265 26.4062Z" fill="#004896"/>
<path d="M113.81 34.3516C115.497 36.6208 116.83 39.1334 117.763 41.8031H126.667C125.42 39.0477 123.709 36.5271 121.607 34.3516H113.81Z" fill="#004896"/>
<path d="M111.019 25.907H118.177C109.172 22.3912 99.6929 20.238 90.0527 19.5186C97.3554 20.4288 104.447 22.5898 111.016 25.907H111.019Z" fill="#004896"/>
<path d="M59.0974 57.6957H67.0838C66.8167 55.2207 66.6786 52.7335 66.6701 50.2441H58.4111C58.42 52.7434 58.6497 55.2369 59.0974 57.6957Z" fill="#004896"/>
<path d="M104.847 74.0879C100.743 76.722 96.2257 78.6465 91.4834 79.7805C97.9006 78.8364 104.136 76.9166 109.973 74.0879H104.849H104.847Z" fill="#004896"/>
<path d="M80.2373 80.6259C81.5005 80.3522 82.7784 78.0301 83.8352 74.0859H80.2373V80.6259Z" fill="#004896"/>
<path d="M99.9102 74.0889C96.7681 76.6377 93.1667 78.5608 89.3008 79.7542C94.4802 78.7653 99.4375 76.8459 103.932 74.0889H99.9102Z" fill="#004896"/>
<path d="M121.204 66.1416H113.52C111.267 69.0329 108.569 71.5481 105.527 73.5932H110.896C114.695 71.6556 118.173 69.142 121.204 66.1416Z" fill="#004896"/>
<path d="M117.495 42.2998H110.432C111.058 44.7347 111.384 47.2372 111.401 49.7514H118.725C118.7 47.2188 118.284 44.7054 117.492 42.2998H117.495Z" fill="#004896"/>
<path d="M118.728 50.2471H111.403C111.386 52.7612 111.06 55.2637 110.434 57.6986H117.497C118.289 55.293 118.705 52.7796 118.73 50.2471H118.728Z" fill="#004896"/>
<path d="M110.302 58.1943C109.58 60.8066 108.517 63.3122 107.139 65.6459H113.287C115.01 63.3852 116.372 60.8716 117.326 58.1943H110.302Z" fill="#004896"/>
<path d="M92.3875 41.8012C92.1004 39.2913 91.6528 36.8023 91.0475 34.3496H85.8896C86.1749 36.6559 86.4033 39.1549 86.5518 41.8012H92.3875Z" fill="#004896"/>
<path d="M101.586 50.2471H93.3199C93.3144 52.7365 93.1764 55.2239 92.9062 57.6986H100.889C101.337 55.2397 101.567 52.7463 101.579 50.2471H101.586Z" fill="#004896"/>
<path d="M104.693 26.4062H100.461C102.973 28.538 105.133 31.0515 106.864 33.8547H112.918C110.592 30.9453 107.812 28.4302 104.685 26.4062H104.693Z" fill="#004896"/>
<path d="M100.799 41.8012C100.306 39.2471 99.5526 36.7503 98.5509 34.3496H91.5088C92.1154 36.8023 92.5651 39.2913 92.8551 41.8012H100.799Z" fill="#004896"/>
<path d="M92.4453 57.6957C92.7129 55.2208 92.85 52.7335 92.8559 50.2441H86.7811C86.7748 52.821 86.7085 55.3168 86.5801 57.6957H92.4453Z" fill="#004896"/>
<path d="M106.589 34.3516H99.0518C100.04 36.7549 100.785 39.2513 101.276 41.8031H109.813C109.077 39.1854 107.992 36.6789 106.585 34.3516H106.589Z" fill="#004896"/>
<path d="M100.891 42.2998H92.9121C93.1808 44.7747 93.3189 47.262 93.3258 49.7514H101.589C101.578 47.2521 101.347 44.7587 100.899 42.2998H100.891Z" fill="#004896"/>
<path d="M86.7811 49.7514H92.8559C92.8501 47.262 92.713 44.7747 92.4453 42.2998H86.5801C86.7074 44.6766 86.7748 47.1735 86.7811 49.7514Z" fill="#004896"/>
<path d="M100.799 58.1943H92.8551C92.5651 60.7043 92.1154 63.1932 91.5088 65.6459H98.5498C99.552 63.2453 100.306 60.7484 100.799 58.1943Z" fill="#004896"/>
<path d="M121.808 66.1416C118.887 69.116 115.53 71.6287 111.853 73.5932H119.268C123.814 71.7166 128.072 69.208 131.917 66.1416H121.808Z" fill="#004896"/>
<path d="M128.926 50.2471C128.89 52.8035 128.377 55.3308 127.412 57.6986H138.991C140.188 55.3932 140.84 52.844 140.896 50.2471H128.926Z" fill="#004896"/>
<path d="M31.0713 50.2471H19.0977C19.1542 52.8444 19.8072 55.3939 21.0061 57.6986H32.585C31.6206 55.3308 31.1072 52.8036 31.0713 50.2471Z" fill="#004896"/>
<path d="M31.0713 49.7514C31.1101 47.1952 31.6234 44.6685 32.585 42.2998H21.0061C19.8077 44.6048 19.1548 47.1542 19.0977 49.7514H31.0682H31.0713Z" fill="#004896"/>
<path d="M38.1892 33.8547C41.1114 30.8805 44.4696 28.3689 48.1482 26.4062H40.7324C36.1874 28.2828 31.9294 30.7902 28.084 33.8547H38.1892Z" fill="#004896"/>
<path d="M93.9809 74.0879C91.7249 76.7944 88.816 78.8812 85.5293 80.1511C90.4826 79.2602 95.1454 77.1795 99.1167 74.0879H93.9809Z" fill="#004896"/>
<path d="M106.296 66.1416H98.8622C97.7184 68.8234 96.2043 71.3317 94.3643 73.5932H99.7221C102.301 71.4802 104.521 68.9638 106.296 66.1416Z" fill="#004896"/>
<path d="M93.3374 74.0879H88.4479C87.2733 76.6691 85.3672 78.8489 82.9658 80.3574C87.0141 79.4544 90.6563 77.2527 93.3374 74.0879Z" fill="#004896"/>
<path d="M112.918 66.1416H106.864C105.134 68.9458 102.973 71.4604 100.461 73.5932H104.693C107.819 71.5703 110.597 69.0537 112.918 66.1416Z" fill="#004896"/>
<path d="M109.952 42.2998H101.37C101.812 44.7594 102.039 47.2525 102.051 49.7514H110.938C110.921 47.2361 110.59 44.7328 109.952 42.2998Z" fill="#004896"/>
<path d="M101.276 58.1943C100.785 60.7462 100.04 63.2425 99.0518 65.6459H106.589C107.993 63.3179 109.077 60.8115 109.813 58.1943H101.276Z" fill="#004896"/>
<path d="M110.938 50.2471H102.051C102.039 52.7459 101.811 55.239 101.37 57.6986H109.952C110.59 55.2656 110.921 52.7623 110.938 50.2471Z" fill="#004896"/>
<path d="M94.3643 26.4062C96.2043 28.6666 97.7184 31.1738 98.8622 33.8547H106.296C104.519 31.0346 102.3 28.5195 99.7221 26.4062H94.3674H94.3643Z" fill="#004896"/>
<path d="M84.4688 26.4062C85.0657 28.8607 85.5202 31.3477 85.8298 33.8547H90.9235C90.2768 31.2832 89.3619 28.7867 88.194 26.4062H84.4688Z" fill="#004896"/>
<path d="M81.4492 80.4542C83.8808 79.7942 86.1113 77.5184 87.944 74.0879H84.3513C83.5313 77.1847 82.5429 79.3974 81.4492 80.4542Z" fill="#004896"/>
<path d="M68.4888 65.6459C67.8803 63.1937 67.4316 60.7046 67.1456 58.1943H59.1982C59.6926 60.7485 60.447 63.2454 61.4498 65.6459H68.4888Z" fill="#004896"/>
<path d="M88.6797 26.4062C89.8378 28.7896 90.7482 31.2854 91.3966 33.8547H98.3439C97.1824 31.1636 95.6376 28.6549 93.7576 26.4062H88.6797Z" fill="#004896"/>
<path d="M91.0465 65.6459C91.6547 63.1938 92.1023 60.7047 92.3865 58.1943H86.5518C86.4033 60.8449 86.1749 63.3396 85.8896 65.6459H91.0465Z" fill="#004896"/>
<path d="M84.4688 73.5902H88.1951C89.3653 71.2097 90.2802 68.7119 90.9245 66.1387H85.8309C85.5176 68.6462 85.0628 71.134 84.4688 73.5902Z" fill="#004896"/>
<path d="M88.6797 73.5902H93.7608C95.6432 71.3422 97.1882 68.832 98.3471 66.1387H91.3997C90.7503 68.709 89.8389 71.206 88.6797 73.5902Z" fill="#004896"/>
<path d="M73.2132 50.2471H67.1416C67.1475 52.7364 67.2845 55.2237 67.5521 57.6986H73.4142C73.2869 55.3197 73.2195 52.8239 73.2132 50.2471Z" fill="#004896"/>
<path d="M79.7605 42.2998H73.8858C73.7581 44.6493 73.6903 47.1331 73.6826 49.7514H79.7574L79.7605 42.2998Z" fill="#004896"/>
<path d="M79.7613 50.2471H73.6865C73.6928 52.8604 73.7606 55.3443 73.8897 57.6986H79.7613V50.2471Z" fill="#004896"/>
<path d="M79.7612 34.3516H74.5918C74.3033 36.6274 74.0717 39.1168 73.917 41.8031H79.7612V34.3516Z" fill="#004896"/>
<path d="M48.9781 25.907C55.5484 22.5898 62.6408 20.4288 69.9444 19.5186C60.3045 20.2378 50.8259 22.3909 41.8213 25.907H48.9781Z" fill="#004896"/>
<path d="M79.7591 26.4062H76.0296C75.425 28.8602 74.9631 31.3472 74.6465 33.8547H79.7549L79.7591 26.4062Z" fill="#004896"/>
<path d="M79.7551 19.3701C78.492 19.6406 77.2141 21.9659 76.1572 25.907H79.7551V19.3701Z" fill="#004896"/>
<path d="M71.5465 74.0879H66.6602C69.342 77.2523 72.9844 79.4539 77.0328 80.3574C74.6314 78.8489 72.7253 76.669 71.5507 74.0879H71.5465Z" fill="#004896"/>
<path d="M79.7588 66.1416H74.6504C74.9656 68.6504 75.4261 71.1388 76.0293 73.5942H79.7557L79.7588 66.1416Z" fill="#004896"/>
<path d="M66.0137 74.0879H60.8779C64.8488 77.1802 69.5118 79.261 74.4653 80.1511C71.18 78.8785 68.2719 76.7922 66.0137 74.0879Z" fill="#004896"/>
<path d="M60.0875 74.0889H56.0664C60.5611 76.8461 65.5185 78.7655 70.698 79.7542C66.8318 78.5614 63.2303 76.6382 60.0885 74.0889H60.0875Z" fill="#004896"/>
<path d="M42.2333 41.8022C43.1668 39.1327 44.4999 36.6202 46.187 34.3506H38.3891C36.2889 36.5269 34.5774 39.0473 33.3291 41.8022H42.2365H42.2333Z" fill="#004896"/>
<path d="M79.7551 80.6259V74.0859H76.1572C77.2151 78.0312 78.4941 80.3522 79.7551 80.6259Z" fill="#004896"/>
<path d="M75.6422 74.0879H72.0527C73.8854 77.5195 76.1127 79.7953 78.5475 80.4542C77.4538 79.4016 76.4654 77.1837 75.6454 74.0879H75.6422Z" fill="#004896"/>
<path d="M117.763 58.1943C116.83 60.8641 115.497 63.3766 113.81 65.6459H121.607C123.708 63.4696 125.419 60.9492 126.667 58.1943H117.763Z" fill="#004896"/>
<path d="M32.795 41.8012C34.0079 39.0574 35.6756 36.5381 37.7276 34.3496H27.4949C24.9838 36.4346 22.8736 38.9597 21.2676 41.8012H32.795Z" fill="#004896"/>
<path d="M122.274 34.3525C124.324 36.5414 125.991 39.0606 127.203 41.8041H138.727C137.121 38.9632 135.01 36.4383 132.5 34.3525H122.271H122.274Z" fill="#004896"/>
<path d="M127.412 42.2998C128.375 44.668 128.889 47.195 128.926 49.7514H140.899C140.843 47.1545 140.191 44.6052 138.994 42.2998H127.412Z" fill="#004896"/>
<path d="M127.203 58.1943C125.991 60.9378 124.324 63.4571 122.273 65.6459H132.503C135.012 63.56 137.121 61.035 138.727 58.1943H127.203Z" fill="#004896"/>
<path d="M128.431 50.2471H119.147C119.122 52.7777 118.714 55.29 117.938 57.6986H126.885C127.87 55.3356 128.395 52.8068 128.434 50.2471H128.431Z" fill="#004896"/>
<path d="M37.7237 65.6459C35.671 63.458 34.0033 60.9386 32.791 58.1943H21.2637C22.8697 61.0358 24.9799 63.5609 27.491 65.6459H37.7237Z" fill="#004896"/>
<path d="M111.019 74.0879C104.45 77.4061 97.3585 79.5683 90.0557 80.4795C99.6959 79.7608 109.175 77.6065 118.179 74.0879H111.021H111.019Z" fill="#004896"/>
<path d="M55.1496 74.0879H50.0254C55.8619 76.918 62.0973 78.8378 68.5149 79.7805C63.7719 78.6464 59.2537 76.7219 55.1496 74.0879Z" fill="#004896"/>
<path d="M40.7292 73.5902H48.145C44.467 71.6268 41.1099 69.114 38.1892 66.1387H28.084C31.9275 69.205 36.1846 71.7136 40.7292 73.5902Z" fill="#004896"/>
<path d="M42.064 57.6957C41.286 55.2874 40.8782 52.7749 40.8545 50.2441H31.5703C31.6085 52.8037 32.1336 55.3326 33.1177 57.6957H42.064Z" fill="#004896"/>
<path d="M46.1872 65.6459C44.4995 63.3766 43.1664 60.8641 42.2335 58.1943H33.3262C34.5756 60.9486 36.2869 63.4688 38.3862 65.6459H46.1841H46.1872Z" fill="#004896"/>
<path d="M31.5674 49.7514H40.8516C40.875 47.2206 41.2828 44.7081 42.0611 42.2998H33.1137C32.128 44.6624 31.6031 47.1917 31.5674 49.7514Z" fill="#004896"/>
<path d="M48.9772 74.0879H41.8193C50.8234 77.6061 60.3023 79.7604 69.9425 80.4795C62.6397 79.5683 55.5483 77.4061 48.9793 74.0879H48.9772Z" fill="#004896"/>
<path d="M79.7612 58.1943H73.917C74.0717 60.8807 74.3002 63.3701 74.5918 65.6459H79.7612V58.1943Z" fill="#004896"/>
<path d="M55.3096 73.5902H59.5327C57.0202 71.4581 54.8593 68.9434 53.1296 66.1387H47.0801C49.4031 69.0504 52.1822 71.5668 55.3096 73.5902Z" fill="#004896"/>
<path d="M60.9456 65.6459C59.956 63.243 59.2108 60.7466 58.7214 58.1943H50.1846C50.9191 60.812 52.0036 63.3184 53.4088 65.6459H60.9488H60.9456Z" fill="#004896"/>
<path d="M49.0596 49.7514H57.9491C57.9603 47.2524 58.1892 44.7591 58.6333 42.2998H50.048C49.4116 44.7331 49.0809 47.2363 49.0638 49.7514H49.0596Z" fill="#004896"/>
<path d="M50.044 57.6957H58.6293C58.1854 55.2364 57.9564 52.7432 57.9451 50.2441H49.0566C49.0742 52.7592 49.4048 55.2623 50.0408 57.6957H50.044Z" fill="#004896"/>
<path d="M65.6306 73.5902C63.7898 71.3298 62.2767 68.8213 61.1358 66.1387H53.7021C55.4778 68.9603 57.6977 71.4766 60.2758 73.5902H65.6306Z" fill="#004896"/>
<path d="M71.3168 73.5902C70.1584 71.2056 69.247 68.7088 68.5968 66.1387H61.6494C62.8102 68.831 64.355 71.341 66.2357 73.5902H71.3168Z" fill="#004896"/>
<path d="M58.7214 41.8012C59.2126 39.2494 59.9577 36.7531 60.9456 34.3496H53.4088C52.0036 36.6771 50.9191 39.1836 50.1846 41.8012H58.7214Z" fill="#004896"/>
<path d="M71.317 26.4062H66.2328C64.3528 28.6549 62.808 31.1636 61.6465 33.8547H68.5938C69.2456 31.2856 70.158 28.7899 71.317 26.4062Z" fill="#004896"/>
<path d="M61.4459 34.3525C60.4431 36.7531 59.6886 39.2499 59.1943 41.8041H67.1417C67.431 39.2943 67.8796 36.8054 68.4849 34.3525H61.4438H61.4459Z" fill="#004896"/>
<path d="M75.5282 73.5902C74.9287 71.1349 74.4718 68.6469 74.1598 66.1387H69.0703C69.7189 68.7116 70.6362 71.2092 71.8071 73.5902H75.5282Z" fill="#004896"/>
<path d="M67.5521 42.2998C67.2844 44.7747 67.1473 47.262 67.1416 49.7514H73.2132C73.2195 47.1714 73.2858 44.6788 73.4142 42.2998H67.5521Z" fill="#004896"/>
<path d="M53.7021 33.8547H61.1337C62.2765 31.174 63.7894 28.6668 65.6285 26.4062H60.2737C57.6971 28.5197 55.4781 31.0348 53.7021 33.8547Z" fill="#004896"/>
<path d="M47.0793 33.8547H53.133C54.8637 31.0515 57.0244 28.538 59.5362 26.4062H55.3088C52.1813 28.4294 49.4013 30.9446 47.0762 33.8547H47.0793Z" fill="#004896"/>
<path d="M66.6566 25.9072H71.5429C72.7203 23.3278 74.6257 21.1487 77.025 19.6377C72.9772 20.5427 69.3353 22.744 66.6523 25.9072H66.6566Z" fill="#004896"/>
<path d="M49.692 41.8012C50.4153 39.189 51.4799 36.6835 52.8583 34.3496H46.7099C44.9885 36.6111 43.6261 39.1245 42.6709 41.8012H49.692Z" fill="#004896"/>
<path d="M41.2695 49.7514H48.5937C48.6109 47.2372 48.9365 44.7347 49.5632 42.2998H42.5032C41.7108 44.7053 41.2946 47.2188 41.2695 49.7514Z" fill="#004896"/>
<path d="M38.793 33.8547H46.4772C48.7299 30.9652 51.4265 28.4512 54.4667 26.4062H49.0982C45.3009 28.3449 41.825 30.8572 38.793 33.8547Z" fill="#004896"/>
<path d="M42.5032 57.6957H49.5632C48.9353 55.2611 48.6096 52.7584 48.5937 50.2441H41.2695C41.2935 52.7768 41.7097 55.2905 42.5032 57.6957Z" fill="#004896"/>
<path d="M67.6104 58.1943C67.8961 60.7045 68.3437 63.1935 68.9504 65.6459H74.1083C73.8198 63.3396 73.5946 60.8438 73.443 58.1943H67.6104Z" fill="#004896"/>
<path d="M55.1546 25.9085C59.2576 23.2759 63.7739 21.3516 68.5146 20.2158C62.0977 21.1567 55.863 23.0766 50.0283 25.9085H55.1546Z" fill="#004896"/>
<path d="M52.8602 65.6459C51.4813 63.3123 50.4167 60.8068 49.6939 58.1943H42.6729C43.6281 60.8711 44.9904 63.3845 46.7118 65.6459H52.8602Z" fill="#004896"/>
<path d="M78.5475 19.5439C76.1127 20.2029 73.8854 22.4766 72.0527 25.9082H75.6422C76.4633 22.8113 77.4538 20.5987 78.5443 19.5439H78.5475Z" fill="#004896"/>
<path d="M75.5286 26.4062H71.8023C70.6318 28.7864 69.7145 31.2829 69.0654 33.8547H74.1591C74.4729 31.3477 74.9301 28.8608 75.5286 26.4062Z" fill="#004896"/>
<path d="M68.9504 34.3525C68.3437 36.8049 67.8961 39.294 67.6104 41.8041H73.4419C73.5935 39.1567 73.8188 36.6589 74.1072 34.3525H68.9504Z" fill="#004896"/>
<path d="M49.0985 73.5902H54.4669C51.4256 71.5443 48.728 69.0293 46.4742 66.1387H38.79C41.8215 69.1391 45.2987 71.6527 49.0985 73.5902Z" fill="#004896"/>
<path d="M66.0137 25.9069C68.2712 23.2019 71.1796 21.1155 74.4653 19.8438C69.5122 20.7353 64.8495 22.8159 60.8779 25.9069H66.0137Z" fill="#004896"/>
<path d="M60.0875 25.9062C63.2287 23.3567 66.8305 21.4345 70.697 20.2441C65.5182 21.2333 60.5611 23.1515 56.0654 25.9062H60.0875Z" fill="#004896"/>
<path d="M79.749 81.7817C45.8374 81.7817 18.249 67.6501 18.249 50.2786C18.249 32.907 45.8364 18.7754 79.749 18.7754C113.662 18.7754 141.252 32.907 141.252 50.2786C141.252 67.6501 113.66 81.7817 79.749 81.7817ZM79.749 19.967C46.4911 19.967 19.4332 33.5638 19.4332 50.2828C19.4332 67.0017 46.4859 80.5986 79.749 80.5986C113.012 80.5986 140.065 67.0017 140.065 50.2828C140.065 33.5638 113.012 19.967 79.749 19.967Z" fill="white"/>
<path d="M140.514 49.7524H128.963C128.927 47.1964 128.416 44.6694 127.454 42.3008H138.601C138.664 42.2967 138.723 42.2687 138.767 42.2225C138.81 42.1762 138.834 42.1152 138.834 42.0519C138.834 41.9885 138.81 41.9275 138.767 41.8813C138.723 41.8351 138.664 41.807 138.601 41.8029H127.248C126.04 39.0611 124.379 36.5421 122.335 34.3514H131.946C132.009 34.3472 132.069 34.3192 132.112 34.273C132.155 34.2268 132.179 34.1658 132.179 34.1024C132.179 34.039 132.155 33.9781 132.112 33.9318C132.069 33.8856 132.009 33.8576 131.946 33.8535H121.872C118.962 30.8813 115.617 28.3697 111.95 26.405H118.161C118.224 26.4009 118.283 26.3729 118.327 26.3267C118.37 26.2804 118.394 26.2194 118.394 26.1561C118.394 26.0927 118.37 26.0317 118.327 25.9855C118.283 25.9393 118.224 25.9112 118.161 25.9071H111.028C102.578 21.4945 91.7702 18.8408 80.007 18.8408C68.2439 18.8408 57.4386 21.4935 48.9881 25.9071H41.0934C41.0301 25.9112 40.9708 25.9393 40.9275 25.9855C40.8842 26.0317 40.8601 26.0927 40.8601 26.1561C40.8601 26.2194 40.8842 26.2804 40.9275 26.3267C40.9708 26.3729 41.0301 26.4009 41.0934 26.405H48.0576C44.3898 28.3689 41.0429 30.8806 38.1323 33.8535H27.2902C27.227 33.8576 27.1677 33.8856 27.1244 33.9318C27.081 33.9781 27.0569 34.039 27.0569 34.1024C27.0569 34.1658 27.081 34.2268 27.1244 34.273C27.1677 34.3192 27.227 34.3472 27.2902 34.3514H37.6765C35.63 36.5407 33.968 39.06 32.7607 41.8029H20.8502C20.787 41.807 20.7277 41.8351 20.6844 41.8813C20.641 41.9275 20.6169 41.9885 20.6169 42.0519C20.6169 42.1152 20.641 42.1762 20.6844 42.2225C20.7277 42.2687 20.787 42.2967 20.8502 42.3008H32.5481C31.5865 44.6693 31.0749 47.1964 31.0397 49.7524H19.1102C19.0444 49.7524 18.9814 49.7785 18.9349 49.825C18.8884 49.8715 18.8623 49.9346 18.8623 50.0003C18.8623 50.066 18.8884 50.1291 18.9349 50.1756C18.9814 50.2221 19.0444 50.2482 19.1102 50.2482H31.0397C31.0782 52.8039 31.5896 55.3303 32.5481 57.6998H20.6049C20.5417 57.7039 20.4824 57.7319 20.4391 57.7781C20.3958 57.8244 20.3717 57.8854 20.3717 57.9487C20.3717 58.0121 20.3958 58.0731 20.4391 58.1193C20.4824 58.1656 20.5417 58.1936 20.6049 58.1977H32.7565C33.9638 60.9406 35.6258 63.4599 37.6723 65.6493H27.0776C27.0449 65.6493 27.0125 65.6557 26.9823 65.6683C26.952 65.6808 26.9246 65.6992 26.9015 65.7224C26.8785 65.7456 26.8602 65.7731 26.8478 65.8033C26.8353 65.8336 26.829 65.866 26.8291 65.8987C26.829 65.9313 26.8353 65.9636 26.8478 65.9936C26.8603 66.0237 26.8786 66.051 26.9017 66.074C26.9248 66.0969 26.9523 66.115 26.9825 66.1272C27.0127 66.1394 27.045 66.1455 27.0776 66.145H38.1302C41.0401 69.1182 44.3858 71.6309 48.0523 73.5966H39.7134C39.6501 73.6007 39.5908 73.6288 39.5475 73.675C39.5042 73.7212 39.4801 73.7822 39.4801 73.8456C39.4801 73.9089 39.5042 73.9699 39.5475 74.0162C39.5908 74.0624 39.6501 74.0904 39.7134 74.0945H48.9765C57.4302 78.5071 68.2344 81.1629 79.9976 81.1629C91.7607 81.1629 102.568 78.5103 111.019 74.0945H119.632C119.696 74.0904 119.755 74.0624 119.798 74.0162C119.841 73.9699 119.866 73.9089 119.866 73.8456C119.866 73.7822 119.841 73.7212 119.798 73.675C119.755 73.6288 119.696 73.6007 119.632 73.5966H111.948C115.616 71.6334 118.962 69.1205 121.87 66.145H132.531C132.597 66.1448 132.659 66.1188 132.706 66.0727C132.752 66.0267 132.779 65.9642 132.78 65.8987C132.779 65.8329 132.753 65.7699 132.706 65.7233C132.66 65.6767 132.597 65.6501 132.531 65.6493H122.337C124.381 63.4591 126.042 60.9399 127.249 58.1977H138.689C138.752 58.1936 138.812 58.1656 138.855 58.1193C138.898 58.0731 138.922 58.0121 138.922 57.9487C138.922 57.8854 138.898 57.8244 138.855 57.7781C138.812 57.7319 138.752 57.7039 138.689 57.6998H127.469C128.429 55.3307 128.941 52.804 128.978 50.2482H140.529C140.595 50.2479 140.658 50.2215 140.705 50.1748C140.751 50.128 140.778 50.0647 140.778 49.9987C140.778 49.9662 140.771 49.9339 140.759 49.9038C140.746 49.8737 140.728 49.8464 140.705 49.8235C140.682 49.8006 140.654 49.7825 140.624 49.7703C140.594 49.7581 140.562 49.752 140.529 49.7524H140.514ZM128.471 49.7524H119.215C119.191 47.2221 118.784 44.7099 118.01 42.3008H126.927C127.909 44.6644 128.433 47.1932 128.471 49.7524ZM87.9302 25.9071H84.3512C83.5334 22.8103 82.5491 20.5977 81.4586 19.5429C83.8839 20.2029 86.107 22.4766 87.9302 25.9071ZM82.9828 19.6408C87.0193 20.5475 90.6487 22.7492 93.3176 25.9103H88.4439C87.274 23.3316 85.3744 21.152 82.9797 19.6408H82.9828ZM88.1891 26.4061C89.3545 28.7866 90.2662 31.2832 90.9091 33.8545H85.8323C85.5206 31.3481 85.0676 28.8614 84.4755 26.4061H88.1891ZM79.7449 50.2471V57.6987H73.8965C73.7691 55.3492 73.6965 52.864 73.6934 50.2471H79.7481H79.7449ZM73.6934 49.7514C73.6997 47.1345 73.7674 44.6507 73.8965 42.2998H79.7449V49.7514H73.6902H73.6934ZM80.2386 50.2471H86.2934C86.287 52.8605 86.2193 55.3443 86.0902 57.6987H80.2386V50.2471ZM80.2386 49.7514V42.2998H86.0902C86.2144 44.6493 86.287 47.1345 86.2934 49.7514H80.2386ZM80.2386 41.8008V34.3492H85.3902C85.6776 36.625 85.9081 39.1145 86.0628 41.8008H80.2386ZM79.7449 41.8008H73.9207C74.0755 39.1145 74.3049 36.625 74.5933 34.3492H79.7449V41.8008ZM73.4291 41.8008H67.6165C67.9013 39.2909 68.3475 36.8018 68.9523 34.3492H74.0923C73.807 36.6598 73.5828 39.1545 73.4312 41.8019L73.4291 41.8008ZM73.3986 42.2987C73.2712 44.6756 73.2049 47.1703 73.1986 49.7503H67.147C67.1526 47.261 67.2889 44.7737 67.5555 42.2987H73.3986ZM73.1986 50.2461C73.2049 52.8229 73.2712 55.3187 73.3986 57.6977H67.5555C67.289 55.2227 67.1527 52.7354 67.147 50.2461H73.1986ZM73.4291 58.1935C73.5807 60.844 73.8049 63.3387 74.0923 65.645H68.9523C68.3475 63.1924 67.9013 60.7034 67.6165 58.1935H73.4291ZM73.9228 58.1935H79.747V65.645H74.5955C74.3102 63.3703 74.0797 60.8777 73.9249 58.1945L73.9228 58.1935ZM80.2386 58.1935H86.0628C85.9081 60.8798 85.6786 63.3693 85.3902 65.645H80.2386V58.1935ZM86.5544 58.1935H92.3734C92.0871 60.7032 91.6409 63.1921 91.0376 65.645H85.8976C86.186 63.3398 86.4134 60.845 86.5618 58.1945L86.5544 58.1935ZM86.5849 57.6956C86.7123 55.3156 86.7786 52.8208 86.7849 50.244H92.8397C92.834 52.7333 92.6977 55.2206 92.4312 57.6956H86.5849ZM86.7849 49.7514C86.7786 47.1714 86.7123 44.6787 86.5849 42.2998H92.4302C92.6968 44.7748 92.8332 47.2621 92.8386 49.7514H86.7849ZM86.5544 41.8008C86.406 39.1535 86.1786 36.6556 85.8944 34.3492H91.0344C91.6407 36.8015 92.0869 39.2906 92.3702 41.8008H86.5544ZM85.3281 33.8535H80.2365V26.4061H83.9523C84.5562 28.8602 85.0177 31.3471 85.3344 33.8545L85.3281 33.8535ZM79.7428 33.8535H74.6544C74.9674 31.346 75.4264 28.859 76.0291 26.405H79.7428V33.8535ZM74.1481 33.8535H69.0786C69.7239 31.2824 70.6366 28.786 71.8018 26.405H75.5155C74.9192 28.8596 74.4651 31.3465 74.1555 33.8535H74.1481ZM72.0576 25.9071C73.8839 22.4756 76.1039 20.2029 78.5302 19.5429C77.4397 20.5956 76.4555 22.8061 75.6376 25.9071H72.0586H72.0576ZM71.5397 25.9071H66.6691C69.3392 22.7459 72.9696 20.5442 77.007 19.6377C74.6124 21.1489 72.7128 23.3285 71.5428 25.9071H71.5397ZM71.2913 26.405C70.1371 28.7893 69.229 31.285 68.5807 33.8535H61.6534C62.8102 31.1635 64.3496 28.6548 66.2239 26.405H71.2913ZM68.4597 34.3524C67.8531 36.8048 67.4059 39.2938 67.1207 41.804H59.2049C59.6975 39.2502 60.4495 36.7534 61.4491 34.3524H68.467H68.4597ZM67.0607 42.2998C66.7947 44.7748 66.6573 47.262 66.6491 49.7514H58.4165C58.4253 47.2522 58.6542 44.7587 59.1007 42.2998H67.0607ZM66.6491 50.2471C66.6574 52.7365 66.7948 55.2236 67.0607 57.6987H59.1102C58.6638 55.2398 58.4349 52.7463 58.426 50.2471H66.6491ZM67.1218 58.1945C67.4099 60.7042 67.8571 63.1931 68.4607 65.6461H61.4428C60.4432 63.2451 59.6912 60.7483 59.1986 58.1945H67.1186H67.1218ZM68.5849 66.1419C69.2332 68.7113 70.1414 71.208 71.2955 73.5935H66.2281C64.3525 71.3435 62.813 68.8336 61.6576 66.1419H68.5849ZM71.5407 74.0892C72.7116 76.6673 74.611 78.8466 77.0049 80.3587C72.967 79.4534 69.3362 77.2515 66.667 74.0892H71.5376H71.5407ZM72.0586 74.0892H75.6376C76.4555 77.1861 77.4397 79.3987 78.5302 80.4566C76.1091 79.7966 73.8839 77.5208 72.0576 74.0892H72.0586ZM71.7986 73.5914C70.6325 71.2097 69.7197 68.7122 69.0755 66.1398H74.1523C74.4637 68.6475 74.9178 71.1354 75.5123 73.5914H71.7986ZM74.6544 66.1429H79.746V73.5945H76.0365C75.4337 71.139 74.9737 68.6506 74.6586 66.1419L74.6544 66.1429ZM80.2397 66.1429H85.3312C85.0159 68.6513 84.5558 71.1393 83.9533 73.5945H80.2397V66.1429ZM85.8344 66.1429H90.9112C90.2675 68.715 89.3558 71.2125 88.1912 73.5945H84.4786C85.0744 71.1385 85.5282 68.6502 85.8376 66.1419L85.8344 66.1429ZM87.9302 74.0903C86.1039 77.5219 83.8807 79.7977 81.4576 80.4577C82.5481 79.405 83.5291 77.1871 84.3502 74.0903H87.9302ZM88.4449 74.0903H93.3186C90.6498 77.253 87.0189 79.455 82.9807 80.3598C85.3774 78.8496 87.2784 76.6693 88.4481 74.0892L88.4449 74.0903ZM88.6965 73.5924C89.8513 71.2076 90.7585 68.7107 91.4039 66.1408H98.3313C97.1751 68.8321 95.6357 71.342 93.7607 73.5924H88.6965ZM91.526 65.6482C92.1307 63.1953 92.579 60.7064 92.8681 58.1966H100.786C100.294 60.7503 99.5435 63.2471 98.5449 65.6482H91.526ZM92.9281 57.6977C93.1956 55.2227 93.3329 52.7354 93.3397 50.2461H101.575C101.564 52.7452 101.334 55.2386 100.888 57.6977H92.9313H92.9281ZM93.3365 49.7535C93.3314 47.2641 93.194 44.7767 92.9249 42.3019H100.882C101.328 44.7609 101.558 47.2543 101.569 49.7535H93.3334H93.3365ZM92.867 41.8029C92.5777 39.2932 92.1294 36.8043 91.5249 34.3514H98.5428C99.5414 36.7525 100.292 39.2493 100.784 41.8029H92.867ZM91.4039 33.8556C90.758 31.2869 89.8508 28.791 88.6965 26.4071H93.7607C95.636 28.6561 97.1756 31.165 98.3313 33.8556H91.4039ZM94.387 26.4071H99.7239C102.294 28.5218 104.506 31.0368 106.275 33.8556H98.867C97.7275 31.1757 96.2185 28.6686 94.3839 26.4071H94.387ZM93.9755 25.9092C91.7291 23.2056 88.8309 21.1189 85.5544 19.8461C90.4937 20.738 95.1415 22.819 99.0965 25.9092H93.9755ZM83.826 25.9092H80.247V19.3724C81.5028 19.6408 82.7786 21.9661 83.8291 25.9071L83.826 25.9092ZM76.1597 25.9092C77.2123 21.9671 78.4923 19.6429 79.746 19.3724V25.9092H76.1597ZM66.0102 25.9092H60.8997C64.8547 22.819 69.5025 20.738 74.4418 19.8461C71.1637 21.1188 68.2632 23.2046 66.0133 25.9071L66.0102 25.9092ZM65.5986 26.4071C63.7639 28.668 62.2559 31.1753 61.1186 33.8556H53.7102C55.4796 31.0368 57.6919 28.5218 60.2618 26.4071H65.5986ZM60.9165 34.3545C59.93 36.7579 59.1873 39.2543 58.6997 41.8061H50.1944C50.9262 39.1892 52.0071 36.6828 53.4081 34.3545H60.9165ZM58.6007 42.3019C58.1584 44.7613 57.9305 47.2546 57.9197 49.7535H49.0607C49.078 47.2386 49.4076 44.7356 50.0418 42.3019H58.5986H58.6007ZM57.9197 50.2492C57.9307 52.7481 58.1586 55.2414 58.6007 57.7008H50.0439C49.4099 55.2671 49.0803 52.7641 49.0628 50.2492H57.9218H57.9197ZM58.6976 58.1966C59.1866 60.7481 59.9292 63.2443 60.9144 65.6482H53.4049C52.0052 63.3193 50.9243 60.813 50.1912 58.1966H58.6997H58.6976ZM61.1186 66.144C62.257 68.8247 63.765 71.3329 65.5986 73.5956H60.2681C57.6967 71.4812 55.4843 68.9649 53.7165 66.144H61.1186ZM66.0102 74.0914C68.2563 76.7953 71.1546 78.882 74.4313 80.1545C69.4922 79.262 64.8445 77.1811 60.8891 74.0914H66.0102ZM76.1597 74.0914H79.746V80.6314C78.4955 80.3556 77.2155 78.0335 76.1628 74.0892L76.1597 74.0914ZM83.826 74.0914C82.7733 78.0356 81.4965 80.3577 80.2397 80.6314V74.0914H83.826ZM93.9755 74.0914H99.0976C95.1433 77.1828 90.4951 79.2639 85.5555 80.1545C88.8316 78.8809 91.7285 76.7943 93.9755 74.0914ZM94.387 73.5935C96.2224 71.3314 97.7315 68.8231 98.8702 66.1419H106.279C104.51 68.9622 102.298 71.4784 99.727 73.5935H94.387ZM99.0723 65.6493C100.057 63.2454 100.8 60.7491 101.289 58.1977H109.798C109.064 60.8141 107.984 63.3203 106.584 65.6493H99.0723ZM101.388 57.6987C101.828 55.239 102.055 52.7459 102.067 50.2471H110.924C110.908 52.7621 110.578 55.2653 109.943 57.6987H101.388ZM102.067 49.7545C102.055 47.2558 101.828 44.7627 101.388 42.3029H109.942C110.578 44.7363 110.907 47.2395 110.923 49.7545H102.067ZM101.291 41.804C100.802 39.2526 100.059 36.7564 99.0744 34.3524H106.584C107.985 36.6812 109.067 39.1874 109.801 41.804H101.291ZM107.161 34.3556H113.288C115.008 36.6163 116.368 39.1291 117.321 41.805H110.321C109.6 39.1935 108.538 36.6881 107.164 34.3535L107.161 34.3556ZM106.87 33.8577C105.144 31.0571 102.991 28.5439 100.488 26.4092H104.699C107.817 28.4345 110.587 30.9497 112.904 33.8577H106.87ZM99.9039 25.9103C96.7753 23.3619 93.1855 21.4395 89.3302 20.2482C94.493 21.2382 99.4333 23.1566 103.911 25.9103H99.9039ZM60.087 25.9103H56.0797C60.5569 23.1553 65.4975 21.2368 70.6607 20.2482C66.8068 21.4396 63.2178 23.3608 60.0891 25.9071L60.087 25.9103ZM59.5028 26.4082C56.9982 28.5412 54.8446 31.0547 53.1207 33.8566H47.0891C49.405 30.9479 52.1758 28.4327 55.2944 26.4082H59.5049H59.5028ZM52.8302 34.3556C51.4548 36.6899 50.3931 39.1954 49.6723 41.8071H42.6755C43.6269 39.1314 44.9845 36.6181 46.7007 34.3556H52.8281H52.8302ZM49.5376 42.3029C48.9114 44.7378 48.5869 47.2404 48.5713 49.7545H41.2712C41.2949 47.2222 41.7096 44.7087 42.5007 42.3029H49.5376ZM48.5681 50.2503C48.5854 52.7643 48.9099 55.2667 49.5344 57.7019H42.4986C41.7092 55.2957 41.2946 52.7825 41.2691 50.2503H48.5681ZM49.6734 58.1977C50.3941 60.8094 51.4559 63.3149 52.8312 65.6493H46.7039C44.9877 63.3867 43.63 60.8734 42.6786 58.1977H49.6734ZM53.1197 66.145C54.8435 68.948 56.9971 71.4625 59.5018 73.5966H55.2912C52.1721 71.5728 49.4021 69.0562 47.0891 66.145H53.1197ZM60.086 74.0924C63.2151 76.6407 66.8048 78.564 70.6597 79.7577C65.4953 78.768 60.5537 76.8484 56.0755 74.0924H60.0828H60.086ZM99.9028 74.0924H103.91C99.4331 76.8484 94.4925 78.768 89.3291 79.7577C93.1841 78.564 96.7737 76.6407 99.9028 74.0924ZM100.487 73.5945C102.992 71.4611 105.146 68.9464 106.869 66.1429H112.903C110.588 69.0519 107.818 71.5681 104.701 73.5945H100.487ZM107.16 65.6503C108.536 63.3166 109.598 60.811 110.318 58.1987H117.321C116.371 60.875 115.013 63.3884 113.295 65.6503H107.16ZM110.452 57.6998C111.077 55.2646 111.401 52.7621 111.419 50.2482H118.719C118.693 52.7804 118.279 55.2936 117.489 57.6998H110.45H110.452ZM111.419 49.7556C111.401 47.2416 111.077 44.7392 110.452 42.304H117.491C118.281 44.71 118.696 47.2233 118.721 49.7556H111.426H111.419ZM126.708 41.805H117.833C116.904 39.1366 115.575 36.6243 113.893 34.3535H121.665C123.76 36.5299 125.467 39.0491 126.712 41.8019L126.708 41.805ZM121.189 33.8577H113.535C111.291 30.9687 108.602 28.4546 105.569 26.4092H110.915C114.704 28.3477 118.171 30.859 121.193 33.8545L121.189 33.8577ZM109.952 25.9071H104.846C100.758 23.2751 96.2556 21.3507 91.5281 20.2145C97.9249 21.1567 104.139 23.0766 109.952 25.9071ZM68.4723 20.2229C63.7444 21.3577 59.2418 23.2823 55.1544 25.9156H50.0481C55.8608 23.0844 62.074 21.1631 68.4702 20.2187L68.4723 20.2229ZM49.0755 26.4103H54.4239C51.3924 28.4565 48.7046 30.9705 46.4607 33.8587H38.8039C41.8234 30.8611 45.2873 28.3473 49.0734 26.4061L49.0755 26.4103ZM38.326 34.3577H46.0976C44.4147 36.628 43.0859 39.1404 42.1565 41.8092H33.2776C34.522 39.0563 36.2276 36.5362 38.3207 34.3577H38.326ZM33.0628 42.305H41.9797C41.204 44.7138 40.7977 47.2262 40.7744 49.7566H31.5218C31.5597 47.1956 32.0837 44.6652 33.066 42.2998L33.0628 42.305ZM31.5207 50.2524H40.7734C40.7969 52.7829 41.2032 55.2952 41.9786 57.704H33.066C32.083 55.3389 31.5596 52.8081 31.5239 50.2471L31.5207 50.2524ZM33.2776 58.1998H42.1628C43.0922 60.8686 44.421 63.381 46.1039 65.6514H38.3323C36.2381 63.4737 34.5324 60.9534 33.2891 58.1998H33.2776ZM38.7997 66.1471H46.4534C48.6991 69.0357 51.3878 71.5507 54.4197 73.5987H49.0713C45.2842 71.6578 41.8204 69.1424 38.8028 66.1419L38.7997 66.1471ZM50.0397 74.0945H55.146C59.2343 76.7283 63.7379 78.6529 68.467 79.7872C62.0706 78.8405 55.857 76.9189 50.0428 74.0892L50.0397 74.0945ZM91.5228 79.7872C96.2509 78.6529 100.754 76.7283 104.841 74.0945H109.952C104.137 76.924 97.9225 78.8439 91.5249 79.7872H91.5228ZM110.92 73.5966H105.573C108.606 71.5495 111.295 69.0344 113.54 66.145H121.193C118.175 69.1439 114.71 71.6575 110.923 73.5966H110.92ZM121.669 65.6524H113.9C115.583 63.3821 116.911 60.8696 117.841 58.2008H126.715C125.473 60.9528 123.767 63.4711 121.672 65.6461L121.669 65.6524ZM126.924 57.7019H118.007C118.782 55.2931 119.189 52.7807 119.212 50.2503H128.465C128.428 52.8096 127.904 55.3385 126.921 57.7019H126.924Z" fill="white"/>
<path d="M10.7582 59.6685L9.19292 59.8053L8.92871 58.3737L16.4445 57.9453L16.9034 59.0064L11.4361 64.1822L10.5761 63.0095L11.755 61.9759L10.7582 59.6685ZM12.2445 59.5253L12.8761 60.9843L14.7908 59.2916L12.2466 59.5253H12.2445Z" fill="#004896"/>
<path d="M22.2343 67.9476L20.8659 67.9571C20.921 67.68 20.9068 67.3935 20.8245 67.1232C20.7423 66.8529 20.5945 66.6071 20.3943 66.4076C19.668 65.5718 18.4132 66.0918 17.5806 66.8182C16.748 67.5445 16.0585 68.7129 16.7869 69.555C16.9571 69.7816 17.1807 69.9624 17.4379 70.0812C17.6951 70.2001 17.9778 70.2533 18.2606 70.2361L18.0627 71.5855C17.6154 71.5912 17.1728 71.4935 16.7694 71.2999C16.3661 71.1064 16.0129 70.8223 15.7374 70.4697C14.5069 69.0539 15.2206 66.9655 16.6374 65.7329C18.0543 64.5003 20.2596 64.1255 21.4511 65.4961C21.7628 65.8176 21.9958 66.2069 22.1319 66.6335C22.2679 67.0601 22.3033 67.5124 22.2353 67.955L22.2343 67.9476Z" fill="#004896"/>
<path d="M28.7434 73.1159L27.4118 73.4138C27.4065 73.1314 27.3315 72.8548 27.1936 72.6084C27.0557 72.362 26.8591 72.1534 26.6213 72.0012C25.7339 71.3391 24.6213 72.1138 23.956 73.0011C23.2907 73.8885 22.8739 75.1801 23.7581 75.8433C23.9717 76.0278 24.2277 76.1566 24.5032 76.2182C24.7788 76.2797 25.0652 76.2721 25.3371 76.1959L25.4307 77.5569C24.9947 77.6584 24.5411 77.6574 24.1055 77.554C23.6699 77.4506 23.2642 77.2477 22.9202 76.9612C21.416 75.8401 21.6707 73.6454 22.7929 72.1412C23.915 70.6369 25.9929 69.8012 27.4486 70.8864C27.8215 71.1345 28.1318 71.4656 28.3553 71.8536C28.5789 72.2417 28.7095 72.6763 28.7371 73.1233L28.7434 73.1159Z" fill="#004896"/>
<path d="M29.8209 81.1121L28.5693 80.4468L31.9483 74.0742L33.583 74.9437C34.1937 75.2215 34.6694 75.7299 34.9061 76.3576C35.1429 76.9854 35.1213 77.6813 34.8462 78.2932C34.6365 78.6728 34.3232 78.9849 33.9428 79.1931C33.5623 79.4013 33.1305 79.497 32.6978 79.469L33.3146 82.3837L31.9135 82.4289L31.2999 79.0953L30.9841 78.9247L29.8262 81.1131L29.8209 81.1121ZM32.0314 77.8721C32.2713 78.0384 32.5665 78.1044 32.8544 78.0563C33.1422 78.0081 33.3998 77.8495 33.5725 77.6142C33.8546 77.0826 33.6367 76.5721 32.922 76.1953L32.5388 75.9921L31.6483 77.67L32.0314 77.8721Z" fill="#004896"/>
<path d="M40.6388 84.4885L40.1125 85.8074L36.4473 84.3548L39.1062 77.6475L42.662 79.058L42.1357 80.3769L39.8988 79.4896L39.4188 80.6959L41.3136 81.4496L40.7873 82.7685L38.8925 82.0148L38.282 83.559L40.6388 84.4885Z" fill="#004896"/>
<path d="M50.3101 85.1087C50.2137 85.5608 50.0282 85.9892 49.7644 86.3689C49.5007 86.7486 49.1639 87.0719 48.7738 87.3201C48.3837 87.5682 47.9481 87.7361 47.4924 87.814C47.0367 87.8919 46.57 87.8783 46.1196 87.7739L43.9375 87.1423L45.9491 80.2129L48.1312 80.8444C48.9784 81.1313 49.6804 81.7373 50.0879 82.5336C50.4953 83.3299 50.5762 84.2537 50.3133 85.1087H50.3101ZM45.6933 86.175L46.5144 86.4118C46.7849 86.4618 47.0628 86.4572 47.3315 86.3981C47.6002 86.339 47.8543 86.2266 48.0789 86.0676C48.3035 85.9087 48.494 85.7064 48.6391 85.4726C48.7842 85.2388 48.881 84.9784 48.9238 84.7066C49.0905 84.217 49.0592 83.6818 48.8365 83.2151C48.6139 82.7483 48.2176 82.3872 47.7322 82.2087L46.9112 81.9718L45.6933 86.175Z" fill="#004896"/>
<path d="M54.6263 89.8957L53.2158 89.5946L54.7169 82.542L56.1274 82.843L54.6263 89.8957Z" fill="#004896"/>
<path d="M60.0822 90.8856L60.9453 85.154L59.1611 84.8866L59.3717 83.4824L64.3432 84.2298L64.1327 85.634L62.3485 85.3666L61.4853 91.0982L60.0811 90.8877L60.0822 90.8856Z" fill="#004896"/>
<path d="M67.6047 90.5158L66.9879 91.9589L65.6016 91.5147L68.7773 84.6895L69.9289 84.7863L71.9068 92.0495L70.4668 92.2526L70.1142 90.7273L67.61 90.5168L67.6047 90.5158ZM68.1826 89.1474L69.7616 89.281L69.1753 86.7916L68.1784 89.1442L68.1826 89.1474Z" fill="#004896"/>
<path d="M76.0071 92.3447L76.1439 86.5489L74.3418 86.5069L74.3755 85.0879L79.3987 85.2068L79.365 86.6258L77.5628 86.5837L77.426 92.3795L76.0071 92.3447Z" fill="#004896"/>
<path d="M84.4066 92.32L82.9635 92.3621L82.7529 85.1505L84.1961 85.1084L84.4066 92.32Z" fill="#004896"/>
<path d="M94.1373 88.022C94.3047 89.9167 93.332 91.8967 91.4415 92.0641C89.551 92.2315 88.2447 90.4536 88.0731 88.5599C87.9015 86.6662 88.8752 84.6852 90.7689 84.5178C92.6626 84.3504 93.9699 86.1272 94.1373 88.022ZM91.3173 90.6746C92.4331 90.5694 92.8068 89.3462 92.7004 88.1483C92.5941 86.9504 92.011 85.8083 90.8952 85.9052C89.7794 86.002 89.4057 87.2304 89.512 88.4315C89.6184 89.6325 90.2015 90.7757 91.3162 90.6788L91.3173 90.6746Z" fill="#004896"/>
<path d="M98.9695 86.1744L99.7685 90.8702L98.3706 91.107L97.1611 83.9955L98.559 83.7586L102.108 87.986L101.31 83.2954L102.707 83.0586L103.917 90.1702L102.519 90.407L98.9695 86.1744Z" fill="#004896"/>
<path d="M113.582 87.7888L111.431 80.9025L114.85 79.833L115.271 81.1888L113.204 81.833L113.625 83.1888L115.577 82.5783L115.998 83.9341L114.046 84.5446L114.927 87.3677L113.572 87.7888H113.582Z" fill="#004896"/>
<path d="M124.77 79.7691C125.507 81.5165 125.199 83.7017 123.451 84.4428C121.704 85.1838 119.913 83.8922 119.169 82.1449C118.425 80.3975 118.741 78.2122 120.488 77.4712C122.235 76.7301 124.026 78.0217 124.77 79.7691ZM122.907 83.1607C123.938 82.7228 123.913 81.4407 123.445 80.3343C122.976 79.228 122.068 78.3196 121.038 78.7554C120.007 79.1912 120.031 80.4754 120.5 81.5817C120.968 82.688 121.88 83.5985 122.907 83.1554V83.1607Z" fill="#004896"/>
<path d="M131.089 80.4379L129.867 81.161L126.195 74.9505L127.791 74.0031C128.347 73.628 129.028 73.4884 129.687 73.6148C130.345 73.7413 130.927 74.1236 131.304 74.6779C131.518 75.0548 131.621 75.4851 131.6 75.9183C131.579 76.3516 131.435 76.7699 131.185 77.1242L133.993 78.1179L133.304 79.3368L130.141 78.121L129.831 78.3031L131.094 80.4368L131.089 80.4379ZM129.482 76.8589C129.748 76.7411 129.958 76.5241 130.067 76.2541C130.176 75.984 130.175 75.6822 130.065 75.4126C129.757 74.8958 129.208 74.8137 128.515 75.2242L128.142 75.4463L129.108 77.081L129.482 76.8589Z" fill="#004896"/>
<path d="M139.982 70.1841C140.282 70.4526 140.522 70.782 140.685 71.1503C140.848 71.5186 140.931 71.9174 140.928 72.3201C140.924 72.7229 140.835 73.1204 140.667 73.4861C140.498 73.8518 140.253 74.1774 139.949 74.4412C139.645 74.7049 139.287 74.9008 138.901 75.0158C138.515 75.1308 138.109 75.1622 137.71 75.1081C137.311 75.0539 136.928 74.9153 136.587 74.7015C136.245 74.4878 135.953 74.2037 135.73 73.8683L132.974 70.6894L134.046 69.7599L136.457 72.541C137.314 73.5315 138.225 74.0483 139.016 73.362C139.806 72.6757 139.423 71.7031 138.566 70.7115L136.157 67.9304L137.229 67.001L139.986 70.1799L139.982 70.1841Z" fill="#004896"/>
<path d="M142.398 64.526L146.269 67.6839L145.352 68.7839L140 63.8755L140.681 62.7691L145.86 64.267L142.195 60.3133L142.876 59.207L149.665 61.7807L149.094 63.0965L144.529 61.0607L147.918 64.7744L147.237 65.8807L142.395 64.5218L142.398 64.526Z" fill="#004896"/>
<path d="M25.2032 30.709L24.1095 31.648L19.4053 26.1743L20.499 25.2354L25.2032 30.709Z" fill="#004896"/>
<path d="M28.3386 22.6524L30.7239 26.7735L29.4965 27.485L25.8828 21.2398L27.1102 20.5282L31.9091 23.2545L29.5239 19.1335L30.7512 18.4219L34.3649 24.6671L33.1375 25.3787L28.3386 22.6524Z" fill="#004896"/>
<path d="M40.4039 21.9691L38.2829 16.5744L36.605 17.2333L36.085 15.9112L40.7618 14.0723L41.2818 15.3944L39.6039 16.0533L41.725 21.4481L40.406 21.9681L40.4039 21.9691Z" fill="#004896"/>
<path d="M51.2692 16.9128L51.646 18.2813L47.8439 19.3339L45.9229 12.3802L49.6071 11.3623L49.9839 12.7307L47.6681 13.3718L48.0144 14.6234L49.9839 14.0791L50.3607 15.4476L48.3913 15.9918L48.8323 17.5907L51.2671 16.9191L51.2692 16.9128Z" fill="#004896"/>
<path d="M57.9673 16.9078L56.5694 17.1573L55.2988 10.0541L57.122 9.72886C57.7733 9.57295 58.4599 9.68102 59.0318 10.0295C59.6037 10.378 60.0145 10.9386 60.1746 11.5889C60.2443 12.0168 60.1904 12.4556 60.0192 12.8539C59.848 13.2522 59.5667 13.5934 59.2083 13.8373L61.4988 15.7499L60.4262 16.6499L57.8851 14.4036L57.5294 14.4678L57.9673 16.9047V16.9078ZM57.7062 12.9962C58.2988 12.891 58.8641 12.4341 58.7588 11.8447C58.6536 11.2552 58.1662 10.9847 57.3725 11.1278L56.9515 11.2036L57.2862 13.0731L57.7062 12.9962Z" fill="#004896"/>
<path d="M67.2718 10.7739L67.6855 15.5182L66.2718 15.6392L65.6455 8.45183L67.0581 8.33078L70.2487 12.835L69.835 8.09078L71.2476 7.96973L71.8739 15.1571L70.4613 15.2782L67.2708 10.7771L67.2718 10.7739Z" fill="#004896"/>
<path d="M78.6001 13.6179L78.1074 15.1106L76.6885 14.7853L79.2779 7.71582H80.4358L83.0222 14.7842L81.6032 15.1095L81.1232 13.6169H78.6095L78.6001 13.6179ZM79.059 12.199H80.6464L79.8527 9.77056L79.059 12.199Z" fill="#004896"/>
<path d="M88.3986 15.2162L88.8302 9.43619L87.0312 9.30251L87.1365 7.88672L92.1481 8.2604L92.0428 9.67619L90.2439 9.54251L89.8123 15.3225L88.3965 15.2172L88.3986 15.2162Z" fill="#004896"/>
<path d="M98.0632 16.2831L96.6348 16.0725L97.6737 8.93359L99.1021 9.14412L98.0632 16.2831Z" fill="#004896"/>
<path d="M109.974 15.0211C109.542 16.8716 108.001 18.4526 106.154 18.0211C104.306 17.5895 103.619 15.4947 104.048 13.6421C104.478 11.7895 106.018 10.2105 107.868 10.6421C109.719 11.0737 110.402 13.1705 109.974 15.0211ZM106.467 16.6653C107.556 16.9179 108.294 15.8695 108.567 14.6958C108.841 13.5221 108.64 12.2558 107.553 12.0032C106.465 11.7505 105.726 12.799 105.447 13.9726C105.168 15.1463 105.379 16.4137 106.467 16.6653Z" fill="#004896"/>
<path d="M116.83 15.9565L115.21 20.4365L113.876 19.9533L116.329 13.167L117.662 13.6501L118.669 19.0775L120.289 14.6007L121.622 15.0838L119.17 21.8702L117.836 21.387L116.83 15.9596V15.9565Z" fill="#004896"/>
<path d="M125.829 23.5015L124.685 24.5773L123.592 23.6173L129.234 18.6299L130.249 19.1804L129.155 26.6288L127.754 26.2394L128.042 24.6983L125.832 23.5004L125.829 23.5015ZM126.904 22.4709L128.299 23.2278L128.758 20.7141L126.904 22.4709Z" fill="#004896"/>
<path d="M136.754 30.7113L135.857 31.8113L132.891 29.3987L137.443 23.8008L138.543 24.6945L134.887 29.1924L136.754 30.7092V30.7113Z" fill="#004896"/>
<path d="M10.1234 59.0308L8.55816 59.1676L8.29395 57.736L15.8097 57.3076L16.2687 58.3687L10.8013 63.5445L9.94131 62.3718L11.1203 61.3381L10.1234 59.0308ZM11.6066 58.8876L12.2382 60.3466L14.1529 58.6539L11.6066 58.8876Z" fill="white"/>
<path d="M21.5956 67.3099L20.2272 67.3194C20.2823 67.0423 20.2681 66.7558 20.1859 66.4855C20.1036 66.2152 19.9558 65.9694 19.7556 65.7699C19.0293 64.9341 17.7746 65.4541 16.9419 66.1805C16.1093 66.9068 15.4198 68.0752 16.1482 68.9173C16.3184 69.1439 16.5421 69.3247 16.7993 69.4435C17.0565 69.5624 17.3391 69.6156 17.6219 69.5984L17.424 70.9478C16.9767 70.9535 16.5341 70.8558 16.1307 70.6622C15.7274 70.4687 15.3742 70.1846 15.0988 69.8321C13.8682 68.4163 14.5819 66.3278 15.9988 65.0952C17.4156 63.8626 19.6209 63.4878 20.8125 64.8584C21.1241 65.1799 21.3571 65.5692 21.4932 65.9958C21.6292 66.4224 21.6647 66.8747 21.5967 67.3173L21.5956 67.3099Z" fill="white"/>
<path d="M28.1085 72.4793L26.777 72.7772C26.7718 72.4947 26.6969 72.2178 26.559 71.9712C26.4211 71.7245 26.2244 71.5158 25.9864 71.3635C25.0991 70.7014 23.9864 71.4761 23.3212 72.3635C22.6559 73.2508 22.2391 74.5424 23.1233 75.2056C23.3369 75.3902 23.5929 75.519 23.8684 75.5805C24.1439 75.642 24.4304 75.6344 24.7022 75.5582L24.797 76.9193C24.3609 77.02 23.9074 77.0186 23.472 76.9153C23.0365 76.8119 22.6308 76.6094 22.2864 76.3235C20.7822 75.2024 21.037 73.0077 22.1591 71.5035C23.2812 69.9993 25.3591 69.1635 26.8149 70.2487C27.1877 70.4968 27.498 70.8279 27.7216 71.216C27.9451 71.604 28.0757 72.0386 28.1033 72.4856L28.1085 72.4793Z" fill="white"/>
<path d="M29.1861 80.4754L27.9346 79.8101L31.3135 73.4375L32.9483 74.307C33.5589 74.5848 34.0346 75.0932 34.2714 75.7209C34.5081 76.3486 34.4865 77.0446 34.2114 77.6564C34.0018 78.0361 33.6884 78.3483 33.308 78.5565C32.9276 78.7647 32.4958 78.8603 32.063 78.8322L32.683 81.747L31.2819 81.7923L30.6683 78.4585L30.3525 78.288L29.1946 80.4765L29.1861 80.4754ZM31.3967 77.2354C31.6365 77.4017 31.9318 77.4677 32.2196 77.4196C32.5074 77.3714 32.7651 77.2128 32.9377 76.9775C33.2198 76.4459 33.0019 75.9354 32.2872 75.5585L31.904 75.3554L31.0135 77.0333L31.3967 77.2354Z" fill="white"/>
<path d="M40.0011 83.8537L39.4748 85.1727L35.8096 83.72L38.4685 77.0127L42.0243 78.4232L41.498 79.7422L39.2611 78.8548L38.7811 80.0611L40.6759 80.8148L40.1496 82.1337L38.2548 81.3801L37.6443 82.9243L39.9906 83.8537H40.0011Z" fill="white"/>
<path d="M49.6793 84.471C49.5827 84.9231 49.3971 85.3514 49.1333 85.731C48.8695 86.1106 48.5327 86.4339 48.1427 86.682C47.7526 86.9301 47.317 87.098 46.8614 87.176C46.4057 87.254 45.9391 87.2405 45.4887 87.1362L43.3066 86.5047L45.3182 79.5752L47.5003 80.2068C48.3476 80.4937 49.0495 81.0996 49.457 81.8959C49.8645 82.6922 49.9454 83.616 49.6824 84.471H49.6793ZM45.0624 85.5373L45.8835 85.7742C46.1542 85.8247 46.4323 85.8204 46.7013 85.7615C46.9703 85.7027 47.2248 85.5905 47.4498 85.4316C47.6747 85.2728 47.8655 85.0704 48.0109 84.8365C48.1562 84.6026 48.2532 84.3419 48.2961 84.0699C48.4628 83.5804 48.4315 83.0451 48.2088 82.5784C47.9862 82.1117 47.5899 81.7505 47.1045 81.572L46.2835 81.3352L45.0624 85.5373Z" fill="white"/>
<path d="M53.9886 89.2599L52.5781 88.9589L54.0792 81.9062L55.4897 82.2073L53.9886 89.2599Z" fill="white"/>
<path d="M59.4474 90.2508L60.3106 84.5192L58.5264 84.2519L58.7369 82.8477L63.7085 83.595L63.4979 84.9992L61.7137 84.7319L60.8506 90.4635L59.4464 90.2529L59.4474 90.2508Z" fill="white"/>
<path d="M66.97 89.88L66.3531 91.3232L64.9668 90.879L68.1426 84.0537L69.2942 84.1506L71.2721 91.4137L69.8321 91.6169L69.4794 90.0916L66.9752 89.8811L66.97 89.88ZM67.5447 88.5032L69.1236 88.6369L68.5373 86.1474L67.5405 88.5L67.5447 88.5032Z" fill="white"/>
<path d="M75.3723 91.7061L75.5091 85.9103L73.707 85.8682L73.7407 84.4492L78.7639 84.5682L78.7302 85.9871L76.9281 85.945L76.7912 91.7408L75.3723 91.7061Z" fill="white"/>
<path d="M83.7697 91.6852L82.3297 91.7273L82.1191 84.5157L83.5623 84.4736L83.7728 91.6852H83.7697Z" fill="white"/>
<path d="M93.5025 87.3843C93.6699 89.279 92.6973 91.2591 90.8068 91.4264C88.9162 91.5938 87.6099 89.8159 87.4383 87.9222C87.2667 86.0285 88.2404 84.0475 90.1341 83.8801C92.0278 83.7127 93.3352 85.4895 93.5025 87.3843ZM90.6825 90.0369C91.7983 89.9317 92.172 88.7085 92.0657 87.5106C91.9594 86.3127 91.3762 85.1706 90.2604 85.2675C89.1446 85.3643 88.771 86.5959 88.8773 87.7938C88.9836 88.9917 89.5615 90.138 90.6815 90.0411L90.6825 90.0369Z" fill="white"/>
<path d="M98.3318 85.5371L99.1308 90.2329L97.7329 90.4697L96.5234 83.3581L97.9213 83.1213L101.471 87.3486L100.672 82.6528L102.07 82.416L103.279 89.5276L101.881 89.7644L98.3318 85.5371Z" fill="white"/>
<path d="M112.947 87.1511L110.796 80.2648L114.215 79.1953L114.636 80.5511L112.57 81.1953L112.991 82.5511L114.942 81.9406L115.363 83.2964L113.412 83.9069L114.293 86.73L112.937 87.1511H112.947Z" fill="white"/>
<path d="M124.135 79.1324C124.872 80.8797 124.564 83.065 122.816 83.8061C121.069 84.5471 119.279 83.2555 118.534 81.5081C117.79 79.7608 118.106 77.5755 119.853 76.8345C121.601 76.0934 123.391 77.385 124.135 79.1324ZM122.269 82.5239C123.3 82.086 123.275 80.8039 122.807 79.6976C122.339 78.5913 121.43 77.6829 120.4 78.1187C119.369 78.5545 119.393 79.8387 119.862 80.945C120.33 82.0513 121.243 82.9608 122.269 82.5187V82.5239Z" fill="white"/>
<path d="M130.454 79.8L129.232 80.5231L125.561 74.3126L127.156 73.3705C127.712 72.9959 128.394 72.8566 129.052 72.983C129.71 73.1095 130.291 73.4913 130.669 74.0452C130.884 74.4221 130.987 74.8524 130.965 75.2857C130.944 75.719 130.8 76.1372 130.55 76.4915L133.358 77.4852L132.67 78.7063L129.507 77.4905L129.197 77.6726L130.461 79.8063L130.454 79.8ZM128.844 76.221C129.11 76.1032 129.32 75.8862 129.429 75.6162C129.538 75.3461 129.537 75.0443 129.427 74.7747C129.119 74.2579 128.57 74.1757 127.877 74.5863L127.504 74.8084L128.47 76.4431L128.844 76.221Z" fill="white"/>
<path d="M139.347 69.5464C139.648 69.8149 139.887 70.1443 140.05 70.5126C140.213 70.8809 140.296 71.2797 140.293 71.6824C140.29 72.0852 140.201 72.4827 140.032 72.8484C139.863 73.2141 139.619 73.5397 139.314 73.8035C139.01 74.0672 138.653 74.2631 138.267 74.3781C137.881 74.4931 137.475 74.5246 137.075 74.4704C136.676 74.4162 136.293 74.2776 135.952 74.0638C135.611 73.8501 135.319 73.566 135.096 73.2307L132.339 70.0517L133.412 69.1222L135.822 71.9033C136.679 72.8938 137.59 73.4107 138.381 72.7243C139.171 72.038 138.788 71.0654 137.931 70.0738L135.522 67.2928L136.595 66.3633L139.351 69.5422L139.347 69.5464Z" fill="white"/>
<path d="M141.76 63.8873L145.632 67.0452L144.714 68.1452L139.362 63.2368L140.043 62.1305L145.222 63.6284L141.557 59.6747L142.238 58.5684L149.028 61.142L148.456 62.4578L143.892 60.422L147.28 64.1357L146.599 65.242L141.757 63.8831L141.76 63.8873Z" fill="white"/>
<path d="M24.5684 30.0753L23.4747 31.0142L18.7705 25.5405L19.8642 24.6016L24.5684 30.0753Z" fill="white"/>
<path d="M27.7009 22.0147L30.0862 26.1358L28.8588 26.8473L25.2451 20.6021L26.4725 19.8894L31.2714 22.6158L28.8862 18.4947L30.1135 17.7842L33.7272 24.0294L32.4999 24.741L27.7009 22.0147Z" fill="white"/>
<path d="M39.7691 21.3313L37.6481 15.9366L35.9702 16.5955L35.4502 15.2734L40.1239 13.4355L40.6502 14.7576L38.9723 15.4176L41.0934 20.8124L39.7744 21.3324L39.7691 21.3313Z" fill="white"/>
<path d="M50.6315 16.2751L51.0083 17.6436L47.2062 18.6962L45.2852 11.7425L48.9694 10.7246L49.3462 12.093L47.0304 12.7341L47.3767 13.9857L49.3462 13.4415L49.7231 14.8099L47.7536 15.3541L48.1946 16.953L50.6294 16.2815L50.6315 16.2751Z" fill="white"/>
<path d="M57.3325 16.2709L55.9346 16.5204L54.6641 9.41936L56.4872 9.0941C57.1385 8.93818 57.8251 9.04626 58.397 9.39474C58.9689 9.74321 59.3798 10.3038 59.5398 10.9541C59.6095 11.382 59.5556 11.8209 59.3845 12.2192C59.2133 12.6175 58.9319 12.9586 58.5735 13.2025L60.8588 15.1141L59.7862 16.0141L57.2451 13.7678L56.8893 13.832L57.3272 16.2688L57.3325 16.2709ZM57.0746 12.3562C57.6672 12.2509 58.2325 11.7941 58.1272 11.2046C58.022 10.6152 57.5346 10.3446 56.7409 10.4878L56.3198 10.5636L56.6546 12.433L57.0746 12.3562Z" fill="white"/>
<path d="M66.6341 10.1362L67.0478 14.8805L65.6341 15.0015L65.0078 7.81413L66.4205 7.69308L69.611 12.1973L69.1973 7.45308L70.611 7.33203L71.2373 14.5194L69.8247 14.6405L66.6341 10.1394V10.1362Z" fill="white"/>
<path d="M77.9653 12.9802L77.4726 14.4728L76.0537 14.1475L78.64 7.0791H79.7979L82.3842 14.1475L80.9653 14.4728L80.4853 12.9802H77.9716H77.9653ZM78.4211 11.5612H80.0074L79.2137 9.13279L78.4211 11.5612Z" fill="white"/>
<path d="M87.7609 14.5785L88.1925 8.79849L86.3936 8.66481L86.4988 7.24902L91.5104 7.62271L91.4052 9.03849L89.6062 8.90481L89.1746 14.6848L87.7588 14.5795L87.7609 14.5785Z" fill="white"/>
<path d="M97.4255 15.6454L95.9971 15.4348L97.036 8.2959L98.4644 8.50643L97.4255 15.6454Z" fill="white"/>
<path d="M109.336 14.3843C108.905 16.2349 107.367 17.8159 105.516 17.3843C103.666 16.9528 102.981 14.858 103.411 13.0054C103.84 11.1528 105.384 9.57381 107.231 10.0054C109.078 10.437 109.765 12.5359 109.336 14.3843ZM105.83 16.0275C106.918 16.2801 107.656 15.2317 107.93 14.058C108.204 12.8843 108.003 11.618 106.915 11.3654C105.828 11.1128 105.089 12.1612 104.815 13.3349C104.541 14.5085 104.745 15.7759 105.83 16.0275Z" fill="white"/>
<path d="M116.195 15.3188L114.575 19.7988L113.241 19.3156L115.694 12.5293L117.028 13.0125L118.034 18.4398L119.654 13.963L120.988 14.4461L118.535 21.2325L117.201 20.7493L116.195 15.3219V15.3188Z" fill="white"/>
<path d="M125.191 22.8638L124.048 23.9396L122.954 22.9796L128.596 17.9922L129.611 18.5427L128.517 25.9911L127.116 25.6017L127.405 24.0606L125.194 22.8627L125.191 22.8638ZM126.27 21.8332L127.665 22.5901L128.124 20.0764L126.27 21.8332Z" fill="white"/>
<path d="M136.117 30.0765L135.22 31.1765L132.254 28.7639L136.807 23.166L137.907 24.0597L134.251 28.5576L136.117 30.0744V30.0765Z" fill="white"/>
<path d="M46.6546 66.8781H36.8125V32.4697H46.6546V66.8781Z" fill="#34328F"/>
<path d="M47.3112 67.5388H36.1533V31.8125H47.3112V67.5388ZM37.4712 66.223H45.9975V33.1314H37.4712V66.223Z" fill="#007ABA"/>
<path d="M66.4984 60.6256L63.13 67.7372L53.4531 66.1877L71.0889 32.4688H78.9626L96.5952 66.1877L86.9184 67.7372L83.6394 60.6256H66.5005H66.4984ZM69.6163 53.8603H80.4447L75.0321 42.2751L69.6163 53.8603Z" fill="#34328F"/>
<path d="M86.5312 68.466L83.2185 61.285H66.9175L63.5227 68.466L52.4512 66.6966L70.6943 31.8145H79.368L97.6091 66.6966L86.5343 68.4681L86.5312 68.466ZM54.4691 65.6818L62.7533 67.0071L66.0838 59.966H84.0659L87.3143 67.0071L95.5954 65.6818L78.5733 33.1302H71.4985L54.4733 65.6818H54.4691ZM81.4806 54.5239H68.5827L75.0343 40.7239L81.4827 54.5239H81.4806ZM70.6512 53.2018H79.4069L75.0312 43.8334L70.6512 53.2018Z" fill="#007ABA"/>
<path d="M102.338 66.8781V32.4697H126.775V39.2381H112.015V46.0034H125.959V52.7718H112.015V66.8771L102.338 66.8781Z" fill="#34328F"/>
<path d="M112.674 67.5388H101.678V31.8125H127.43V39.8967H112.67V45.343H126.61V53.4272H112.67V67.5325L112.674 67.5388ZM102.997 66.223H111.355V52.1178H125.295V46.6683H111.355V38.5841H126.116V33.1346H102.997V66.223Z" fill="#007ABA"/>
<path d="M46.6546 66.8781H36.8125V32.4697H46.6546V66.8781Z" fill="white"/>
<path d="M66.4984 60.6266L63.13 67.7381L53.4531 66.1887L71.0889 32.4697H78.9626L96.5952 66.1887L86.9184 67.7381L83.6394 60.6266H66.5005H66.4984ZM69.6163 53.8613H80.4447L75.0321 42.276L69.6163 53.8613Z" fill="white"/>
<path d="M102.338 66.8781V32.4697H126.775V39.2381H112.015V46.0034H125.959V52.7718H112.015V66.8771L102.338 66.8781Z" fill="white"/>
</g>
<defs>
<clipPath id="clip0_89_812">
<rect width="160" height="100" fill="white"/>
</clipPath>
</defs>
</svg>
