<svg width="80" height="80" viewBox="0 0 80 80" fill="none" xmlns="http://www.w3.org/2000/svg">
<path d="M30.0762 14.7598C32.1982 15.3692 33.6661 17.3322 34.9355 19.3896C35.2553 19.9079 35.5655 20.4379 35.8711 20.958C36.1772 21.4789 36.4785 21.9908 36.7842 22.4785C37.3523 23.3849 37.9281 24.1928 38.5518 24.8096C39.709 23.9494 41.0565 22.5649 42.4893 21.2432C43.9677 19.8793 45.543 18.5802 47.0215 18.1533L47.1035 18.1436C47.1845 18.1477 47.2608 18.1915 47.3047 18.2637C48.5986 20.3906 49.5899 22.7585 50.668 25.2246C51.4684 24.6317 52.1693 23.9314 52.8516 23.1719C53.2277 22.7532 53.5964 22.3189 53.9746 21.877C54.352 21.436 54.7385 20.9877 55.1455 20.5439L55.1465 20.543C55.8077 19.829 56.3345 19.1976 56.7881 18.6475C57.2394 18.1001 57.6254 17.6244 57.9971 17.2373C58.3705 16.8485 58.7404 16.5358 59.168 16.3164C59.5982 16.0957 60.0742 15.9759 60.6504 15.9531C60.7222 15.9503 60.7922 15.9783 60.8418 16.0303C60.8913 16.0823 60.9164 16.1531 60.9102 16.2246L60.3359 22.7246C61.9398 22.1896 63.5459 21.23 65.0859 20.3105C65.9071 19.8203 66.7099 19.3413 67.4727 18.9561C68.2343 18.5713 68.9718 18.2719 69.6631 18.1475L69.7139 18.1436C69.7648 18.1449 69.8148 18.1615 69.8564 18.1924C69.9119 18.2336 69.9482 18.2966 69.9561 18.3652C71.865 34.9554 64.268 50.2765 53.5674 60.9248L53.5664 60.9258C52.731 61.7501 52.1524 62.3525 51.7246 62.7988C51.3008 63.241 51.0142 63.5417 50.7734 63.75C50.5231 63.9665 50.3119 64.0918 50.0352 64.1855C49.7749 64.2737 49.453 64.3344 49 64.4287C48.9174 64.4459 48.8311 64.4201 48.7715 64.3604C48.7121 64.3007 48.6869 64.2152 48.7041 64.1328C48.8581 63.4014 49.3087 62.6757 49.9424 61.915C50.5778 61.1522 51.4189 60.3287 52.3809 59.4033C54.3102 57.5474 56.7547 55.2565 59.1494 52.1328C63.8949 45.9427 68.4547 36.4636 68.2881 20.6533C66.7373 21.2849 65.255 22.1681 63.709 23.0205C62.0608 23.9293 60.3483 24.7936 58.4531 25.21C58.3747 25.2272 58.2923 25.2058 58.2324 25.1523C58.1725 25.0988 58.142 25.0193 58.1504 24.9395L58.7656 19.082C57.4239 20.374 56.0145 21.9482 54.79 23.3271L54.7881 23.3301C54.4928 23.6546 54.1753 24.0575 53.832 24.5C53.4907 24.9399 53.125 25.4172 52.7402 25.8779C51.9758 26.7933 51.1064 27.6809 50.1416 28.1143C50.0212 28.1683 49.8789 28.1197 49.8174 28.0029C49.2437 26.9133 48.7075 25.3152 48.1406 23.8818C47.854 23.1571 47.5582 22.4685 47.2412 21.8867C46.9605 21.3716 46.6713 20.9556 46.3701 20.6719C45.012 21.4142 43.741 22.6495 42.4277 23.916C41.0815 25.2143 39.6903 26.5442 38.1543 27.2949C38.0605 27.3408 37.9478 27.3238 37.8721 27.252C37.6572 27.0475 37.3628 26.6456 37.043 26.168C36.7181 25.6829 36.3523 25.0966 35.9932 24.5049C35.6338 23.9127 35.2792 23.3127 34.9775 22.7998C34.675 22.2855 34.4272 21.8617 34.2773 21.6172C33.0832 19.6916 31.9176 18.0942 30.6094 17.2715C30.1125 18.0541 29.6849 19.1274 29.3174 20.3369C28.9196 21.6462 28.5962 23.0953 28.3242 24.4668C28.051 25.8444 27.834 27.12 27.6426 28.1191C27.5478 28.6137 27.4596 29.039 27.375 29.3623C27.3328 29.5236 27.2899 29.6649 27.2461 29.7793C27.2095 29.8748 27.1621 29.9745 27.0996 30.0508C27.031 30.165 26.9272 30.2769 26.7607 30.3027C26.6037 30.327 26.4562 30.263 26.3418 30.1992C26.2198 30.1313 26.0787 30.0301 25.9199 29.9131C25.7568 29.7929 25.569 29.6513 25.3389 29.4863C24.4831 28.873 23.0626 27.9571 20.6123 27.0205L20.1084 26.833C17.5886 25.926 14.4229 25.5014 11.5752 25.791C11.9199 30.3 13.6495 36.2914 16.207 42.0791C18.8102 47.9701 22.2578 53.6195 25.9424 57.2617C27.9566 59.2541 29.7406 60.6088 31.041 61.7578C31.6847 62.3266 32.2145 62.8493 32.5723 63.3691C32.9333 63.8938 33.1301 64.4305 33.084 65.0195C33.0785 65.0894 33.0436 65.1541 32.9883 65.1973C32.933 65.2404 32.8621 65.2577 32.793 65.2461C32.157 65.1392 31.4054 64.7202 30.6309 64.1611C29.8483 63.5962 29.0115 62.8654 28.2002 62.0996C26.5819 60.572 25.0319 58.8705 24.2158 58.0449C21.938 55.7518 19.3812 52.4271 17.3115 48.7588L17.1123 48.3926C16.0612 46.3692 14.2258 41.5282 12.6553 36.6074C11.8161 33.9781 11.0492 31.3163 10.5146 29.0352C9.98279 26.7657 9.67204 24.8391 9.7666 23.6992L9.77539 23.6504C9.80665 23.5418 9.90932 23.4649 10.0264 23.4697C15.1784 23.6846 17.5722 24.04 19.5068 24.7021C20.4725 25.0327 21.3186 25.438 22.3252 25.9297C23.2713 26.3918 24.3669 26.9305 25.8535 27.5703C26.0821 25.9887 26.6534 23.5115 27.3496 21.126C27.7269 19.8331 28.142 18.5623 28.5596 17.4697C28.9755 16.3817 29.3995 15.4543 29.7998 14.8604C29.8603 14.7705 29.9721 14.73 30.0762 14.7598Z" fill="#100000" stroke="black" stroke-width="0.5" stroke-linejoin="round"/>
<path d="M46.042 24.5498C46.1471 24.5292 46.2565 24.5778 46.3096 24.6748C46.8437 25.6519 47.0636 27.0384 47.1094 28.6045C47.1553 30.1779 47.0252 31.9674 46.833 33.7725C46.6409 35.5766 46.385 37.4101 46.1787 39.0635C46.0064 40.4439 45.8705 41.6967 45.8291 42.7178C45.9828 42.5622 46.1699 42.3688 46.3857 42.1377C46.8597 41.6302 47.4627 40.965 48.1611 40.1953C49.5567 38.6573 51.3287 36.7056 53.1895 34.7803C55.0495 32.8557 57.0041 30.9519 58.7646 29.5117C59.6447 28.7918 60.4818 28.1829 61.2383 27.7451C61.989 27.3107 62.6855 27.0299 63.2793 26.9941L63.3291 26.9961C63.3786 27.003 63.4254 27.0244 63.4629 27.0586C63.5127 27.1041 63.5418 27.1679 63.5439 27.2354C63.5858 28.6045 63.0593 30.8605 62.2051 33.5312C61.347 36.214 60.1465 39.3509 58.8145 42.499C56.1531 48.7887 52.9536 55.1561 50.8975 58.0576V58.0586C50.3873 58.7748 49.1284 60.4055 47.7666 61.8594C47.086 62.5859 46.3734 63.2751 45.7119 63.7842C45.3813 64.0386 45.0576 64.2523 44.7529 64.4033C44.451 64.5529 44.1495 64.6494 43.8682 64.6494C43.7423 64.6492 43.6358 64.5556 43.6201 64.4307C43.5547 63.9087 43.6193 63.4732 43.7842 63.0986C43.9482 62.7261 44.2044 62.43 44.4971 62.1758C44.7875 61.9236 45.1243 61.7041 45.4531 61.4902C45.787 61.2731 46.1158 61.0606 46.416 60.8135C48.0003 59.4967 49.6414 57.3759 51.2373 54.7949C52.8314 52.217 54.3707 49.1944 55.7559 46.0898C58.4078 40.1459 60.4811 33.9203 61.2881 29.9551C58.9696 31.3065 55.6337 34.2537 52.4863 37.6113C49.1244 41.1979 46.0166 45.2122 44.6201 48.1826C43.8171 49.8907 43.229 51.6524 42.6475 53.1445C42.3588 53.8852 42.0712 54.5606 41.7607 55.1152C41.4521 55.6667 41.1083 56.123 40.6973 56.4023C40.6265 56.4503 40.5355 56.4589 40.457 56.4248C40.3787 56.3907 40.3229 56.3188 40.3096 56.2344C40.238 55.7773 40.0199 55.3502 40.1475 54.4004L40.1494 54.3896C40.3677 53.1845 40.8021 52.203 41.3154 51.0996C41.8294 49.9949 42.4273 48.7578 43 47.0156C44.1255 43.5915 45.1548 38.1957 45.1895 28.0713C44.7426 28.479 44.2688 29.0554 43.7861 29.7588C43.1604 30.6707 42.5314 31.7787 41.9365 32.9668C40.7465 35.3434 39.7019 38.0246 39.1006 40.0713L39.0996 40.0732C38.8444 40.9188 38.6369 42.2783 38.4551 43.8828C38.2738 45.482 38.1203 47.3053 37.9688 49.0703C37.8174 50.8326 37.6685 52.5385 37.4961 53.8955C37.4099 54.5738 37.3174 55.1704 37.2148 55.6455C37.1149 56.1086 36.9978 56.4933 36.8477 56.7197C36.8075 56.7803 36.743 56.8209 36.6709 56.8301C36.5988 56.8392 36.5257 56.8162 36.4717 56.7676C35.6298 56.0097 35.1194 54.7677 34.6963 53.498C34.264 52.2008 33.9211 50.8726 33.4248 49.8164C32.0555 46.9465 30.2971 43.7301 28.1807 40.9189C26.1655 38.2423 23.8373 35.9527 21.2295 34.666C21.9819 40.7085 25.2833 47.1966 27.8057 51.6826C30.4986 55.8071 32.767 58.2605 34.5557 59.9658C35.4553 60.8235 36.2262 61.4857 36.8887 62.0918C37.5448 62.6921 38.0902 63.2344 38.501 63.8281C38.5405 63.8854 38.5542 63.9565 38.5391 64.0244C38.5239 64.0924 38.4812 64.1515 38.4209 64.1865C37.7705 64.5639 37.0718 64.481 36.4062 64.1631C35.7469 63.8481 35.0893 63.2897 34.4717 62.6572C33.8514 62.022 33.2562 61.2955 32.7266 60.6279C32.3261 60.1231 31.9668 59.6572 31.6572 59.2822L31.3643 58.9395C28.4748 55.7147 25.4541 50.7618 23.1006 45.707C20.7489 40.656 19.0463 35.4669 18.8213 31.7686C18.8172 31.6993 18.8427 31.6313 18.8906 31.5811C18.9385 31.531 19.0049 31.5031 19.0742 31.5039C19.9455 31.5155 20.9476 31.9029 21.9639 32.4824C22.9859 33.0653 24.0506 33.8587 25.0547 34.7158C27.0593 36.427 28.8532 38.4189 29.6172 39.5605C31.0992 41.763 32.5687 44.4368 33.7559 46.6934C34.3495 47.8219 34.8748 48.8492 35.2949 49.6611C35.5499 50.1539 35.7647 50.5626 35.9326 50.8682C36.5306 47.9686 36.6622 45.9591 36.9219 43.9004C37.2017 41.682 37.6301 39.4388 38.9512 36.0449V36.0439C39.5603 34.489 40.7259 31.8692 42.0244 29.5225C42.6734 28.3495 43.3592 27.2387 44.0283 26.3613C44.6887 25.4955 45.3626 24.8156 45.9971 24.5625L46.042 24.5498Z" fill="#100000" stroke="black" stroke-width="0.5" stroke-linejoin="round"/>
</svg>
