<svg width="50" height="60" viewBox="0 0 50 60" fill="none" xmlns="http://www.w3.org/2000/svg">
<path d="M21.5869 2.77051C23.3459 0.649155 26.7344 0.0914651 28.9648 1.61035C31.234 3.15565 32.0752 6.32738 30.8516 8.76172C30.0163 10.3501 28.333 11.4506 26.5107 11.6445C26.2849 11.6687 26.084 11.7939 25.9619 11.9814L25.915 12.0654C21.0456 22.1836 20.6107 32.8714 22.1689 43.4834C22.221 43.8382 22.5178 44.1069 22.876 44.124C23.234 44.141 23.5539 43.9017 23.6396 43.5537C26.1083 33.531 31.1895 24.3722 38.5977 16.7959C38.675 16.7191 38.7309 16.6647 38.7822 16.6201C38.819 16.5882 38.8389 16.5742 38.8447 16.5703C39.197 16.3953 39.3544 15.9772 39.2051 15.6133C38.4733 13.8293 38.5718 11.8009 39.6777 10.3848C40.0185 9.99445 40.3382 9.85261 40.6445 9.85254C40.9438 9.85254 41.2144 9.67418 41.333 9.39941C41.5021 9.00764 41.735 8.71277 42.1836 8.5791L42.1885 8.57715C44.7118 7.80614 47.5726 9.03815 48.7314 11.3398L48.7344 11.3467C49.9204 13.6404 48.9574 16.4537 46.7871 17.9697C45.151 18.9354 43.23 19.0428 41.6514 18.2275C41.3983 18.0969 41.0963 18.1222 40.8701 18.2842L40.7783 18.3623L40.5576 18.5811L40.5518 18.5879C30.7091 28.585 25.1863 41.3307 24.6641 55.1846C24.6618 55.2437 24.6661 55.3033 24.6777 55.3613C24.7163 55.5529 24.7554 55.725 24.792 55.8887C24.8289 56.0535 24.8635 56.2104 24.8984 56.3838C24.8995 56.3889 24.9012 56.3943 24.9023 56.3994C25 56.8358 24.9088 57.1397 24.7168 57.4258C24.6339 57.5494 24.5898 57.6949 24.5898 57.8438V58.0625L24.585 58.1885C24.5343 58.7967 24.1119 59.1433 23.5508 59.2305C22.9042 59.3308 22.3296 59.0475 22.1318 58.5762C22.0796 58.4517 21.9947 58.3443 21.8877 58.2646L21.7734 58.1953L21.6631 58.1299C21.5894 58.0789 21.5151 58.0117 21.4326 57.918L21.3027 57.7568C15.0959 49.1972 10.2776 39.9145 6.91895 29.9805C6.83136 29.7218 6.61123 29.5343 6.34863 29.4844L6.23438 29.4717L5.88379 29.4473C4.13544 29.2605 2.40439 28.1377 1.48535 26.5557L1.48047 26.5469L1.33984 26.2979C-0.0277017 23.7115 1.12425 20.6749 3.49219 18.9111C3.49667 18.9078 3.50146 18.9048 3.50586 18.9014C3.86794 18.6188 4.13036 18.6094 4.30371 18.6533C4.50563 18.7045 4.73054 18.8669 4.91406 19.1533C5.06583 19.3901 5.33823 19.522 5.61816 19.4951C7.59826 19.3049 9.57117 20.1005 10.6064 21.7959L10.7031 21.9629C11.8457 24.0474 11.2758 26.8018 9.47461 28.335C9.24146 28.5336 9.15253 28.8541 9.25 29.1445C11.7716 36.6573 15.1817 43.7228 19.2539 50.4141C19.4433 50.7253 19.8288 50.8555 20.168 50.7227C20.5072 50.5896 20.7025 50.232 20.6299 49.875C17.9956 36.9394 17.5804 23.9692 23.1514 11.8262C23.3063 11.4882 23.1905 11.0875 22.8789 10.8848C20.9992 9.66158 19.9663 7.20858 20.7842 5.13965C20.9159 4.94344 21.048 4.74699 21.1797 4.55078C21.298 4.3744 21.336 4.15615 21.2842 3.9502C21.2018 3.62286 21.268 3.1993 21.5869 2.77051ZM8.34375 23.2529C7.7274 22.2124 6.35458 21.5057 4.89453 22.2188C4.60041 22.3347 4.32906 22.3828 4.14746 22.3828C3.83717 22.383 3.5644 22.5734 3.45215 22.8535L3.41406 22.9785C3.18333 24.0784 3.49734 25.2995 4.17871 26.1162C4.52689 26.5335 4.99717 26.8744 5.57227 27.0078C6.15669 27.1433 6.77581 27.0459 7.37695 26.7129L7.37793 26.7139C8.08563 26.3261 8.51895 25.7412 8.66309 25.0762C8.80316 24.4298 8.65542 23.7792 8.34375 23.2529ZM46.3887 12.376C45.8127 11.2571 44.4284 10.486 42.8975 11.0254C42.8734 11.0339 42.8502 11.0448 42.8271 11.0557H42.7783C42.4589 11.0558 42.1881 11.2567 42.0801 11.5381C41.3323 12.5488 41.298 13.9307 41.7959 14.9199C42.0561 15.4368 42.4883 15.8975 43.0977 16.1123C43.7161 16.3302 44.406 16.256 45.0986 15.9121L45.1074 15.9082C45.8651 15.5205 46.3641 14.9492 46.5732 14.2783C46.7794 13.617 46.6783 12.9388 46.3887 12.376ZM42.0283 11.8057V11.7939C42.0284 11.7901 42.0292 11.786 42.0293 11.7822C42.0296 11.7745 42.0298 11.7665 42.0303 11.7588C42.0308 11.751 42.0314 11.7432 42.0322 11.7354C42.0301 11.7585 42.0283 11.7819 42.0283 11.8057ZM27.5293 3.7627C26.4176 3.17545 24.8658 3.23034 23.7939 4.24609C23.6445 4.38772 23.5596 4.58515 23.5596 4.79102C23.5596 5.09368 23.5525 5.32013 23.4668 5.5332L23.4639 5.54004C23.136 6.37741 23.1805 7.17185 23.5518 7.82031C23.9111 8.44782 24.5228 8.84495 25.1602 9.02832C26.4031 9.38581 28.0877 8.9962 28.7529 7.4209L28.7578 7.40918C29.076 6.61904 29.0925 5.85941 28.8379 5.19922C28.5863 4.54703 28.0972 4.06268 27.5293 3.7627Z" stroke="black" stroke-width="1.5" stroke-linejoin="round"/>
</svg>
