<svg width="40" height="60" viewBox="0 0 40 60" fill="none" xmlns="http://www.w3.org/2000/svg">
<path fill-rule="evenodd" clip-rule="evenodd" d="M22.4795 0.036235C23.0657 -0.169797 23.417 0.551854 23.6514 0.963969C24.3547 2.30323 24.9413 3.64228 25.6446 4.98155C26.2308 6.11488 27.0516 7.24861 27.6378 8.38194C28.2239 9.41213 28.9276 10.3391 29.5137 11.3692C30.2171 12.6056 30.8035 13.8424 31.5069 15.1817C32.4447 16.9332 33.4997 18.6847 34.4376 20.5392C35.3754 22.4967 36.3133 24.3516 37.0167 26.4122C37.72 28.3697 38.3055 30.3277 38.7745 32.2853C39.1261 33.4185 39.2442 34.5515 39.3614 35.6847C39.5958 37.3332 39.7129 38.879 39.9473 40.5274C40.1817 42.5878 39.5959 44.4422 39.0098 46.3995C38.5409 47.9449 38.0716 49.5938 37.3682 51.0362C36.1959 53.3028 34.6718 55.3633 32.3272 56.8058C31.155 57.5269 29.9828 58.2482 28.9278 58.8663C28.6933 58.9693 28.4582 59.0729 28.2237 59.1759C27.1687 59.3819 26.1136 59.6905 25.0586 59.8966C24.0036 59.7936 22.9486 59.8971 21.8936 60.0001C19.3146 59.691 16.6181 59.794 14.1563 58.9698C12.6323 58.4547 10.9908 57.9391 9.58404 57.2179C7.5911 56.1876 5.83262 54.7453 4.42584 53.0968C3.60521 52.1695 2.78446 51.2423 2.1983 50.212C1.61214 49.0787 1.02553 47.8419 0.791071 46.6056C0.0877797 43.9269 -0.146505 41.145 0.0879458 38.3634C0.205183 37.0242 0.556617 35.685 0.791071 34.3458C0.908292 33.9337 0.791084 33.5211 0.908258 33.212C1.72888 30.5332 2.90186 28.0607 4.30865 25.588C5.01205 24.3516 5.71556 23.0119 6.53619 21.7755C7.12232 20.7453 7.82602 19.8179 8.52935 18.8907C9.7016 17.1393 10.8737 15.3877 12.046 13.5333C12.5149 12.8121 13.1005 12.0904 13.5694 11.3692C14.5072 9.92685 15.5632 8.48497 16.501 7.14561C17.6733 5.60018 18.8453 4.05432 20.0176 2.50889C20.252 2.09683 20.3692 1.58163 20.7208 1.27256C21.1897 0.757412 21.7761 0.242295 22.4795 0.036235ZM22.7139 4.05479C22.3623 3.53975 22.0108 3.53943 21.542 3.95127C21.3076 4.26036 21.1896 4.67246 20.9551 4.98155C19.6657 6.73294 18.3764 8.48453 17.087 10.1329C16.1491 11.3693 15.3285 12.503 14.5079 13.7394C13.6873 14.8727 12.9837 16.109 12.2803 17.2423C10.8736 19.4059 9.34922 21.4664 7.94244 23.63C6.53574 25.6905 5.2465 27.8542 4.30865 30.2237C3.60527 31.8722 2.90153 33.5211 2.66705 35.2726C2.43259 37.127 2.19838 38.9816 1.96392 41.0421C2.19836 42.3814 2.43261 43.7209 2.66705 45.1632C2.78428 45.7814 2.7842 46.4 2.90142 46.9151C3.25311 48.1515 4.19113 49.1818 5.12896 50.212C6.53576 51.6544 8.17725 52.9942 9.58404 54.4366C10.5218 55.4667 11.8112 55.879 13.1006 56.2911C14.859 56.8062 16.7348 57.2184 18.4932 57.5274C19.9 57.7335 21.4244 58.0425 22.8311 57.9396C24.3551 57.8365 25.8793 57.4239 27.4034 57.0118C27.8723 56.9088 28.3417 56.4972 28.8106 56.2911C29.8655 55.7759 30.4519 54.8482 31.3897 54.1271C33.6169 52.1696 35.1404 49.7998 36.0782 47.1212C36.5471 45.8849 36.8994 44.5455 37.0167 43.2062C37.2511 41.3516 37.3682 39.3937 37.3682 37.5392C37.3682 36.818 37.3683 36.0967 37.251 35.4786C36.7821 33.8302 36.1955 32.1818 35.7266 30.5333C35.2577 28.8849 34.9065 27.2364 34.3204 25.588C33.8515 24.2487 33.2649 22.9093 32.5616 21.673C31.1548 18.8912 29.7477 16.0065 28.2237 13.2247C27.9892 12.7096 27.2863 12.4 27.0518 11.8849C26.4657 10.8546 25.9964 9.61829 25.4102 8.58799C24.5896 7.04258 23.6518 5.60019 22.7139 4.05479ZM5.27545 41.8771C5.49524 40.2286 7.69333 38.8003 9.34185 39.5694C10.2211 40.009 11.4306 40.2288 11.8702 41.2179C12.1998 41.8772 12.5298 42.6469 12.6397 43.4161C12.8595 44.9545 12.9693 46.493 13.0792 48.0314C13.081 48.0331 13.1899 48.1417 13.2989 48.1417C13.0791 48.6911 12.8589 49.3501 12.5294 49.8995C12.0897 50.6688 11.4301 50.7795 10.5508 50.5597C8.79252 50.2299 7.69376 49.2403 6.59478 47.8116C5.16608 45.9433 4.94575 43.9652 5.27545 41.8771ZM8.24322 40.7784C7.58381 40.6685 7.25359 40.8881 6.92388 41.4376C6.48451 42.2068 6.59476 42.9761 6.59478 43.7452C6.59478 45.6136 7.36437 47.0426 8.5733 48.3614C9.01281 48.8008 9.56205 49.1305 10.1114 49.4601C10.4411 49.57 10.9912 49.6799 11.211 49.4601C11.6504 49.0205 11.8702 48.4709 11.6504 47.8116C11.5406 46.8226 11.4308 45.7235 11.211 44.7345C11.211 44.2949 11.3209 43.8552 11.211 43.5255C10.9912 42.5364 10.9908 41.4372 9.67193 41.1075C9.23236 40.9976 8.79266 40.8883 8.24322 40.7784ZM13.8272 19.8829C14.4866 20.1027 15.475 21.202 15.3653 21.8614C15.2554 22.8506 15.0358 23.8401 14.7061 24.8292C14.1566 26.4776 13.6071 28.1261 13.2774 29.7745C12.7279 31.8627 12.3985 34.0608 12.3985 36.2589C12.5083 36.9182 11.6292 37.5771 10.5303 37.5773C9.76101 37.4674 8.88123 37.3581 8.00201 37.2481C6.90312 37.0282 5.91421 35.7094 5.91412 34.6105C5.91412 31.7531 6.90344 29.3353 8.33209 27.0274C9.65091 24.9393 10.9693 22.9603 12.2881 20.8722C12.6178 20.3227 12.948 19.773 13.8272 19.8829ZM13.9366 21.422C13.7168 21.4221 13.3872 21.5319 13.2774 21.6417C12.9477 22.0813 12.6178 22.6308 12.2881 23.0704C11.299 24.7189 10.4198 26.2578 9.43072 27.9064C8.33177 29.6647 7.67252 31.643 7.34283 33.6212C6.90323 35.9291 7.45286 36.3687 9.7608 36.4786C10.9695 36.4786 11.2988 36.3687 11.2989 35.38C11.2989 34.5008 11.2998 33.6211 11.5196 32.6319C12.0691 30.3242 12.6186 27.9065 13.168 25.5987C13.4977 24.3899 13.8266 23.1806 14.1563 21.9718C14.1563 21.8619 14.0465 21.422 13.9366 21.422Z" fill="black"/>
</svg>
