<svg width="66" height="60" viewBox="0 0 66 60" fill="none" xmlns="http://www.w3.org/2000/svg">
<path d="M31.7279 54.213C28.138 53.4298 24.8275 51.6887 22.148 49.1745C21.6956 48.6705 21.2803 48.1344 20.9054 47.5704C20.9032 47.5302 20.8891 47.4916 20.865 47.4594C20.8409 47.4272 20.8077 47.403 20.7698 47.3896C19.2113 44.8381 18.2604 41.9623 17.9907 38.9846C20.646 38.4442 23.2529 37.6885 25.7857 36.7253C25.9203 36.6849 26.0442 36.6152 26.1486 36.5211C26.253 36.427 26.3351 36.3109 26.3892 36.1812C26.4432 36.0515 26.4678 35.9114 26.4611 35.7711C26.4544 35.6307 26.4166 35.4936 26.3505 35.3696C25.0852 32.8391 22.0351 31.2349 20.0694 29.2241C17.0555 26.5665 14.5517 23.3813 12.6812 19.825C12.5874 19.6657 12.4536 19.5336 12.2931 19.4419C12.1326 19.3501 11.951 19.3019 11.7661 19.3019C11.5812 19.3019 11.3996 19.3501 11.2391 19.4419C11.0786 19.5336 10.9448 19.6657 10.851 19.825C9.58032 23.1366 8.01506 26.3277 6.1741 29.3596C4.20842 32.1613 2.10718 34.8725 0.209289 37.6742C0.137569 37.7597 0.0982558 37.8677 0.0982558 37.9792C0.0982558 38.0908 0.137569 38.1988 0.209289 38.2842C0.122236 38.3721 0.059194 38.4809 0.0261949 38.6001C-0.00680413 38.7194 -0.00865647 38.8451 0.0208148 38.9652C0.0502861 39.0854 0.110095 39.196 0.19452 39.2864C0.278946 39.3768 0.385163 39.4441 0.503011 39.4817C3.44023 40.2047 6.55819 38.9847 9.5406 38.8717C9.06612 44.0005 9.42763 49.8749 13.359 53.2414C15.8536 55.2634 18.8242 56.6135 21.988 57.1632C25.1518 57.7129 28.4036 57.444 31.4342 56.382C31.542 56.3326 31.6287 56.2462 31.6784 56.1384C31.7281 56.0307 31.7376 55.9087 31.7053 55.7946C31.8835 55.7544 32.043 55.6555 32.1581 55.5136C32.2732 55.3718 32.3372 55.1953 32.3399 55.0127C32.3425 54.83 32.2835 54.6518 32.1725 54.5067C32.0615 54.3617 31.9049 54.2582 31.7279 54.213ZM14.6016 51.7728C10.4444 48.2482 10.8285 40.8599 10.964 35.7763C10.964 35.1663 9.99248 35.0081 9.87951 35.6407C9.76654 36.2734 9.69876 36.8834 9.63097 37.5386C8.34575 37.4221 7.05263 37.4221 5.76741 37.5386C4.59252 37.5386 3.37244 37.6516 2.17496 37.7872C4.13141 36.0641 5.7749 34.0155 7.03267 31.732C8.33138 30.0771 9.52373 28.3414 10.6025 26.5354C11.1923 25.2587 11.654 23.9267 11.9807 22.5588L12.5682 23.3722C12.1375 24.6819 11.7903 26.0177 11.5289 27.3713C11.5289 27.6651 11.8678 27.891 12.0485 27.5973C12.5848 26.4993 12.9505 25.326 13.133 24.1178L13.6979 24.8634C13.4494 25.5638 13.2008 26.2642 12.9975 27.1228C12.737 27.8546 12.5552 28.612 12.4552 29.3822C12.4516 29.4347 12.4664 29.4868 12.497 29.5295C12.5277 29.5722 12.5723 29.6029 12.6231 29.6163C12.674 29.6297 12.7279 29.6249 12.7756 29.6028C12.8233 29.5807 12.8618 29.5426 12.8845 29.4952C13.5212 28.2178 13.9412 26.8434 14.1272 25.4283L14.4887 25.8801C14.3305 27.6199 12.9975 29.3144 13.1556 31.0542C13.1695 31.094 13.1955 31.1286 13.2299 31.1531C13.2643 31.1775 13.3055 31.1907 13.3477 31.1907C13.3899 31.1907 13.4311 31.1775 13.4655 31.1531C13.4999 31.1286 13.5259 31.094 13.5397 31.0542C13.9514 30.2023 14.2695 29.3084 14.4887 28.3881C14.694 27.7543 14.8452 27.1043 14.9406 26.445L15.415 27.0324C15.3862 27.0435 15.3607 27.0618 15.3409 27.0855C15.3211 27.1092 15.3077 27.1376 15.3021 27.168C14.7574 28.5648 14.4814 30.052 14.4887 31.5512C14.4887 31.8675 15.0083 31.8224 15.0761 31.5512C15.5171 30.2061 15.7755 28.8078 15.8443 27.3939L16.5447 28.1847C15.9377 29.5039 15.5632 30.918 15.4376 32.3646C15.4281 32.4246 15.4408 32.486 15.4735 32.5372C15.5061 32.5884 15.5564 32.6259 15.6148 32.6426C15.6732 32.6593 15.7357 32.654 15.7905 32.6278C15.8452 32.6016 15.8885 32.5562 15.9121 32.5002C16.4703 31.2932 16.8289 30.0037 16.974 28.6818L17.4711 29.1563C17.4203 29.1649 17.3734 29.1891 17.337 29.2255C17.3006 29.262 17.2764 29.3088 17.2677 29.3596C16.857 30.3768 16.6795 31.4731 16.7481 32.568C16.7652 32.6012 16.7911 32.629 16.823 32.6484C16.8549 32.6679 16.8915 32.6782 16.9288 32.6782C16.9662 32.6782 17.0028 32.6679 17.0347 32.6484C17.0666 32.629 17.0925 32.6012 17.1096 32.568C17.5816 31.6292 17.8218 30.591 17.81 29.5404L18.42 30.0826C17.9925 31.0066 17.8434 32.0351 17.9907 33.0424C18.013 33.096 18.0507 33.1417 18.0989 33.1739C18.1472 33.206 18.2039 33.2232 18.2619 33.2232C18.3199 33.2232 18.3765 33.206 18.4248 33.1739C18.473 33.1417 18.5107 33.096 18.533 33.0424C18.7404 32.233 18.8914 31.4101 18.9849 30.5797L19.6853 31.1671C19.6853 32.1161 19.4819 33.0198 19.5045 33.9462C19.5045 34.0181 19.5331 34.0871 19.5839 34.1379C19.6348 34.1888 19.7038 34.2173 19.7757 34.2173C19.8476 34.2173 19.9165 34.1888 19.9674 34.1379C20.0182 34.0871 20.0468 34.0181 20.0468 33.9462C20.3085 33.2235 20.4087 32.4523 20.3405 31.6868L20.9506 32.1839C20.6874 32.9062 20.5871 33.6777 20.6568 34.4433C20.6568 34.6692 21.0635 34.6692 21.1087 34.4433C21.1087 33.8106 21.1087 33.178 21.3346 32.568C22.3121 33.3642 23.1986 34.2659 23.9781 35.2566C21.8097 35.5418 19.7159 36.2398 17.81 37.3127C17.81 36.4541 17.81 35.5956 17.81 34.737C17.7905 34.664 17.7538 34.5968 17.7031 34.5409C17.6523 34.4849 17.589 34.4419 17.5182 34.4154C17.4475 34.3889 17.3715 34.3796 17.2965 34.3884C17.2215 34.3972 17.1497 34.4237 17.087 34.4659C17.0374 34.4308 16.9782 34.412 16.9175 34.412C16.8568 34.412 16.7976 34.4308 16.7481 34.4659C15.9121 35.7537 14.9857 36.9738 14.1724 38.2616C14.0142 38.5102 14.3531 38.7361 14.5565 38.5554C15.4592 37.7527 16.2226 36.806 16.8159 35.7537C16.7405 36.3412 16.6878 36.9286 16.6577 37.516C16.2736 38.1261 15.9121 38.7361 15.5506 39.3687C15.0227 40.0362 14.6382 40.8054 14.4209 41.6281C14.4209 41.7637 14.6016 41.7863 14.6694 41.6281C15.1891 40.9277 15.7539 40.3177 16.2058 39.5495L16.6351 38.8039C16.6351 39.2558 16.6351 39.6851 16.6351 40.1369C16.6351 40.5888 16.251 40.8374 16.0703 41.1537C15.5648 41.9539 15.1553 42.8108 14.8502 43.7068C14.834 43.7702 14.8413 43.8373 14.8707 43.8957C14.9001 43.9541 14.9497 44 15.0102 44.0247C15.0708 44.0495 15.1382 44.0515 15.2002 44.0305C15.2621 44.0094 15.3143 43.9667 15.3472 43.9101C15.8443 43.0968 16.2962 42.2382 16.7481 41.3796C16.8294 42.01 16.9425 42.6359 17.087 43.2549L16.7481 44.1135C16.5673 44.5654 16.3188 44.9946 16.1606 45.4465C16.0025 45.8984 16.1606 46.034 15.9799 46.3051C15.9727 46.3292 15.9713 46.3548 15.9759 46.3795C15.9806 46.4043 15.9911 46.4276 16.0066 46.4475C16.022 46.4674 16.042 46.4833 16.0649 46.4939C16.0878 46.5045 16.1129 46.5095 16.138 46.5084C16.7255 46.5084 16.9966 45.3561 17.1548 44.9946C17.3129 44.6331 17.2903 44.6105 17.3807 44.4298C17.3807 44.7235 17.5841 44.9946 17.697 45.2884C17.2671 46.1377 17.028 47.0708 16.9966 48.0222C17.0105 48.0621 17.0364 48.0967 17.0708 48.1211C17.1053 48.1456 17.1464 48.1587 17.1887 48.1587C17.2309 48.1587 17.2721 48.1456 17.3065 48.1211C17.3409 48.0967 17.3668 48.0621 17.3807 48.0222C17.7162 47.5226 17.9893 46.9839 18.1941 46.4181C18.42 46.8925 18.646 47.367 18.9171 47.8415C18.7698 48.3551 18.7314 48.8938 18.8041 49.4231C18.8041 49.6716 19.1882 49.6264 19.256 49.4231C19.3238 49.2197 19.4142 48.9486 19.4819 48.7001C19.6627 48.9712 19.8434 49.2649 20.0468 49.536C19.9811 49.9325 19.9811 50.3371 20.0468 50.7335C20.0626 50.7841 20.0941 50.8283 20.1368 50.8597C20.1795 50.891 20.2311 50.908 20.284 50.908C20.337 50.908 20.3886 50.891 20.4313 50.8597C20.4739 50.8283 20.5055 50.7841 20.5213 50.7335C20.5213 50.5528 20.5213 50.372 20.5213 50.1913C20.7698 50.485 21.0409 50.7787 21.3346 51.0498C21.1786 51.6116 21.1786 52.2052 21.3346 52.767C21.3581 52.8257 21.3986 52.876 21.451 52.9115C21.5034 52.9469 21.5651 52.9659 21.6284 52.9659C21.6916 52.9659 21.7534 52.9469 21.8057 52.9115C21.8581 52.876 21.8986 52.8257 21.9221 52.767C22.0188 52.4576 22.0869 52.1399 22.1254 51.818L22.6677 52.2247C22.6677 52.9025 22.6677 53.6029 23.097 53.9419C23.1335 53.9606 23.1742 53.9701 23.2153 53.9693C23.2563 53.9685 23.2966 53.9576 23.3324 53.9374C23.3682 53.9173 23.3985 53.8886 23.4205 53.8538C23.4425 53.8191 23.4556 53.7795 23.4585 53.7385C23.4585 53.4448 23.4585 53.1285 23.4585 52.8348C23.9104 53.1511 24.3848 53.4448 24.8593 53.7159C24.8593 53.7159 24.8593 53.9193 24.8593 54.0322C24.8593 54.1452 25.1756 54.2808 25.2434 54.0322V53.8741C26.2574 54.4194 27.325 54.8586 28.4292 55.1845C23.6618 55.3653 18.5556 55.1167 14.6016 51.7728Z" fill="#100000"/>
<path d="M34.8235 23.1688C37.0377 23.1705 39.2367 22.804 41.3306 22.0843C45.7364 21.2935 51.0008 20.2316 55.4292 21.2483C55.6326 21.3039 55.848 21.2977 56.0478 21.2305C56.2476 21.1633 56.4229 21.0381 56.5514 20.8709C56.6798 20.7037 56.7556 20.502 56.769 20.2916C56.7824 20.0812 56.7329 19.8715 56.6267 19.6894C55.9037 18.3789 54.8418 17.43 54.051 16.1195C53.0815 14.2674 52.3236 12.312 51.7916 10.2903C50.7071 7.12711 49.7582 3.87358 48.6285 0.755613C48.5576 0.686477 48.472 0.634296 48.3781 0.60299C48.2842 0.571685 48.1844 0.562067 48.0862 0.574861C48.0572 0.451745 47.9974 0.338019 47.9124 0.244383C47.8274 0.150747 47.72 0.0802782 47.6002 0.0396054C47.4804 -0.00106749 47.3523 -0.0106075 47.2278 0.0118832C47.1034 0.0343738 46.9867 0.0881557 46.8887 0.168169C44.6293 1.97569 43.7708 5.31959 42.144 7.75974C41.3084 7.00607 40.4336 6.29714 39.5231 5.63591C39.5196 5.57276 39.5015 5.51129 39.4701 5.45638C39.4387 5.40147 39.395 5.35463 39.3423 5.31959C39.3143 5.30566 39.2833 5.29841 39.252 5.29841C39.2206 5.29841 39.1897 5.30566 39.1616 5.31959C36.2913 3.03981 32.6742 1.91198 29.0169 2.15644C25.7898 2.87663 22.809 4.43329 20.374 6.67006C17.9389 8.90684 16.1353 11.745 15.1442 14.8994C15.1052 15.0316 15.1158 15.1734 15.1741 15.2982C15.2323 15.423 15.3342 15.5223 15.4605 15.5773C15.3493 15.7432 15.3049 15.945 15.3364 16.1423C15.3679 16.3396 15.4729 16.5176 15.6303 16.6406C15.7876 16.7637 15.9857 16.8226 16.1848 16.8056C16.3838 16.7885 16.569 16.6968 16.7032 16.5488C19.8609 13.7756 23.8507 12.1305 28.0454 11.8718C31.2406 12.0043 34.35 12.9449 37.0829 14.6057C35.9407 17.0569 34.9962 19.5955 34.2587 22.1973C34.2334 22.3987 34.2749 22.603 34.377 22.7785C34.479 22.954 34.6359 23.0912 34.8235 23.1688ZM41.0369 16.0291C34.5524 9.25095 24.3851 7.71456 17.2003 13.7697C18.7846 11.399 20.6679 9.24238 22.8036 7.35305C22.7955 7.91341 22.8409 8.47327 22.9391 9.025C22.9602 9.07338 22.995 9.11455 23.0391 9.14346C23.0833 9.17237 23.1349 9.18778 23.1877 9.18778C23.2404 9.18778 23.2921 9.17237 23.3362 9.14346C23.3803 9.11455 23.4151 9.07338 23.4362 9.025C23.5201 8.27421 23.5201 7.5164 23.4362 6.76561L24.3399 6.11038C24.1548 7.08063 24.2489 8.08348 24.6111 9.00241C24.6228 9.03177 24.6431 9.05694 24.6692 9.07467C24.6954 9.09239 24.7263 9.10187 24.7579 9.10187C24.7895 9.10187 24.8204 9.09239 24.8466 9.07467C24.8728 9.05694 24.8931 9.03177 24.9048 9.00241C25.0801 8.37813 25.1262 7.72464 25.0404 7.08192C25.0404 6.58486 25.0404 6.11038 25.0404 5.61332L25.786 5.22922C25.786 5.59072 25.786 5.95223 25.786 6.33632C25.6483 6.9011 25.6958 7.49516 25.9215 8.03087C25.9215 8.18903 26.3282 8.18903 26.3734 8.03087C26.5208 7.02118 26.5587 5.99851 26.4864 4.98068L27.4579 4.57399C27.2247 5.59627 27.1712 6.65133 27.2998 7.69196C27.3155 7.74253 27.3471 7.78672 27.3898 7.81811C27.4324 7.84949 27.484 7.86642 27.537 7.86642C27.59 7.86642 27.6416 7.84949 27.6842 7.81811C27.7269 7.78672 27.7584 7.74253 27.7742 7.69196C27.9538 6.95033 28.0672 6.19424 28.1131 5.43256C28.1131 5.04847 28.1131 4.66437 28.2261 4.30287L28.8136 4.14471C28.5445 5.16662 28.5445 6.24077 28.8136 7.26268C28.8136 7.30462 28.8302 7.34485 28.8599 7.37451C28.8895 7.40417 28.9298 7.42083 28.9717 7.42083C29.0137 7.42083 29.0539 7.40417 29.0835 7.37451C29.1132 7.34485 29.1299 7.30462 29.1299 7.26268C29.2844 6.61199 29.3378 5.94135 29.288 5.27441C29.288 4.84512 29.288 4.43843 29.401 4.00914H30.3499C30.0621 5.09957 29.9327 6.22576 29.9658 7.35305C29.9658 7.60159 30.3951 7.57899 30.4403 7.35305C30.6469 6.23302 30.7828 5.10108 30.847 3.96396C31.1555 3.94538 31.4649 3.94538 31.7734 3.96396C31.4551 4.95536 31.3248 5.99749 31.3893 7.03674C31.3893 7.26268 31.7508 7.24008 31.8185 7.03674C31.9993 6.4267 31.9993 5.79407 32.1349 5.16144C32.2704 4.52881 32.293 4.39324 32.3608 4.00914C32.6319 4.00914 32.9257 4.1673 33.2194 4.25768C32.9934 5.21607 32.9934 6.2139 33.2194 7.1723C33.2322 7.20689 33.2553 7.23673 33.2856 7.25779C33.3159 7.27886 33.3519 7.29015 33.3888 7.29015C33.4257 7.29015 33.4617 7.27886 33.492 7.25779C33.5223 7.23673 33.5454 7.20689 33.5583 7.1723C33.7184 6.50661 33.7943 5.82345 33.7842 5.13884C33.7842 4.9129 33.7842 4.66437 33.7842 4.43843L34.5976 4.75475C34.2457 5.63618 34.1365 6.59583 34.2813 7.5338C34.2962 7.57901 34.3249 7.61837 34.3634 7.64627C34.402 7.67417 34.4484 7.68919 34.4959 7.68919C34.5435 7.68919 34.5899 7.67417 34.6284 7.64627C34.667 7.61837 34.6957 7.57901 34.7106 7.5338C34.7855 6.66814 34.9137 5.80794 35.0947 4.95809L35.411 5.09365C35.0004 5.99331 34.7995 6.97447 34.8235 7.96309C34.8235 8.23422 35.2754 8.18903 35.3432 7.96309C35.5917 7.14971 35.8403 6.24595 36.021 5.36478L36.4503 5.59072C35.9774 6.45182 35.7877 7.43997 35.9081 8.41497C35.9229 8.46017 35.9517 8.49953 35.9902 8.52743C36.0287 8.55534 36.0751 8.57036 36.1227 8.57036C36.1703 8.57036 36.2167 8.55534 36.2552 8.52743C36.2937 8.49953 36.3225 8.46017 36.3373 8.41497C36.5181 7.78234 36.4955 7.14971 36.6988 6.51708C36.6988 6.31373 36.857 6.08779 36.9474 5.86185L37.7156 6.29114C37.4004 7.16734 37.1881 8.0772 37.0829 9.00241C37.0829 9.31873 37.4896 9.31873 37.58 9.00241C37.8992 8.21231 38.1487 7.39582 38.3256 6.56226L38.8001 6.85598L38.5516 7.44343C38.2148 8.08947 38.0735 8.81962 38.1449 9.54467C38.1606 9.59523 38.1922 9.63943 38.2349 9.67081C38.2775 9.7022 38.3291 9.71912 38.3821 9.71912C38.4351 9.71912 38.4867 9.7022 38.5293 9.67081C38.572 9.63943 38.6035 9.59523 38.6193 9.54467C38.8905 8.79906 39.1164 7.98568 39.3423 7.28527L39.9072 7.69196C39.2721 8.75032 39.017 9.99369 39.1842 11.2166C39.1842 11.2646 39.2032 11.3105 39.2371 11.3444C39.271 11.3783 39.317 11.3974 39.3649 11.3974C39.4129 11.3974 39.4588 11.3783 39.4927 11.3444C39.5266 11.3105 39.5457 11.2646 39.5457 11.2166C39.9072 10.1547 39.9298 8.95722 40.2687 7.9405L41.2402 8.64091C40.553 9.93441 40.0799 11.3307 39.8394 12.7756C39.8377 12.8183 39.8496 12.8605 39.8732 12.8961C39.8969 12.9317 39.9312 12.9589 39.9712 12.9739C40.0112 12.989 40.055 12.991 40.0962 12.9797C40.1374 12.9684 40.1741 12.9445 40.2009 12.9112C40.5526 12.3491 40.7763 11.7166 40.8561 11.0585C41.0821 10.3355 41.3758 9.63504 41.6469 8.93463L42.7992 9.83839C42.0183 10.9081 41.4997 12.1464 41.2854 13.4534C41.2879 13.4918 41.3002 13.5289 41.321 13.5612C41.3419 13.5936 41.3706 13.62 41.4046 13.6381C41.4385 13.6562 41.4765 13.6654 41.515 13.6647C41.5534 13.664 41.5911 13.6535 41.6243 13.6342C42.2344 13.3179 42.4151 12.3463 42.6637 11.7815L43.3189 10.2451L43.7708 10.6066C44.313 11.0359 45.036 10.358 44.539 9.83839L43.8159 9.11538C43.8243 9.07504 43.8225 9.03326 43.8107 8.9938C43.7989 8.95434 43.7774 8.91843 43.7483 8.8893C43.7192 8.86018 43.6833 8.83875 43.6438 8.82694C43.6043 8.81513 43.5626 8.81332 43.5222 8.82166L43.2511 8.55053C44.0977 7.56612 44.8539 6.50746 45.5105 5.38738C46.0979 4.41584 46.8209 3.4217 47.4084 2.40497C47.3964 2.95704 47.4343 3.50905 47.5214 4.05433C46.8661 5.11625 46.0979 6.0652 45.3749 7.10452C45.262 7.26268 45.3749 7.48862 45.6461 7.37565C46.4393 6.75818 47.0936 5.98066 47.5665 5.09365C47.5665 5.43256 47.7247 5.74888 47.8377 6.08779C47.3858 6.72042 46.9113 7.35305 46.482 8.00828C45.962 8.60955 45.5837 9.3199 45.3749 10.0869C45.3749 10.2903 45.6461 10.3355 45.7364 10.0869C46.482 8.95722 47.318 7.82752 47.9958 6.76561L48.3799 7.35305L47.0695 9.4091C46.6591 10.1378 46.2968 10.8925 45.985 11.6685C45.946 11.7164 45.9277 11.7779 45.9341 11.8393C45.9404 11.9008 45.9709 11.9572 46.0189 11.9961C46.0668 12.0351 46.1282 12.0534 46.1897 12.047C46.2511 12.0407 46.3075 12.0102 46.3465 11.9622C46.8964 11.3514 47.3463 10.6575 47.6795 9.90617C48.041 9.31873 48.3573 8.73128 48.6962 8.14384L48.9674 8.82166L47.8377 11.0811C47.3271 11.8093 47.0156 12.6582 46.9339 13.5438C46.9396 13.5942 46.9605 13.6416 46.9938 13.6797C47.0272 13.7179 47.0715 13.7449 47.1206 13.7572C47.1698 13.7695 47.2215 13.7665 47.2689 13.7485C47.3163 13.7306 47.3571 13.6986 47.3858 13.6568C48.1142 12.3913 48.7558 11.0778 49.3063 9.72542L49.5548 10.4032C49.2611 11.2166 48.877 11.9848 48.5155 12.7756C48.1995 13.3224 48.0068 13.9315 47.9506 14.5605C47.9506 14.7639 48.2444 14.9446 48.4025 14.7413C48.8184 14.1145 49.1383 13.4291 49.3515 12.7078C49.5322 12.2785 49.713 11.8493 49.8937 11.42L50.2778 12.5723C49.6052 13.5608 49.1932 14.7032 49.0803 15.8936C49.0803 15.9415 49.0994 15.9875 49.1333 16.0214C49.1672 16.0553 49.2132 16.0743 49.2611 16.0743C49.309 16.0743 49.355 16.0553 49.3889 16.0214C49.4228 15.9875 49.4418 15.9415 49.4418 15.8936C49.8828 15.0647 50.2605 14.2037 50.5715 13.3179C50.5715 13.5438 50.7523 13.7471 50.8201 13.9731C50.5307 14.5132 50.2961 15.0809 50.1197 15.6676C50.1078 15.6884 50.1001 15.7113 50.0971 15.735C50.0941 15.7588 50.0958 15.7829 50.1021 15.8059C50.1084 15.829 50.1192 15.8506 50.1338 15.8695C50.1484 15.8885 50.1667 15.9043 50.1874 15.9162C50.2082 15.928 50.2311 15.9357 50.2548 15.9387C50.2786 15.9417 50.3027 15.94 50.3258 15.9337C50.3488 15.9275 50.3704 15.9167 50.3894 15.902C50.4083 15.8874 50.4241 15.8692 50.436 15.8484C50.756 15.5369 50.9896 15.1476 51.1138 14.7187V14.9672C50.6574 15.6281 50.442 16.4258 50.5038 17.2266C50.5249 17.275 50.5596 17.3162 50.6037 17.3451C50.6479 17.374 50.6995 17.3894 50.7523 17.3894C50.8051 17.3894 50.8567 17.374 50.9008 17.3451C50.945 17.3162 50.9797 17.275 51.0008 17.2266C51.2255 16.7568 51.3997 16.2645 51.5205 15.758L51.8368 16.3003C51.6581 16.8511 51.5369 17.419 51.4753 17.9948C51.4753 18.3789 51.995 18.4015 52.1079 17.9948C52.2176 17.692 52.3082 17.3826 52.3791 17.0685C52.8309 17.7011 53.3054 18.3111 53.7799 18.9438C50.5979 18.9189 47.4185 19.1304 44.2678 19.5764C41.6888 20.2672 39.0708 20.8029 36.4277 21.1806C37.4643 19.258 38.131 17.1582 38.3934 14.9898C39.139 15.4643 39.862 15.9614 40.6528 16.481C41.4436 17.0007 41.4662 16.3906 41.1273 16.1195L41.0369 16.0291Z" fill="#100000"/>
<path d="M59.3163 23.7111C58.9096 22.8526 57.6896 23.4852 57.8477 24.3212C58.9329 28.4528 58.5659 32.8318 56.8084 36.7252C55.1892 39.4995 52.9068 41.8286 50.1658 43.5034C48.5348 41.3613 46.7367 39.3517 44.7884 37.4934C44.6868 37.3986 44.5656 37.3272 44.4333 37.2843C44.3011 37.2415 44.1611 37.2282 44.0231 37.2454C43.8852 37.2627 43.7527 37.31 43.6351 37.3841C43.5174 37.4582 43.4175 37.5572 43.3424 37.6742C42.3072 39.7523 41.5984 41.9776 41.2412 44.2716C39.9081 48.3837 38.4847 53.3092 35.6379 56.6079C35.4915 56.7564 35.392 56.9447 35.3519 57.1493C35.3118 57.3539 35.3328 57.5658 35.4123 57.7585C35.4918 57.9513 35.6263 58.1164 35.799 58.2332C35.9717 58.35 36.175 58.4134 36.3835 58.4155C37.8747 58.4155 39.2303 57.8958 40.7441 57.7828C43.2813 57.7845 45.8112 58.0572 48.2905 58.5962C51.2051 59.0029 54.0519 59.6129 56.944 59.997C57.0636 60.008 57.1842 59.9889 57.2946 59.9416C57.4051 59.8942 57.502 59.8201 57.5766 59.7259C57.6985 59.7587 57.8267 59.76 57.9492 59.7297C58.0718 59.6995 58.1846 59.6386 58.2772 59.5528C58.3697 59.467 58.439 59.3591 58.4785 59.2392C58.518 59.1193 58.5264 58.9914 58.503 58.8673C58.0491 57.3115 57.28 55.8656 56.2436 54.6197C55.5657 53.6029 54.8879 52.6088 54.2779 51.5695C54.2779 51.5695 54.2779 51.4113 54.2779 51.3435C54.2075 51.2906 54.1318 51.2452 54.0519 51.208C58.5707 49.4908 63.3607 46.6892 64.9422 42.1704C65.819 38.9732 65.8357 35.6011 64.9906 32.3953C64.1456 29.1896 62.4687 26.264 60.1297 23.9145C60.0902 23.8472 60.0376 23.7884 59.9751 23.7417C59.9126 23.6949 59.8414 23.6611 59.7657 23.6421C59.69 23.6232 59.6112 23.6195 59.5341 23.6314C59.4569 23.6432 59.3829 23.6703 59.3163 23.7111ZM60.446 29.5404C60.4477 28.4866 60.3494 27.435 60.1523 26.3998C60.4686 26.9872 60.7624 27.5973 61.0787 28.2073L60.6042 29.2241L60.446 29.5404ZM56.1984 58.0314C53.8561 57.0628 51.3644 56.5048 48.8327 56.382C46.9123 56.0883 45.0144 55.6364 43.0713 55.5008C41.4318 55.475 39.7947 55.6342 38.191 55.9753C39.6349 53.3204 40.8664 50.5553 41.8738 47.7059C42.5079 44.9465 43.3154 42.2299 44.2914 39.5721C45.5012 41.3482 47.034 42.8811 48.8101 44.0909C48.0645 44.5202 47.2963 44.9269 46.5507 45.311C45.8051 45.6951 46.4152 46.2599 46.8897 46.1243C49.4984 45.4604 51.9349 44.2459 54.0354 42.5624C56.1359 40.8789 57.8518 38.7653 59.0678 36.3637C59.8888 34.4936 60.3488 32.4851 60.4234 30.4441C60.4653 30.4659 60.5118 30.4773 60.559 30.4773C60.6062 30.4773 60.6527 30.4659 60.6946 30.4441C61.0006 30.0144 61.2582 29.5522 61.4628 29.0659C61.6887 29.5479 61.8996 30.0374 62.0954 30.5345C61.7113 31.2349 61.3046 31.9127 60.9205 32.5906C60.8905 32.6295 60.8773 32.6788 60.8836 32.7275C60.89 32.7762 60.9155 32.8204 60.9544 32.8504C60.9934 32.8803 61.0426 32.8936 61.0913 32.8872C61.1401 32.8809 61.1843 32.8554 61.2142 32.8165C61.6746 32.3802 62.077 31.8866 62.4117 31.3479C62.5473 31.7094 62.6753 32.0709 62.7958 32.4324L61.9598 33.4491C61.4176 34.0818 60.7398 34.5562 60.2201 35.2115C60.1071 35.3696 60.2201 35.5504 60.4686 35.46C61.4472 34.8733 62.3058 34.1067 62.9992 33.2006C63.1046 33.5772 63.2025 33.9537 63.2929 34.3303C62.8016 34.9558 62.2573 35.5379 61.6661 36.07C61.0966 36.4878 60.5872 36.982 60.1523 37.5386C60.1311 37.5732 60.1222 37.614 60.127 37.6543C60.1318 37.6946 60.15 37.7321 60.1787 37.7608C60.2074 37.7895 60.2449 37.8077 60.2852 37.8125C60.3255 37.8173 60.3662 37.8084 60.4008 37.7872C61.5454 37.0201 62.5663 36.0829 63.4284 35.0081C63.5188 35.475 63.5866 35.942 63.6318 36.4089C63.017 37.0958 62.3187 37.703 61.5531 38.2164C60.7691 38.5891 60.0139 39.0196 59.2937 39.5043C59.1582 39.6399 59.2937 39.9336 59.4519 39.911C61.1261 39.525 62.6126 38.5659 63.6544 37.1997C63.6759 37.6212 63.6759 38.0435 63.6544 38.465C63.6125 38.4432 63.566 38.4318 63.5188 38.4318C63.4716 38.4318 63.4251 38.4432 63.3833 38.465C62.1704 39.6697 60.7252 40.6152 59.1356 41.244C59.0879 41.2755 59.0514 41.3212 59.0312 41.3747C59.0111 41.4281 59.0083 41.4866 59.0234 41.5417C59.0384 41.5968 59.0704 41.6457 59.1149 41.6815C59.1594 41.7174 59.2141 41.7382 59.2711 41.7411C60.9947 41.4727 62.5485 40.5502 63.6092 39.1654C63.6092 39.4817 63.6092 39.798 63.4284 40.1143C62.2803 41.2513 60.9519 42.1903 59.4971 42.8934C59.3615 42.8934 59.3615 43.2323 59.4971 43.2549C60.1595 43.2585 60.8137 43.1095 61.4093 42.8196C62.0048 42.5296 62.5256 42.1065 62.9314 41.5829C62.8003 41.9229 62.6494 42.2548 62.4795 42.5771C62.1651 43.1405 61.7941 43.6704 61.3724 44.1587L60.446 44.4976C60.2653 44.4976 60.446 44.9043 60.5816 44.8365H60.8075C60.559 45.085 60.3331 45.3335 60.0619 45.5821H58.7967C58.7248 45.5821 58.6558 45.6106 58.605 45.6615C58.5541 45.7123 58.5255 45.7813 58.5255 45.8532C58.5255 45.9251 58.5541 45.9941 58.605 46.0449C58.6558 46.0958 58.7248 46.1243 58.7967 46.1243H59.3163L59.0678 46.3277C58.1203 46.0316 57.1427 45.8422 56.1532 45.7628C55.7691 45.7628 55.7691 46.3277 56.1532 46.3729C56.8988 46.3729 57.6218 46.6666 58.4126 46.8022C57.3478 46.6615 56.2691 46.6615 55.2042 46.8022C54.8879 46.8022 54.9783 47.367 55.2042 47.367C55.8769 47.3839 56.5481 47.4367 57.2151 47.5252L56.9892 47.6607C56.5382 47.6207 56.0845 47.6207 55.6335 47.6607C54.6394 47.6607 53.6904 47.6607 52.6963 47.6607C52.6457 47.6765 52.6015 47.708 52.5702 47.7507C52.5388 47.7934 52.5219 47.845 52.5219 47.898C52.5219 47.9509 52.5388 48.0025 52.5702 48.0452C52.6015 48.0879 52.6457 48.1194 52.6963 48.1352C53.6001 48.1352 54.5038 48.316 55.4076 48.3837H55.7917C54.5942 49.039 53.3967 49.649 52.267 50.1687L50.6403 49.4682C50.3465 49.3101 50.098 49.7394 50.3917 49.9201L51.6344 50.5753L50.5047 51.0724C49.9398 51.321 50.3465 52.2473 50.934 52.0666L52.7189 51.5017C53.2254 52.7749 53.8455 53.9999 54.5716 55.1619C55.159 56.0657 55.6109 57.0598 56.1984 58.0314Z" fill="#100000"/>
<path d="M38.3497 19.983C41.598 19.6633 44.8262 19.1654 48.0199 18.4918C48.0705 18.476 48.1147 18.4445 48.1461 18.4018C48.1774 18.3592 48.1944 18.3076 48.1944 18.2546C48.1944 18.2016 48.1774 18.15 48.1461 18.1074C48.1147 18.0647 48.0705 18.0332 48.0199 18.0174C46.6213 17.9266 45.2172 18.064 43.8626 18.4241C42.0099 18.7404 40.225 19.1471 38.3949 19.5989C38.0786 19.6441 38.1238 20.0056 38.3497 19.983Z" fill="#100000"/>
<path d="M50.3019 18.4693C50.3633 18.4517 50.4173 18.4147 50.4557 18.3637C50.4942 18.3128 50.515 18.2507 50.515 18.1868C50.515 18.123 50.4942 18.0609 50.4557 18.01C50.4173 17.959 50.3633 17.922 50.3019 17.9044C50.2405 17.922 50.1865 17.959 50.1481 18.01C50.1097 18.0609 50.0889 18.123 50.0889 18.1868C50.0889 18.2507 50.1097 18.3128 50.1481 18.3637C50.1865 18.4147 50.2405 18.4517 50.3019 18.4693Z" fill="#100000"/>
<path d="M41.8071 53.8289C41.7412 53.8289 41.678 53.8551 41.6314 53.9017C41.5848 53.9483 41.5586 54.0115 41.5586 54.0774C41.5586 54.1433 41.5848 54.2065 41.6314 54.2532C41.678 54.2998 41.7412 54.326 41.8071 54.326C43.4409 54.4008 45.0698 54.5592 46.6874 54.8004C48.1684 55.1438 49.6862 55.3032 51.2062 55.2749C51.3418 55.2749 51.4548 55.049 51.2062 54.9812C48.1966 53.9081 44.9868 53.5145 41.8071 53.8289Z" fill="#100000"/>
<path d="M12.6592 37.2449C12.6428 37.2053 12.6179 37.1697 12.5863 37.1407C12.5547 37.1116 12.5171 37.0899 12.4761 37.077C12.4352 37.0641 12.392 37.0603 12.3494 37.0659C12.3069 37.0715 12.2661 37.0863 12.2299 37.1094C11.632 40.0823 11.8268 43.1602 12.7947 46.034C13.2692 47.5026 14.1504 49.7846 15.7094 50.5528C15.7554 50.5859 15.8108 50.6037 15.8675 50.6037C15.9243 50.6037 15.9796 50.5859 16.0257 50.5528C16.0908 50.4819 16.1269 50.3892 16.1269 50.2929C16.1269 50.1967 16.0908 50.104 16.0257 50.0331C14.6186 48.2457 13.5937 46.1884 13.0146 43.9886C12.4355 41.7887 12.3145 39.4934 12.6592 37.2449Z" fill="#100000"/>
<path d="M17.3595 51.3435C17.1788 51.1176 16.8625 51.3435 17.0432 51.6598C17.1861 51.8884 17.4006 52.0631 17.6533 52.1569C17.834 52.1569 17.947 51.9762 17.834 51.8632L17.3595 51.3435Z" fill="#100000"/>
<path d="M39.3429 30.3763C39.0491 28.4332 37.0835 25.0215 34.6885 25.993C32.1354 25.2474 30.1697 29.0658 30.0115 31.0993C29.7999 31.794 29.7719 32.5318 29.9303 33.2406C30.0886 33.9494 30.428 34.605 30.9153 35.1436C31.4418 35.651 32.0655 36.0467 32.7489 36.3068C33.4323 36.567 34.1612 36.6862 34.8918 36.6574C36.2984 36.3822 37.5451 35.5765 38.3737 34.4071C39.2024 33.2378 39.5494 31.7945 39.3429 30.3763ZM35.9538 34.7143C35.3951 34.9296 34.7907 34.999 34.1978 34.916C33.6048 34.833 33.0428 34.6003 32.5647 34.2398C31.4802 33.4942 31.5479 32.839 31.6609 31.6189C31.6969 30.7194 31.9629 29.8441 32.4337 29.0767C32.9044 28.3093 33.564 27.6754 34.3496 27.2357C34.8404 27.498 35.3458 27.7318 35.8634 27.9361C36.2424 28.128 36.5782 28.3954 36.8502 28.7217C37.1221 29.0481 37.3245 29.4266 37.445 29.834C37.6889 30.2426 37.8465 30.6969 37.9078 31.1688C37.9692 31.6407 37.9332 32.1202 37.8019 32.5776C37.6706 33.0351 37.4468 33.4607 37.1445 33.8282C36.8422 34.1957 36.4677 34.4973 36.0441 34.7143H35.9538Z" fill="#100000"/>
</svg>
