<svg width="80" height="80" viewBox="0 0 80 80" fill="none" xmlns="http://www.w3.org/2000/svg">
<path d="M28.1232 40.522C28.2549 33.7621 31.4313 29.5434 37.9415 27.9389C45.0315 26.1913 51.8112 32.3918 51.8845 39.5519C51.9572 46.678 45.9826 50.3303 39.921 51.8834C36.1473 52.85 32.4102 50.6687 30.32 47.5313C29.0043 45.5557 28.6649 42.8603 28.0865 40.5921C27.7552 39.292 25.7906 39.8444 26.1226 41.1467C26.9508 44.396 27.5719 47.4618 29.6859 50.1156C31.9513 52.9584 35.9375 54.6872 39.4927 54.0632C43.0492 53.4399 46.99 51.7527 49.7523 49.3178C52.7053 46.7155 53.71 43.4544 53.9204 39.5519C54.342 31.7101 46.9805 25.4429 39.7282 25.6069C31.2724 25.798 26.2455 32.3848 26.0866 40.522C26.0601 41.8673 28.0967 41.8645 28.1232 40.522Z" fill="black"/>
<path d="M38.3417 12.3089C38.6695 14.2018 38.5216 16.144 38.8508 18.0418C39.0803 19.3634 41.0428 18.802 40.8147 17.4872C40.4868 15.5944 40.6348 13.6522 40.3056 11.7544C40.0755 10.4327 38.1136 10.9942 38.3417 12.3089Z" fill="black"/>
<path d="M56.1307 24.5709C57.5454 23.4681 58.8149 22.2187 60.0708 20.9331C61.0001 19.9818 59.5603 18.508 58.6309 19.4593C57.504 20.6128 56.3744 21.7802 55.1036 22.7704C54.663 23.1144 54.4322 23.6613 54.7383 24.1963C54.9922 24.6424 55.6874 24.9162 56.1307 24.5709Z" fill="black"/>
<path d="M60.8775 41.2172C63.6045 41.1671 66.2941 40.5973 69.0238 40.8697C70.3313 41.0004 70.3184 38.9143 69.0238 38.7851C66.2941 38.5127 63.6045 39.0825 60.8775 39.1325C59.5653 39.1568 59.5632 41.2415 60.8775 41.2172Z" fill="black"/>
<path d="M54.738 56.3354C55.6001 58.1804 57.2966 59.6042 58.8003 60.8897C59.8009 61.7444 61.2496 60.2782 60.2401 59.4159C58.8668 58.2422 57.283 56.9685 56.4955 55.2841C55.93 54.0708 54.1745 55.1291 54.738 56.3354Z" fill="black"/>
<path d="M38.002 63.0356C38.3272 64.7659 38.5254 66.517 38.8506 68.2473C39.0991 69.5662 41.0617 69.0061 40.8146 67.6927C40.4894 65.9625 40.2912 64.2114 39.966 62.4811C39.7168 61.1622 37.7543 61.7223 38.002 63.0356Z" fill="black"/>
<path d="M20.8555 61.5473C21.7747 59.9623 23.4399 58.9248 24.9029 57.9262C25.9897 57.1841 24.9714 55.3781 23.8751 56.1258C22.1128 57.3286 20.2018 58.5892 19.0973 60.4959C18.4259 61.6543 20.1868 62.7022 20.8555 61.5473Z" fill="black"/>
<path d="M10.9816 41.0432C13.0949 41.1731 15.1661 40.7235 17.2611 40.522C18.557 40.3976 18.5692 38.3116 17.2611 38.4373C15.1661 38.6389 13.0949 39.0885 10.9816 38.9585C9.66872 38.8779 9.67687 40.9633 10.9816 41.0432Z" fill="black"/>
<path d="M18.6139 21.444C20.6694 22.6427 22.3761 24.3528 24.6272 25.1971C25.8627 25.6605 26.3908 23.6454 25.1682 23.1868C23.1167 22.4168 21.5214 20.7394 19.641 19.6435C18.4985 18.9778 17.4727 20.779 18.6139 21.444Z" fill="black"/>
</svg>
