<svg width="59" height="60" viewBox="0 0 59 60" fill="none" xmlns="http://www.w3.org/2000/svg">
<mask id="path-1-inside-1_86_1231" fill="white">
<path d="M57.1858 20.3892C55.9764 16.448 54.3923 13.4158 51.8229 10.3065C50.6134 8.79044 49.3302 7.73039 47.7462 6.59334C46.7639 5.8353 45.3302 4.69824 44.1208 4.0912C42.2328 3.25615 40.4953 2.42413 38.6074 1.58907C37.8522 1.28704 35.1324 0.603014 33.3212 0.301011C31.51 -0.00102165 26.979 -0.154994 24.6367 0.224025C21.9169 0.680031 19.9553 1.13306 17.4626 2.19614C15.8755 2.95418 12.0996 4.69827 9.45624 7.57942C7.3441 9.54858 6.06091 11.8996 4.55057 14.2508C3.04023 16.5249 2.13462 18.722 1.45316 21.3751C1.07557 22.9682 0.470829 25.0883 0.243673 26.6044C-0.210608 29.6365 0.0165331 32.5917 0.544564 35.6235C1.14929 39.2627 2.05491 42.5969 3.94284 45.6289C5.15232 47.601 6.50922 49.4191 8.17301 51.0121C9.4562 52.2262 11.4209 53.7423 12.9312 54.8023C15.9519 56.9255 17.8398 57.5325 21.1611 58.6696C22.3706 58.9716 25.0136 59.5046 26.2968 59.7296C30.2999 60.1856 35.2086 60.2596 39.967 58.3645C43.0644 57.1504 46.3859 55.1043 48.7285 52.8302C50.5397 51.1632 52.6548 49.1171 53.8642 46.9939C54.5427 45.7059 55.525 43.8108 56.1298 42.5227C57.1858 40.3996 58.0944 37.2165 58.3953 34.7915C58.472 34.0335 59 30.3943 59 29.5622C58.8466 26.7581 58.0177 23.1196 57.1858 20.3892ZM56.5074 24.7864C56.6578 25.5445 56.5841 25.6954 55.9793 26.0005C55.9026 25.6215 56.5074 25.0914 55.6784 24.9404C54.6224 25.6985 53.5634 26.5335 52.5073 27.4426C52.2802 26.9866 52.2802 26.6845 52.6578 26.4565C53.6401 25.7755 54.5457 25.0175 55.528 24.3334C56.0531 23.9514 56.4306 24.1054 56.5074 24.7864ZM53.1829 23.4213C53.3333 23.7234 53.5605 23.9514 53.7109 24.2564C53.7876 24.4074 53.7109 24.7124 53.6342 24.7864C53.1799 25.0885 52.879 25.6215 52.2006 25.6955C51.7492 24.2564 51.7492 24.1794 53.1829 23.4213ZM49.1828 29.7906C49.2595 29.5626 49.4099 29.4116 49.5604 29.2606C49.7875 29.0326 49.938 29.3376 50.0884 29.3376C50.3893 29.4145 50.7669 29.2606 51.0707 29.1096C51.525 28.8815 51.9763 28.4285 52.5811 28.5025C51.5988 29.4116 50.6164 30.3206 49.41 31.0786C49.3333 31.0017 49.2595 31.0017 49.1828 30.9276C49.1828 30.5486 49.1061 30.1696 49.1828 29.7906ZM26.6016 2.65207C26.6016 3.03109 26.6783 3.25909 26.5249 3.33312C26.0707 3.71214 25.4689 4.09116 24.9379 4.39316C24.7107 4.54418 24.4098 4.54418 24.1827 4.62116C24.1827 4.54418 24.106 4.47015 24.106 4.39316C24.8641 3.86312 25.696 3.33316 26.6016 2.65207ZM20.4865 3.78912C19.7313 4.39615 18.9761 5.1542 17.7667 4.84917C18.5986 4.16811 19.5779 4.09113 20.4865 3.78912ZM12.7815 7.88132C13.7638 7.5023 14.7461 7.04626 15.7254 6.51624C16.4806 6.13722 17.159 5.68119 17.8405 5.30217C17.6901 5.98322 17.0086 6.13723 17.0086 6.81825C17.0086 6.89523 16.7815 6.96926 16.631 7.04625C14.9703 7.7273 13.3095 8.33431 11.6457 9.01836C11.6457 9.01836 11.569 8.94138 11.4185 8.94138C11.7253 8.41134 12.1797 8.10926 12.7815 7.88132ZM51.2952 35.248C51.9737 35.248 52.5047 34.869 52.956 34.49C54.2392 33.5809 55.4487 32.6719 56.7319 31.7598C57.0328 32.6689 56.959 32.9739 56.2776 33.5039C55.4457 34.185 54.5401 34.792 53.6345 35.399C53.4073 35.55 53.1802 35.778 52.8793 36.006C53.7849 36.3081 54.3129 35.9291 54.9177 35.627C55.5224 35.325 56.0504 34.946 56.7289 34.49C56.428 35.55 55.7466 35.929 55.1418 36.3851C54.5371 36.8411 53.9323 37.2941 53.2539 37.8241C53.9324 38.0521 53.9324 38.0521 56.1978 36.8381C56.0474 37.1401 56.0474 37.3681 55.897 37.4451C55.0651 38.0521 54.2362 38.6592 53.4043 39.2632C53.1771 39.4142 52.8763 39.4912 53.0267 39.8702C53.481 40.0982 53.8586 39.9472 54.3099 39.7192C54.6875 39.4912 55.0651 39.2632 55.5194 39.0381C55.5194 39.7962 55.3689 40.1752 54.7642 40.4772C53.2539 41.0842 52.0444 42.2953 50.6875 43.2813C50.6108 43.3583 50.537 43.5834 50.3866 43.8114C51.2922 43.7344 51.9737 43.3554 52.5754 42.9023C53.1801 42.4463 53.7849 42.0673 54.4633 41.7653C54.4633 41.8422 54.54 41.8422 54.6138 41.9163C54.4633 42.2953 54.3129 42.5973 54.1595 42.9023C53.7819 43.0533 53.481 43.0533 53.2539 43.2044C51.5931 44.1904 50.006 45.2505 48.3452 46.3135C48.0444 46.4646 47.6668 46.6156 47.6668 47.1486C48.7228 46.9206 49.5547 46.2396 50.4603 45.9345C51.3659 45.6325 52.1978 45.1765 53.2538 44.5694C52.6491 45.4785 52.6491 45.5555 52.1211 46.3875C51.4426 46.6155 47.4396 48.8897 46.1564 49.6477C46.006 49.7247 45.9293 49.9497 45.8555 50.1777C46.9116 50.1007 47.593 49.5707 48.4219 49.1917C49.2538 48.7357 50.1594 48.3566 51.1417 47.9036C50.537 48.6617 50.009 49.0407 49.3305 49.7987C48.5754 50.3288 47.6698 51.1638 46.9146 51.7708C46.0856 52.3038 45.3305 53.0618 44.4986 53.5919C44.3482 53.6688 40.5724 56.245 40.4219 56.168C40.1948 56.091 41.1771 55.2589 41.8555 54.5009C42.4603 53.8939 41.1771 54.3499 40.6461 54.8029C40.5694 54.8799 38.4573 56.849 38.3805 56.849C37.3982 57.2281 37.9263 57.077 36.3422 57.6841C37.0207 57.0771 38.0797 56.319 38.4573 55.94C38.6844 55.789 39.5133 55.1819 39.4396 55.0309C39.3629 54.7289 38.6844 55.031 38.3836 55.182C37.478 55.712 36.7228 56.396 35.8909 57C35.6637 57.1511 35.1357 57.6811 34.7581 57.9861C34.003 58.1371 32.5693 58.2881 32.4926 58.2141C32.6431 58.0631 33.2478 57.6841 33.4749 57.5331C34.3805 56.926 35.3629 56.396 36.2685 55.789C36.5694 55.6379 36.8732 55.333 37.1741 55.0309C37.2508 54.8799 37.3245 54.6519 37.2508 54.5009C37.2508 54.4239 36.5723 54.5779 36.4189 54.6519C35.2094 55.4099 34.0766 56.168 32.8702 56.926C32.3421 57.2281 31.587 57.533 30.9822 58.1401C30.3775 58.2171 29.2447 58.2171 28.5663 58.1401C28.7934 57.8381 32.5693 55.638 32.7197 55.564C33.0206 55.336 33.7021 54.8829 33.3982 54.7289C33.0206 54.4269 32.7197 54.5779 32.4159 54.7289C31.5103 55.259 30.6047 55.789 29.6224 56.245C28.7905 56.624 27.2801 57.3821 26.3745 57.8381C26.1474 57.8381 25.4689 57.7611 25.4689 57.6871C25.7698 57.5361 27.4336 56.55 27.7344 56.399C28.7168 55.943 29.6224 55.413 30.6047 54.96C30.9823 54.8089 31.7374 54.2789 31.2832 53.8999C30.9056 53.9769 30.528 54.0509 30.2271 54.2019C28.6401 55.037 27.1297 55.795 25.6194 56.6271C25.2418 56.8551 24.4866 57.2341 24.109 57.5361C23.6547 57.3851 22.8995 57.2341 22.7491 57.0801C24.0323 56.4731 26.0707 55.108 27.2801 54.427C27.581 54.2759 27.8849 54.0479 28.112 53.8199C28.2625 53.6689 28.7905 53.1389 28.2625 53.0619C27.8082 53.2129 27.5073 53.3639 27.2065 53.5179C25.7728 54.199 24.9409 54.806 23.581 55.564C22.9026 55.866 22.2211 56.171 21.4659 56.7011C21.3155 56.6241 20.7108 56.4731 20.4836 56.399C20.9379 55.943 21.6931 55.49 22.2211 55.185C23.4306 54.5039 24.5634 53.8199 25.7698 53.2128C26.4483 52.8338 26.9026 52.0758 26.2241 51.9988C25.7698 52.1498 25.2418 52.3778 24.7905 52.6058C23.4306 53.3638 22.1474 54.0448 20.8642 54.8799C20.3362 55.1819 20.0323 55.3359 19.4306 55.866C18.6754 55.4869 17.997 55.1849 16.9379 54.6519C17.2388 54.2729 18.0707 53.8938 18.3715 53.6658C19.7314 52.7568 20.1827 52.3008 21.5426 51.3917C21.7698 51.1637 22.0707 51.0897 22.2978 50.8617C22.3745 50.7107 22.4483 50.4827 22.3745 50.3316C22.3745 50.2547 22.1474 50.1806 21.9969 50.1806C21.7698 50.1806 21.5426 50.1806 21.3922 50.3316C19.8051 51.3917 18.1443 52.4548 16.5603 53.5148C16.2594 53.7428 16.1827 53.8168 15.8051 54.1218C15.578 54.0448 15.2771 53.8198 14.8995 53.5918C16.637 52.2267 20.2625 50.4086 19.8849 50.1036C19.584 49.6476 15.8819 51.3917 14.1444 52.9077C13.4659 52.3777 12.634 51.9217 11.9556 51.2407C13.2388 50.2546 15.7314 48.5875 17.165 47.8295C17.4659 47.6015 17.8435 47.4505 18.2211 47.2225C18.522 46.9945 18.7491 46.7665 18.522 46.2364C15.7284 47.5245 13.6901 48.9665 10.9702 50.5566C10.8198 50.4056 10.5927 50.4056 10.3655 50.1776C10.5927 49.9496 12.5543 48.8125 13.159 48.4335C14.1414 47.9035 15.1974 47.1454 16.1797 46.5384C16.4069 46.3874 16.7078 46.2364 16.9349 46.0084C17.0854 45.9314 16.8582 45.7804 16.7078 45.7063C16.4069 45.7833 16.1797 45.8573 15.9526 46.0084C15.4246 46.2364 14.9703 46.5384 14.519 46.7664C13.3095 47.3734 12.1767 47.9805 11.044 48.6615C10.7431 48.8125 10.5897 48.8895 10.5159 48.9635C10.2151 49.1146 9.91122 49.3426 9.61034 49.4195C9.30945 49.1175 9.08231 48.8125 8.62802 48.2825C9.23274 47.9804 9.98793 47.6014 10.7431 47.1454C11.4216 46.6894 12.2534 46.2364 13.0086 45.8574C13.7638 45.4014 14.519 45.0223 15.2741 44.5693C15.6517 44.1133 14.7461 44.2673 14.519 44.3413C12.7078 45.1764 8.85517 47.1454 8.70474 47.1454C8.32716 46.7664 8.5543 46.4644 8.85519 46.3104C9.68709 45.7803 10.2888 45.5523 11.1207 45.0963C12.1767 44.4893 13.4629 43.8083 14.519 43.2012C14.8199 42.9732 14.2181 42.8222 13.9909 42.8992C12.1797 43.5802 10.2151 45.0223 8.32716 45.7803C8.17671 45.5523 9.08233 45.0223 8.85519 44.7203C10.3655 43.7342 12.103 43.0532 13.6134 42.2182C13.6134 42.1412 13.5367 41.9902 13.3862 41.9161C13.0086 42.0671 12.6311 42.1441 12.2535 42.3721C11.3479 42.8281 10.4423 43.2072 9.53365 43.7372C9.23276 43.8882 8.92892 44.0392 8.55132 44.1932C8.62802 43.8912 8.77846 43.3582 8.85221 43.2842C9.98497 42.8282 10.9673 42.3751 12.3272 41.7681C12.5544 41.6171 12.8552 41.4661 13.0824 41.3121C13.2328 41.2351 13.0824 40.9331 12.9319 40.8561C12.2535 41.0841 10.2888 41.6911 9.45694 42.1441C10.1354 41.3861 10.0617 39.719 9.2298 39.263C9.45694 38.656 10.2121 38.203 9.75783 37.5959C9.38024 37.1399 8.85223 36.8379 8.39792 36.5359C8.39792 36.4589 8.39792 36.3849 8.47461 36.3849C8.70175 36.1569 9.15309 35.9288 8.8522 35.5498C8.62506 35.1708 8.24747 35.3218 7.9466 35.4728C7.26812 35.7748 6.51298 36.0028 5.83151 36.3079C5.83151 36.2309 5.75481 36.1569 5.75481 36.0799C6.81085 35.5498 7.9436 35.1708 9.00266 34.5638C8.70177 34.1848 8.24749 33.9568 7.94663 34.1078C6.9643 34.5638 6.28585 34.7888 5.38025 35.2448C4.85222 35.5469 3.41559 36.0029 2.88758 36.3049C2.66044 36.3819 2.88758 35.6238 2.66044 35.6979C2.58374 35.6209 5.07638 34.7118 6.13544 34.1818C7.34492 33.5748 8.70181 32.8937 9.9113 32.2867C10.3656 31.6056 9.76085 31.4516 9.15612 31.7567C6.81388 32.9707 4.77552 33.5747 2.35958 34.7888C2.28288 34.4868 2.20913 34.1078 2.20913 33.8027C4.77551 32.4377 7.04102 31.9077 9.53369 30.4686C9.457 29.8616 9.07941 29.7875 8.62809 29.9386C7.72249 30.2406 6.81689 30.5456 5.98499 30.9246C5.15309 31.2266 4.39792 31.6827 3.56904 31.9847C2.96432 32.2867 2.89057 32.3637 2.28586 32.5917C1.90827 32.1357 2.36255 31.5316 2.74014 31.3036C3.8729 30.6226 4.17375 30.4686 5.38324 29.9385C6.66643 29.3315 7.94962 28.8785 9.23582 28.3454C9.53672 28.1944 9.76386 28.0434 9.69011 27.6644C9.61341 27.2084 9.23583 27.2854 8.93493 27.4364C7.34787 28.1174 5.61338 28.5735 4.10304 29.4825C3.8759 29.5595 2.51597 30.3915 2.29184 30.4685C1.83755 29.9385 2.66942 29.4085 3.19744 29.1035C3.87592 28.7245 4.85821 28.2684 5.53968 27.9664C6.74916 27.3594 8.10606 26.6013 9.39227 26.0713C10.0707 25.7693 10.2979 25.5413 10.0707 25.2363C9.76985 24.8572 9.39227 25.0852 9.08842 25.2363C7.42764 25.9173 6.21816 26.6753 4.55738 27.4334C3.95266 27.6614 3.12376 28.1144 2.36859 28.4934C2.14145 28.6444 1.99101 28.1144 2.2919 27.9634C3.1975 27.5074 3.72552 27.3563 4.55741 26.9033C5.46302 26.4473 6.29491 25.9173 7.12379 25.4643C7.42468 25.3132 7.65182 25.1622 7.27424 24.7062C5.68717 25.5413 4.10312 26.3733 2.44234 27.2084C2.36565 26.6783 2.74323 26.4503 3.04707 26.2993C4.63414 25.5413 6.14448 24.7832 7.65483 24.1022C8.03241 23.9512 8.3333 23.8742 8.63716 23.7232C9.01474 23.5722 10.2979 22.7371 9.39233 22.5861C6.74923 23.2672 5.16215 24.4042 2.6725 25.4673C2.7492 25.0883 2.7492 24.6322 2.89964 24.5583C3.65482 24.1023 3.57812 24.1792 4.33326 23.8002C5.92033 22.9652 7.50438 22.2841 9.09145 21.5261C9.61948 21.2981 9.61948 21.2241 9.16815 20.54C6.97936 21.5261 5.31556 22.3581 3.05004 23.4212C3.12674 22.6632 3.05004 22.2071 3.20049 22.1331C4.71083 21.6771 6.97635 20.389 8.40997 19.782C8.78756 19.631 9.16514 19.48 9.31557 19.024C8.93798 18.7219 8.5604 18.873 8.18281 19.024C7.05005 19.403 5.99402 19.859 4.86126 20.312C4.25654 20.54 4.33323 20.463 3.72851 20.768C3.57806 19.859 4.25654 19.403 4.86126 19.1749C6.14445 18.6449 7.50437 18.1149 8.86428 17.5818C9.31856 17.4308 9.16517 17.1258 8.33625 17.1258C8.03536 17.2028 7.12677 17.4279 6.59875 17.5049C6.59875 17.5049 5.61642 17.8069 4.78754 17.9609C5.01469 17.5049 5.69315 16.2938 5.84358 16.1428C6.59875 15.9148 7.20349 15.6868 7.88194 15.5358C9.31556 15.0798 9.61944 15.0057 9.84659 14.7777C9.92329 14.3987 9.31856 14.3217 8.79056 14.3217C8.33628 14.4727 7.43065 14.5497 6.97936 14.5497C6.75221 14.0197 8.64013 11.9736 8.86729 11.8966C10.0768 11.3666 11.1328 10.9105 12.3423 10.3805C12.947 10.1525 13.5518 9.85048 14.1535 9.62247C14.6078 9.47146 15.5871 9.01545 16.0414 8.78742C16.6461 8.55942 17.0975 8.10637 17.2509 7.42234C17.3276 7.19434 17.5518 6.96634 17.7789 6.81532C18.835 6.2083 19.8173 5.67826 20.8763 5.07123C21.5548 4.61522 22.2363 4.23617 22.9147 3.85715C23.369 3.62915 23.897 3.47813 24.4251 3.32712C24.1242 4.00817 23.4427 4.16217 22.9914 4.54119C22.4634 4.92021 21.9354 5.29923 21.4044 5.67825C20.8763 5.98028 20.3483 6.43629 19.7436 6.96631C20.7996 7.11732 21.4044 6.35928 22.2363 6.13125C22.4634 6.51027 22.2363 6.66129 22.0091 6.88929C21.5548 7.19132 21.1035 7.49631 20.6492 7.87535C20.5725 7.95233 20.4988 8.10335 20.5725 8.40538L22.838 7.26832C22.9885 7.41934 23.1389 7.57036 23.2156 7.72433C23.6699 8.33135 24.1212 8.86139 24.8764 9.16339C25.4044 9.39139 25.4811 9.69343 25.1773 10.2234C24.7997 10.9045 24.723 10.9815 23.8174 10.9045C23.6669 10.9045 23.4398 10.9815 23.3631 11.0555C22.9088 11.5855 22.3808 11.4345 21.8527 11.3575C20.5696 11.2065 19.7377 11.8135 18.9825 12.6456C18.7553 12.9476 18.832 13.4806 18.7553 14.0847C18.2273 14.3127 17.6226 14.5407 17.0178 14.6917C16.4898 14.7687 16.1859 14.9937 16.0355 15.4497C16.0355 15.6007 15.8851 15.7517 15.8084 15.8287C15.4308 16.2078 15.5075 16.6638 15.6579 17.1168C15.8084 17.4188 15.8084 17.8748 15.8851 18.2538C15.9618 18.7099 15.8851 19.1629 16.0355 19.5419C16.186 19.9979 16.3364 20.4509 16.186 20.981C16.1093 21.36 16.2627 21.588 16.5635 21.816C17.6196 22.7251 18.301 22.8021 19.5075 21.967C19.9618 21.665 20.2627 21.665 20.6403 21.967C20.717 22.044 20.8674 22.1181 20.9412 22.195C21.6963 22.651 22.3748 22.423 22.6787 21.665C22.8291 21.209 22.9058 20.756 22.9795 20.2999C23.0562 19.7699 23.2067 19.3909 23.658 19.2399C24.4899 18.9379 24.8675 18.4819 24.8675 17.6468C24.8675 17.5698 24.9442 17.4958 25.0947 17.3448C25.3218 17.6468 25.6227 17.8748 25.8498 18.1798C26.1507 18.5588 26.3779 18.9379 26.7554 19.3169C27.5106 20.0749 28.3425 20.1519 29.2481 19.6189C29.4752 19.4679 29.7024 19.3169 30.0033 19.1629V19.844C29.8528 20.525 30.08 21.058 30.6817 21.437C31.3602 21.8931 31.3602 22.6511 31.3602 23.2551C31.3602 23.8622 31.2835 24.3922 31.8145 24.9222C31.136 25.1502 30.605 25.3012 30.0033 25.3782C29.8529 25.3782 29.549 25.3782 29.3986 25.3012C28.493 24.9222 27.6611 24.9222 26.7555 25.2242C26.3012 24.7682 25.8499 24.2382 25.3956 23.7852C25.018 23.4062 24.6404 23.3292 24.1861 23.5572C23.9589 23.6342 23.7318 23.7082 23.5813 23.8592C22.8262 24.5403 21.8438 24.6943 20.9382 24.9193C19.9559 25.1473 19.3512 25.8283 19.4279 26.8914C19.5046 27.3474 19.3512 27.6494 18.8999 27.8004C18.2951 28.0284 17.6904 28.2564 17.1624 28.5584C16.6343 28.8605 16.2568 29.2395 16.1063 29.9235C15.7287 31.3626 16.1063 32.8047 16.4839 34.1697C16.4839 34.2467 16.5606 34.3977 16.6344 34.4718C17.0886 34.8508 17.6167 35.0788 18.068 35.4578C18.2951 35.6858 18.5223 35.9138 18.596 36.2159C18.7465 36.7459 19.1241 36.9739 19.5783 37.1249C20.4839 37.3529 21.2391 37.6549 22.2214 37.2759C23.5046 36.8199 24.7878 37.1989 25.9973 37.578C25.9973 38.564 25.9973 38.564 26.6758 39.4731C26.4486 39.8521 26.2982 40.3081 26.0711 40.7611C25.8439 41.2912 25.8439 41.8212 26.2215 42.3542C26.9 43.2633 26.9767 44.4003 26.7495 45.4634C26.5224 46.3724 26.6728 47.1305 27.1271 47.8885C27.3543 48.2675 27.5047 48.7975 27.6552 49.3276C27.8056 49.7066 27.8823 50.0856 28.1094 50.3876C28.5637 51.1456 28.9413 51.2966 29.6965 51.1456C30.375 50.9946 30.9797 50.3106 31.0564 49.5525C31.1331 49.1735 31.0564 48.8715 31.1331 48.4925C31.2098 47.8115 31.434 47.3554 32.1891 47.2044C32.5667 47.2044 32.9443 47.0534 33.3219 46.8254C34.1538 46.3694 34.6818 45.6884 34.6818 44.7793C34.6818 44.1723 34.909 43.9443 35.437 43.7193C36.4193 43.3403 36.7202 42.6592 36.5697 41.5962C36.493 40.9151 36.2689 40.1571 37.024 39.6241C37.1745 39.5471 37.2512 39.3961 37.2512 39.245C37.1007 38.638 37.5521 38.259 37.7792 37.729C38.3072 36.4409 38.6848 35.0758 38.5344 33.5597C38.4577 33.0297 38.3072 32.5737 37.8559 32.3457C37.1774 31.9667 36.9503 31.2856 36.5727 30.5276C36.1184 29.6186 36.2718 28.9345 36.8736 28.1765C36.9503 28.0995 36.9503 28.0254 37.024 27.9485C37.1007 27.8715 37.1745 27.7974 37.2512 27.6464C37.7055 27.6464 38.0831 27.7234 38.5344 27.7974C39.3663 27.8744 39.44 27.7974 39.8176 27.0394C39.968 26.7374 40.1185 26.4324 40.1951 26.2814C40.9503 26.2814 41.6288 26.2814 42.2335 26.2044C43.2158 26.1274 43.971 26.8114 43.971 27.7975C43.971 28.1765 44.1215 28.6325 44.2719 28.9345C44.5728 29.4646 44.8766 29.9946 44.7999 30.6016C44.7999 30.9036 44.8766 31.2086 44.9504 31.4367C45.2513 32.1947 45.4784 32.8757 45.2513 33.7108C45.1746 34.0898 45.4017 34.3178 45.7793 34.3178C46.0802 34.3178 46.3073 34.2408 46.5345 34.1668C47.1392 33.8648 47.744 33.4857 48.272 33.1067C50.6142 31.3627 52.9534 29.6186 55.2957 27.8775C55.5966 27.6495 55.9741 27.3475 56.3517 27.1195C56.7293 27.6495 56.5788 28.1055 56.2013 28.4845C54.3901 30.3796 52.275 31.8187 50.2366 33.2608C49.859 33.4888 49.4814 33.6398 49.331 34.3208C49.7853 34.1698 50.1629 34.0928 50.387 33.9418C52.0478 32.8047 53.6349 31.6677 55.2189 30.5306C55.5965 30.2286 56.0508 29.8496 56.5021 29.4706C56.803 30.0776 56.6526 30.5306 56.2012 30.8357C54.6909 31.9727 53.2573 33.1098 51.8206 34.2468C51.7498 34.4127 51.2215 34.564 51.2952 35.248Z"/>
</mask>
<path d="M57.1858 20.3892C55.9764 16.448 54.3923 13.4158 51.8229 10.3065C50.6134 8.79044 49.3302 7.73039 47.7462 6.59334C46.7639 5.8353 45.3302 4.69824 44.1208 4.0912C42.2328 3.25615 40.4953 2.42413 38.6074 1.58907C37.8522 1.28704 35.1324 0.603014 33.3212 0.301011C31.51 -0.00102165 26.979 -0.154994 24.6367 0.224025C21.9169 0.680031 19.9553 1.13306 17.4626 2.19614C15.8755 2.95418 12.0996 4.69827 9.45624 7.57942C7.3441 9.54858 6.06091 11.8996 4.55057 14.2508C3.04023 16.5249 2.13462 18.722 1.45316 21.3751C1.07557 22.9682 0.470829 25.0883 0.243673 26.6044C-0.210608 29.6365 0.0165331 32.5917 0.544564 35.6235C1.14929 39.2627 2.05491 42.5969 3.94284 45.6289C5.15232 47.601 6.50922 49.4191 8.17301 51.0121C9.4562 52.2262 11.4209 53.7423 12.9312 54.8023C15.9519 56.9255 17.8398 57.5325 21.1611 58.6696C22.3706 58.9716 25.0136 59.5046 26.2968 59.7296C30.2999 60.1856 35.2086 60.2596 39.967 58.3645C43.0644 57.1504 46.3859 55.1043 48.7285 52.8302C50.5397 51.1632 52.6548 49.1171 53.8642 46.9939C54.5427 45.7059 55.525 43.8108 56.1298 42.5227C57.1858 40.3996 58.0944 37.2165 58.3953 34.7915C58.472 34.0335 59 30.3943 59 29.5622C58.8466 26.7581 58.0177 23.1196 57.1858 20.3892ZM56.5074 24.7864C56.6578 25.5445 56.5841 25.6954 55.9793 26.0005C55.9026 25.6215 56.5074 25.0914 55.6784 24.9404C54.6224 25.6985 53.5634 26.5335 52.5073 27.4426C52.2802 26.9866 52.2802 26.6845 52.6578 26.4565C53.6401 25.7755 54.5457 25.0175 55.528 24.3334C56.0531 23.9514 56.4306 24.1054 56.5074 24.7864ZM53.1829 23.4213C53.3333 23.7234 53.5605 23.9514 53.7109 24.2564C53.7876 24.4074 53.7109 24.7124 53.6342 24.7864C53.1799 25.0885 52.879 25.6215 52.2006 25.6955C51.7492 24.2564 51.7492 24.1794 53.1829 23.4213ZM49.1828 29.7906C49.2595 29.5626 49.4099 29.4116 49.5604 29.2606C49.7875 29.0326 49.938 29.3376 50.0884 29.3376C50.3893 29.4145 50.7669 29.2606 51.0707 29.1096C51.525 28.8815 51.9763 28.4285 52.5811 28.5025C51.5988 29.4116 50.6164 30.3206 49.41 31.0786C49.3333 31.0017 49.2595 31.0017 49.1828 30.9276C49.1828 30.5486 49.1061 30.1696 49.1828 29.7906ZM26.6016 2.65207C26.6016 3.03109 26.6783 3.25909 26.5249 3.33312C26.0707 3.71214 25.4689 4.09116 24.9379 4.39316C24.7107 4.54418 24.4098 4.54418 24.1827 4.62116C24.1827 4.54418 24.106 4.47015 24.106 4.39316C24.8641 3.86312 25.696 3.33316 26.6016 2.65207ZM20.4865 3.78912C19.7313 4.39615 18.9761 5.1542 17.7667 4.84917C18.5986 4.16811 19.5779 4.09113 20.4865 3.78912ZM12.7815 7.88132C13.7638 7.5023 14.7461 7.04626 15.7254 6.51624C16.4806 6.13722 17.159 5.68119 17.8405 5.30217C17.6901 5.98322 17.0086 6.13723 17.0086 6.81825C17.0086 6.89523 16.7815 6.96926 16.631 7.04625C14.9703 7.7273 13.3095 8.33431 11.6457 9.01836C11.6457 9.01836 11.569 8.94138 11.4185 8.94138C11.7253 8.41134 12.1797 8.10926 12.7815 7.88132ZM51.2952 35.248C51.9737 35.248 52.5047 34.869 52.956 34.49C54.2392 33.5809 55.4487 32.6719 56.7319 31.7598C57.0328 32.6689 56.959 32.9739 56.2776 33.5039C55.4457 34.185 54.5401 34.792 53.6345 35.399C53.4073 35.55 53.1802 35.778 52.8793 36.006C53.7849 36.3081 54.3129 35.9291 54.9177 35.627C55.5224 35.325 56.0504 34.946 56.7289 34.49C56.428 35.55 55.7466 35.929 55.1418 36.3851C54.5371 36.8411 53.9323 37.2941 53.2539 37.8241C53.9324 38.0521 53.9324 38.0521 56.1978 36.8381C56.0474 37.1401 56.0474 37.3681 55.897 37.4451C55.0651 38.0521 54.2362 38.6592 53.4043 39.2632C53.1771 39.4142 52.8763 39.4912 53.0267 39.8702C53.481 40.0982 53.8586 39.9472 54.3099 39.7192C54.6875 39.4912 55.0651 39.2632 55.5194 39.0381C55.5194 39.7962 55.3689 40.1752 54.7642 40.4772C53.2539 41.0842 52.0444 42.2953 50.6875 43.2813C50.6108 43.3583 50.537 43.5834 50.3866 43.8114C51.2922 43.7344 51.9737 43.3554 52.5754 42.9023C53.1801 42.4463 53.7849 42.0673 54.4633 41.7653C54.4633 41.8422 54.54 41.8422 54.6138 41.9163C54.4633 42.2953 54.3129 42.5973 54.1595 42.9023C53.7819 43.0533 53.481 43.0533 53.2539 43.2044C51.5931 44.1904 50.006 45.2505 48.3452 46.3135C48.0444 46.4646 47.6668 46.6156 47.6668 47.1486C48.7228 46.9206 49.5547 46.2396 50.4603 45.9345C51.3659 45.6325 52.1978 45.1765 53.2538 44.5694C52.6491 45.4785 52.6491 45.5555 52.1211 46.3875C51.4426 46.6155 47.4396 48.8897 46.1564 49.6477C46.006 49.7247 45.9293 49.9497 45.8555 50.1777C46.9116 50.1007 47.593 49.5707 48.4219 49.1917C49.2538 48.7357 50.1594 48.3566 51.1417 47.9036C50.537 48.6617 50.009 49.0407 49.3305 49.7987C48.5754 50.3288 47.6698 51.1638 46.9146 51.7708C46.0856 52.3038 45.3305 53.0618 44.4986 53.5919C44.3482 53.6688 40.5724 56.245 40.4219 56.168C40.1948 56.091 41.1771 55.2589 41.8555 54.5009C42.4603 53.8939 41.1771 54.3499 40.6461 54.8029C40.5694 54.8799 38.4573 56.849 38.3805 56.849C37.3982 57.2281 37.9263 57.077 36.3422 57.6841C37.0207 57.0771 38.0797 56.319 38.4573 55.94C38.6844 55.789 39.5133 55.1819 39.4396 55.0309C39.3629 54.7289 38.6844 55.031 38.3836 55.182C37.478 55.712 36.7228 56.396 35.8909 57C35.6637 57.1511 35.1357 57.6811 34.7581 57.9861C34.003 58.1371 32.5693 58.2881 32.4926 58.2141C32.6431 58.0631 33.2478 57.6841 33.4749 57.5331C34.3805 56.926 35.3629 56.396 36.2685 55.789C36.5694 55.6379 36.8732 55.333 37.1741 55.0309C37.2508 54.8799 37.3245 54.6519 37.2508 54.5009C37.2508 54.4239 36.5723 54.5779 36.4189 54.6519C35.2094 55.4099 34.0766 56.168 32.8702 56.926C32.3421 57.2281 31.587 57.533 30.9822 58.1401C30.3775 58.2171 29.2447 58.2171 28.5663 58.1401C28.7934 57.8381 32.5693 55.638 32.7197 55.564C33.0206 55.336 33.7021 54.8829 33.3982 54.7289C33.0206 54.4269 32.7197 54.5779 32.4159 54.7289C31.5103 55.259 30.6047 55.789 29.6224 56.245C28.7905 56.624 27.2801 57.3821 26.3745 57.8381C26.1474 57.8381 25.4689 57.7611 25.4689 57.6871C25.7698 57.5361 27.4336 56.55 27.7344 56.399C28.7168 55.943 29.6224 55.413 30.6047 54.96C30.9823 54.8089 31.7374 54.2789 31.2832 53.8999C30.9056 53.9769 30.528 54.0509 30.2271 54.2019C28.6401 55.037 27.1297 55.795 25.6194 56.6271C25.2418 56.8551 24.4866 57.2341 24.109 57.5361C23.6547 57.3851 22.8995 57.2341 22.7491 57.0801C24.0323 56.4731 26.0707 55.108 27.2801 54.427C27.581 54.2759 27.8849 54.0479 28.112 53.8199C28.2625 53.6689 28.7905 53.1389 28.2625 53.0619C27.8082 53.2129 27.5073 53.3639 27.2065 53.5179C25.7728 54.199 24.9409 54.806 23.581 55.564C22.9026 55.866 22.2211 56.171 21.4659 56.7011C21.3155 56.6241 20.7108 56.4731 20.4836 56.399C20.9379 55.943 21.6931 55.49 22.2211 55.185C23.4306 54.5039 24.5634 53.8199 25.7698 53.2128C26.4483 52.8338 26.9026 52.0758 26.2241 51.9988C25.7698 52.1498 25.2418 52.3778 24.7905 52.6058C23.4306 53.3638 22.1474 54.0448 20.8642 54.8799C20.3362 55.1819 20.0323 55.3359 19.4306 55.866C18.6754 55.4869 17.997 55.1849 16.9379 54.6519C17.2388 54.2729 18.0707 53.8938 18.3715 53.6658C19.7314 52.7568 20.1827 52.3008 21.5426 51.3917C21.7698 51.1637 22.0707 51.0897 22.2978 50.8617C22.3745 50.7107 22.4483 50.4827 22.3745 50.3316C22.3745 50.2547 22.1474 50.1806 21.9969 50.1806C21.7698 50.1806 21.5426 50.1806 21.3922 50.3316C19.8051 51.3917 18.1443 52.4548 16.5603 53.5148C16.2594 53.7428 16.1827 53.8168 15.8051 54.1218C15.578 54.0448 15.2771 53.8198 14.8995 53.5918C16.637 52.2267 20.2625 50.4086 19.8849 50.1036C19.584 49.6476 15.8819 51.3917 14.1444 52.9077C13.4659 52.3777 12.634 51.9217 11.9556 51.2407C13.2388 50.2546 15.7314 48.5875 17.165 47.8295C17.4659 47.6015 17.8435 47.4505 18.2211 47.2225C18.522 46.9945 18.7491 46.7665 18.522 46.2364C15.7284 47.5245 13.6901 48.9665 10.9702 50.5566C10.8198 50.4056 10.5927 50.4056 10.3655 50.1776C10.5927 49.9496 12.5543 48.8125 13.159 48.4335C14.1414 47.9035 15.1974 47.1454 16.1797 46.5384C16.4069 46.3874 16.7078 46.2364 16.9349 46.0084C17.0854 45.9314 16.8582 45.7804 16.7078 45.7063C16.4069 45.7833 16.1797 45.8573 15.9526 46.0084C15.4246 46.2364 14.9703 46.5384 14.519 46.7664C13.3095 47.3734 12.1767 47.9805 11.044 48.6615C10.7431 48.8125 10.5897 48.8895 10.5159 48.9635C10.2151 49.1146 9.91122 49.3426 9.61034 49.4195C9.30945 49.1175 9.08231 48.8125 8.62802 48.2825C9.23274 47.9804 9.98793 47.6014 10.7431 47.1454C11.4216 46.6894 12.2534 46.2364 13.0086 45.8574C13.7638 45.4014 14.519 45.0223 15.2741 44.5693C15.6517 44.1133 14.7461 44.2673 14.519 44.3413C12.7078 45.1764 8.85517 47.1454 8.70474 47.1454C8.32716 46.7664 8.5543 46.4644 8.85519 46.3104C9.68709 45.7803 10.2888 45.5523 11.1207 45.0963C12.1767 44.4893 13.4629 43.8083 14.519 43.2012C14.8199 42.9732 14.2181 42.8222 13.9909 42.8992C12.1797 43.5802 10.2151 45.0223 8.32716 45.7803C8.17671 45.5523 9.08233 45.0223 8.85519 44.7203C10.3655 43.7342 12.103 43.0532 13.6134 42.2182C13.6134 42.1412 13.5367 41.9902 13.3862 41.9161C13.0086 42.0671 12.6311 42.1441 12.2535 42.3721C11.3479 42.8281 10.4423 43.2072 9.53365 43.7372C9.23276 43.8882 8.92892 44.0392 8.55132 44.1932C8.62802 43.8912 8.77846 43.3582 8.85221 43.2842C9.98497 42.8282 10.9673 42.3751 12.3272 41.7681C12.5544 41.6171 12.8552 41.4661 13.0824 41.3121C13.2328 41.2351 13.0824 40.9331 12.9319 40.8561C12.2535 41.0841 10.2888 41.6911 9.45694 42.1441C10.1354 41.3861 10.0617 39.719 9.2298 39.263C9.45694 38.656 10.2121 38.203 9.75783 37.5959C9.38024 37.1399 8.85223 36.8379 8.39792 36.5359C8.39792 36.4589 8.39792 36.3849 8.47461 36.3849C8.70175 36.1569 9.15309 35.9288 8.8522 35.5498C8.62506 35.1708 8.24747 35.3218 7.9466 35.4728C7.26812 35.7748 6.51298 36.0028 5.83151 36.3079C5.83151 36.2309 5.75481 36.1569 5.75481 36.0799C6.81085 35.5498 7.9436 35.1708 9.00266 34.5638C8.70177 34.1848 8.24749 33.9568 7.94663 34.1078C6.9643 34.5638 6.28585 34.7888 5.38025 35.2448C4.85222 35.5469 3.41559 36.0029 2.88758 36.3049C2.66044 36.3819 2.88758 35.6238 2.66044 35.6979C2.58374 35.6209 5.07638 34.7118 6.13544 34.1818C7.34492 33.5748 8.70181 32.8937 9.9113 32.2867C10.3656 31.6056 9.76085 31.4516 9.15612 31.7567C6.81388 32.9707 4.77552 33.5747 2.35958 34.7888C2.28288 34.4868 2.20913 34.1078 2.20913 33.8027C4.77551 32.4377 7.04102 31.9077 9.53369 30.4686C9.457 29.8616 9.07941 29.7875 8.62809 29.9386C7.72249 30.2406 6.81689 30.5456 5.98499 30.9246C5.15309 31.2266 4.39792 31.6827 3.56904 31.9847C2.96432 32.2867 2.89057 32.3637 2.28586 32.5917C1.90827 32.1357 2.36255 31.5316 2.74014 31.3036C3.8729 30.6226 4.17375 30.4686 5.38324 29.9385C6.66643 29.3315 7.94962 28.8785 9.23582 28.3454C9.53672 28.1944 9.76386 28.0434 9.69011 27.6644C9.61341 27.2084 9.23583 27.2854 8.93493 27.4364C7.34787 28.1174 5.61338 28.5735 4.10304 29.4825C3.8759 29.5595 2.51597 30.3915 2.29184 30.4685C1.83755 29.9385 2.66942 29.4085 3.19744 29.1035C3.87592 28.7245 4.85821 28.2684 5.53968 27.9664C6.74916 27.3594 8.10606 26.6013 9.39227 26.0713C10.0707 25.7693 10.2979 25.5413 10.0707 25.2363C9.76985 24.8572 9.39227 25.0852 9.08842 25.2363C7.42764 25.9173 6.21816 26.6753 4.55738 27.4334C3.95266 27.6614 3.12376 28.1144 2.36859 28.4934C2.14145 28.6444 1.99101 28.1144 2.2919 27.9634C3.1975 27.5074 3.72552 27.3563 4.55741 26.9033C5.46302 26.4473 6.29491 25.9173 7.12379 25.4643C7.42468 25.3132 7.65182 25.1622 7.27424 24.7062C5.68717 25.5413 4.10312 26.3733 2.44234 27.2084C2.36565 26.6783 2.74323 26.4503 3.04707 26.2993C4.63414 25.5413 6.14448 24.7832 7.65483 24.1022C8.03241 23.9512 8.3333 23.8742 8.63716 23.7232C9.01474 23.5722 10.2979 22.7371 9.39233 22.5861C6.74923 23.2672 5.16215 24.4042 2.6725 25.4673C2.7492 25.0883 2.7492 24.6322 2.89964 24.5583C3.65482 24.1023 3.57812 24.1792 4.33326 23.8002C5.92033 22.9652 7.50438 22.2841 9.09145 21.5261C9.61948 21.2981 9.61948 21.2241 9.16815 20.54C6.97936 21.5261 5.31556 22.3581 3.05004 23.4212C3.12674 22.6632 3.05004 22.2071 3.20049 22.1331C4.71083 21.6771 6.97635 20.389 8.40997 19.782C8.78756 19.631 9.16514 19.48 9.31557 19.024C8.93798 18.7219 8.5604 18.873 8.18281 19.024C7.05005 19.403 5.99402 19.859 4.86126 20.312C4.25654 20.54 4.33323 20.463 3.72851 20.768C3.57806 19.859 4.25654 19.403 4.86126 19.1749C6.14445 18.6449 7.50437 18.1149 8.86428 17.5818C9.31856 17.4308 9.16517 17.1258 8.33625 17.1258C8.03536 17.2028 7.12677 17.4279 6.59875 17.5049C6.59875 17.5049 5.61642 17.8069 4.78754 17.9609C5.01469 17.5049 5.69315 16.2938 5.84358 16.1428C6.59875 15.9148 7.20349 15.6868 7.88194 15.5358C9.31556 15.0798 9.61944 15.0057 9.84659 14.7777C9.92329 14.3987 9.31856 14.3217 8.79056 14.3217C8.33628 14.4727 7.43065 14.5497 6.97936 14.5497C6.75221 14.0197 8.64013 11.9736 8.86729 11.8966C10.0768 11.3666 11.1328 10.9105 12.3423 10.3805C12.947 10.1525 13.5518 9.85048 14.1535 9.62247C14.6078 9.47146 15.5871 9.01545 16.0414 8.78742C16.6461 8.55942 17.0975 8.10637 17.2509 7.42234C17.3276 7.19434 17.5518 6.96634 17.7789 6.81532C18.835 6.2083 19.8173 5.67826 20.8763 5.07123C21.5548 4.61522 22.2363 4.23617 22.9147 3.85715C23.369 3.62915 23.897 3.47813 24.4251 3.32712C24.1242 4.00817 23.4427 4.16217 22.9914 4.54119C22.4634 4.92021 21.9354 5.29923 21.4044 5.67825C20.8763 5.98028 20.3483 6.43629 19.7436 6.96631C20.7996 7.11732 21.4044 6.35928 22.2363 6.13125C22.4634 6.51027 22.2363 6.66129 22.0091 6.88929C21.5548 7.19132 21.1035 7.49631 20.6492 7.87535C20.5725 7.95233 20.4988 8.10335 20.5725 8.40538L22.838 7.26832C22.9885 7.41934 23.1389 7.57036 23.2156 7.72433C23.6699 8.33135 24.1212 8.86139 24.8764 9.16339C25.4044 9.39139 25.4811 9.69343 25.1773 10.2234C24.7997 10.9045 24.723 10.9815 23.8174 10.9045C23.6669 10.9045 23.4398 10.9815 23.3631 11.0555C22.9088 11.5855 22.3808 11.4345 21.8527 11.3575C20.5696 11.2065 19.7377 11.8135 18.9825 12.6456C18.7553 12.9476 18.832 13.4806 18.7553 14.0847C18.2273 14.3127 17.6226 14.5407 17.0178 14.6917C16.4898 14.7687 16.1859 14.9937 16.0355 15.4497C16.0355 15.6007 15.8851 15.7517 15.8084 15.8287C15.4308 16.2078 15.5075 16.6638 15.6579 17.1168C15.8084 17.4188 15.8084 17.8748 15.8851 18.2538C15.9618 18.7099 15.8851 19.1629 16.0355 19.5419C16.186 19.9979 16.3364 20.4509 16.186 20.981C16.1093 21.36 16.2627 21.588 16.5635 21.816C17.6196 22.7251 18.301 22.8021 19.5075 21.967C19.9618 21.665 20.2627 21.665 20.6403 21.967C20.717 22.044 20.8674 22.1181 20.9412 22.195C21.6963 22.651 22.3748 22.423 22.6787 21.665C22.8291 21.209 22.9058 20.756 22.9795 20.2999C23.0562 19.7699 23.2067 19.3909 23.658 19.2399C24.4899 18.9379 24.8675 18.4819 24.8675 17.6468C24.8675 17.5698 24.9442 17.4958 25.0947 17.3448C25.3218 17.6468 25.6227 17.8748 25.8498 18.1798C26.1507 18.5588 26.3779 18.9379 26.7554 19.3169C27.5106 20.0749 28.3425 20.1519 29.2481 19.6189C29.4752 19.4679 29.7024 19.3169 30.0033 19.1629V19.844C29.8528 20.525 30.08 21.058 30.6817 21.437C31.3602 21.8931 31.3602 22.6511 31.3602 23.2551C31.3602 23.8622 31.2835 24.3922 31.8145 24.9222C31.136 25.1502 30.605 25.3012 30.0033 25.3782C29.8529 25.3782 29.549 25.3782 29.3986 25.3012C28.493 24.9222 27.6611 24.9222 26.7555 25.2242C26.3012 24.7682 25.8499 24.2382 25.3956 23.7852C25.018 23.4062 24.6404 23.3292 24.1861 23.5572C23.9589 23.6342 23.7318 23.7082 23.5813 23.8592C22.8262 24.5403 21.8438 24.6943 20.9382 24.9193C19.9559 25.1473 19.3512 25.8283 19.4279 26.8914C19.5046 27.3474 19.3512 27.6494 18.8999 27.8004C18.2951 28.0284 17.6904 28.2564 17.1624 28.5584C16.6343 28.8605 16.2568 29.2395 16.1063 29.9235C15.7287 31.3626 16.1063 32.8047 16.4839 34.1697C16.4839 34.2467 16.5606 34.3977 16.6344 34.4718C17.0886 34.8508 17.6167 35.0788 18.068 35.4578C18.2951 35.6858 18.5223 35.9138 18.596 36.2159C18.7465 36.7459 19.1241 36.9739 19.5783 37.1249C20.4839 37.3529 21.2391 37.6549 22.2214 37.2759C23.5046 36.8199 24.7878 37.1989 25.9973 37.578C25.9973 38.564 25.9973 38.564 26.6758 39.4731C26.4486 39.8521 26.2982 40.3081 26.0711 40.7611C25.8439 41.2912 25.8439 41.8212 26.2215 42.3542C26.9 43.2633 26.9767 44.4003 26.7495 45.4634C26.5224 46.3724 26.6728 47.1305 27.1271 47.8885C27.3543 48.2675 27.5047 48.7975 27.6552 49.3276C27.8056 49.7066 27.8823 50.0856 28.1094 50.3876C28.5637 51.1456 28.9413 51.2966 29.6965 51.1456C30.375 50.9946 30.9797 50.3106 31.0564 49.5525C31.1331 49.1735 31.0564 48.8715 31.1331 48.4925C31.2098 47.8115 31.434 47.3554 32.1891 47.2044C32.5667 47.2044 32.9443 47.0534 33.3219 46.8254C34.1538 46.3694 34.6818 45.6884 34.6818 44.7793C34.6818 44.1723 34.909 43.9443 35.437 43.7193C36.4193 43.3403 36.7202 42.6592 36.5697 41.5962C36.493 40.9151 36.2689 40.1571 37.024 39.6241C37.1745 39.5471 37.2512 39.3961 37.2512 39.245C37.1007 38.638 37.5521 38.259 37.7792 37.729C38.3072 36.4409 38.6848 35.0758 38.5344 33.5597C38.4577 33.0297 38.3072 32.5737 37.8559 32.3457C37.1774 31.9667 36.9503 31.2856 36.5727 30.5276C36.1184 29.6186 36.2718 28.9345 36.8736 28.1765C36.9503 28.0995 36.9503 28.0254 37.024 27.9485C37.1007 27.8715 37.1745 27.7974 37.2512 27.6464C37.7055 27.6464 38.0831 27.7234 38.5344 27.7974C39.3663 27.8744 39.44 27.7974 39.8176 27.0394C39.968 26.7374 40.1185 26.4324 40.1951 26.2814C40.9503 26.2814 41.6288 26.2814 42.2335 26.2044C43.2158 26.1274 43.971 26.8114 43.971 27.7975C43.971 28.1765 44.1215 28.6325 44.2719 28.9345C44.5728 29.4646 44.8766 29.9946 44.7999 30.6016C44.7999 30.9036 44.8766 31.2086 44.9504 31.4367C45.2513 32.1947 45.4784 32.8757 45.2513 33.7108C45.1746 34.0898 45.4017 34.3178 45.7793 34.3178C46.0802 34.3178 46.3073 34.2408 46.5345 34.1668C47.1392 33.8648 47.744 33.4857 48.272 33.1067C50.6142 31.3627 52.9534 29.6186 55.2957 27.8775C55.5966 27.6495 55.9741 27.3475 56.3517 27.1195C56.7293 27.6495 56.5788 28.1055 56.2013 28.4845C54.3901 30.3796 52.275 31.8187 50.2366 33.2608C49.859 33.4888 49.4814 33.6398 49.331 34.3208C49.7853 34.1698 50.1629 34.0928 50.387 33.9418C52.0478 32.8047 53.6349 31.6677 55.2189 30.5306C55.5965 30.2286 56.0508 29.8496 56.5021 29.4706C56.803 30.0776 56.6526 30.5306 56.2012 30.8357C54.6909 31.9727 53.2573 33.1098 51.8206 34.2468C51.7498 34.4127 51.2215 34.564 51.2952 35.248Z" stroke="black" stroke-width="3" stroke-linejoin="round" mask="url(#path-1-inside-1_86_1231)"/>
</svg>
