<svg width="200" height="53" viewBox="0 0 200 53" fill="none" xmlns="http://www.w3.org/2000/svg">
<g clip-path="url(#clip0_89_813)">
<path d="M155.69 30.2337C155.483 29.091 155.166 27.9642 154.737 26.885C153.912 24.7107 152.658 22.7428 151.024 21.0605C149.342 19.3465 147.342 17.9816 145.12 17.0453C142.644 16.0454 139.994 15.5376 137.312 15.5852C134.598 15.5376 131.916 16.0296 129.408 17.0453C127.155 17.9658 125.107 19.3465 123.409 21.0605C121.759 22.7587 120.473 24.7583 119.632 26.9643C118.743 29.2179 118.299 31.6303 118.299 34.0426C118.299 36.4232 118.743 38.772 119.632 40.978C120.505 43.1681 121.822 45.1678 123.504 46.8501C125.187 48.5323 127.202 49.8496 129.408 50.7383C131.884 51.7223 134.518 52.2143 137.201 52.1826C140.835 52.2619 144.406 51.3573 147.548 49.5639C150.31 48.0086 152.547 45.6915 153.976 42.8983L154.42 41.9937L146.167 39.7401L145.818 40.1845C144.66 41.6763 143.12 42.819 141.359 43.5173C139.597 44.2156 137.677 44.4377 135.804 44.1521C133.931 43.8664 132.154 43.1046 130.678 41.9143C129.202 40.7241 128.091 39.1846 127.424 37.423H155.626L155.785 36.7723C155.896 36.3121 155.96 35.8518 155.96 35.3757V33.7252C155.96 32.5507 155.848 31.3763 155.642 30.2337L155.674 30.2019L155.69 30.2337ZM137.375 23.4252C139.359 23.4252 141.295 23.9807 142.977 25.0123C144.66 26.0438 146.009 27.5039 146.897 29.2497H127.869C128.757 27.5039 130.106 26.0438 131.789 25.0123C133.471 23.9807 135.407 23.4411 137.391 23.4252H137.375Z" fill="black"/>
<path d="M75.1623 30.2338C74.956 29.0911 74.6386 27.9643 74.2101 26.8851C73.3848 24.7109 72.131 22.7429 70.4964 21.0607C68.8141 19.3466 66.8144 17.9818 64.5926 17.0454C62.1168 16.0297 59.4505 15.5219 56.7684 15.5695C54.0704 15.5377 51.3883 16.0456 48.8808 17.0454C46.6271 17.9659 44.5798 19.3466 42.8817 21.0607C41.2312 22.7588 39.9457 24.7585 39.1045 26.9645C38.2316 29.234 37.7873 31.6304 37.8031 34.0427C37.8031 36.4233 38.2475 38.7721 39.1363 40.9781C40.0091 43.1683 41.3264 45.168 43.0087 46.8502C44.6909 48.5325 46.6906 49.8497 48.9125 50.7385C51.3883 51.7225 54.0228 52.2145 56.7049 52.1827C60.3393 52.2621 63.9101 51.3574 67.0525 49.5641C69.7981 47.9929 72.0041 45.6758 73.4165 42.8826L73.8609 41.978L65.6083 39.7561L65.2591 40.2005C64.1006 41.6923 62.5611 42.835 60.7995 43.5333C59.0379 44.2316 57.1175 44.4538 55.229 44.1681C53.3404 43.8824 51.5787 43.1207 50.1028 41.9304C48.6268 40.7401 47.5 39.2006 46.8493 37.439H75.0512L75.2099 36.7883C75.321 36.3122 75.3845 35.8202 75.4004 35.3282V33.6777C75.4004 32.5033 75.3051 31.3289 75.083 30.1862L75.1147 30.2179L75.1623 30.2338ZM47.3254 29.2498C48.1983 27.5041 49.5632 26.0281 51.2296 24.9965C52.9119 23.965 54.8481 23.4254 56.8319 23.4254C58.8157 23.4254 60.7519 23.965 62.4342 24.9965C64.1164 26.0281 65.4654 27.4882 66.3383 29.2498H47.3096H47.3254Z" fill="black"/>
<path d="M24.5837 23.4729L17.3308 20.4893C13.5219 18.9657 9.93518 17.5215 9.93518 13.8395C9.93518 10.3956 13.0934 8.17377 17.9815 8.17377C19.3305 8.17377 20.6795 8.34834 21.9809 8.68162L22.092 8.7451H22.1555C22.2824 8.77684 22.3935 8.82446 22.4887 8.87207H22.5364L22.6316 8.90381L22.9172 9.03077L23.0442 9.09425L23.2505 9.18948C23.4568 9.2847 23.6473 9.37992 23.806 9.47515L24.1234 9.64972L24.3297 9.77669L24.6313 9.96713L24.8376 10.1258C25.155 10.348 25.4724 10.5861 25.7581 10.8559C26.1866 11.2368 26.5992 11.6653 26.9642 12.1096L27.3451 12.5699L27.8847 12.3953L35.5819 10.3639L35.1217 9.45928C33.6933 6.72955 31.4556 4.47594 28.7259 2.98411C26.4722 1.73034 23.9647 0.936818 21.3778 0.667019C20.251 0.460703 19.1242 0.349609 17.9815 0.349609C13.268 0.349609 8.95121 1.73034 5.82472 4.23788C4.28528 5.42817 3.03151 6.95174 2.15863 8.68162C1.30163 10.4115 0.841382 12.316 0.841382 14.2522C0.841382 20.2988 4.42812 24.6791 11.792 27.6627L18.9972 30.6781C23.3934 32.4874 26.5833 33.8205 26.5833 37.8992C26.5833 41.9779 23.0601 44.3585 17.4102 44.3585H16.1564C15.109 44.2633 14.0774 44.0252 13.1093 43.6443L12.9664 43.5967L12.8395 43.5332L12.649 43.4221L12.5221 43.3745H12.4745L12.3158 43.2952C12.1412 43.2158 11.9507 43.1206 11.7444 42.9936L11.6333 42.9302L11.5064 42.8508H11.4587L11.2366 42.6604L10.935 42.4699L10.7446 42.3429C10.4113 42.1208 10.1256 41.8668 9.82409 41.6129C9.37971 41.2161 8.98295 40.7718 8.61793 40.2957L8.23704 39.8354L7.69744 40.01L-0.015625 42.0573L0.44462 42.9619C0.76203 43.5808 1.11118 44.1839 1.52381 44.7553L1.65078 44.9616L1.84122 45.1838C3.20609 46.9454 4.90423 48.4055 6.84043 49.5164C8.49096 50.4686 10.3002 51.1669 12.1729 51.5637L12.2681 51.5954H12.3475C13.9663 51.9922 15.6168 52.1827 17.2832 52.1668C22.6633 52.1668 27.2816 50.6908 30.6144 47.9294C32.2015 46.6597 33.487 45.0409 34.3599 43.2317C35.2328 41.4066 35.693 39.4228 35.693 37.4072C35.693 29.1704 30.059 25.7583 24.5519 23.5205L24.5837 23.4729Z" fill="black"/>
<path d="M185.669 52.3564H176.131L168.18 40.5329L160.181 52.3564H150.595L163.434 34.2958L150.183 15.7432H159.753L185.637 52.3564H185.669Z" fill="black"/>
<path d="M106.348 0V18.3939C103.38 16.4101 99.8727 15.3626 96.286 15.3785C86.1606 15.3785 77.9238 23.6788 77.9238 33.8835C77.9238 44.0882 86.1606 52.3885 96.286 52.3885C99.8727 52.3885 103.38 51.3411 106.348 49.3572V52.2298H115.489V0H106.348ZM96.286 23.6947C98.3492 23.6312 100.365 24.1866 102.11 25.2658C103.856 26.345 105.221 27.9162 106.046 29.7731C106.872 31.6299 107.126 33.6772 106.761 35.6769C106.396 37.6766 105.427 39.5017 103.999 40.9618C102.571 42.406 100.73 43.4058 98.7142 43.8343C96.6986 44.2469 94.6037 44.0724 92.6993 43.3106C90.7948 42.5488 89.1601 41.2474 88.0016 39.5652C86.8589 37.8829 86.24 35.9149 86.24 33.8835C86.2082 31.2173 87.2398 28.6621 89.1284 26.7418C91.017 24.8373 93.588 23.7423 96.3019 23.6947H96.286Z" fill="black"/>
<path d="M183.098 0.523438C179.955 0.523438 176.876 1.38044 174.21 3.01511C171.544 4.64977 169.385 6.96686 167.989 9.72833C166.592 12.4898 166.005 15.5845 166.307 18.6634C166.608 21.7423 167.767 24.6783 169.655 27.1383L177.686 15.2671H186.653L174.988 31.6614C177.241 32.8834 179.749 33.5817 182.32 33.6928C184.891 33.8039 187.462 33.3436 189.811 32.3438C192.176 31.3439 194.27 29.8204 195.937 27.8842C197.603 25.9638 198.809 23.6785 199.444 21.2344C200.079 18.7745 200.143 16.2194 199.619 13.7436C199.095 11.2678 198 8.9348 196.429 6.93512C194.842 4.93544 192.826 3.31665 190.509 2.20571C188.192 1.09478 185.653 0.523438 183.082 0.523438H183.098Z" fill="#FF025C"/>
</g>
<defs>
<clipPath id="clip0_89_813">
<rect width="200" height="52.3726" fill="white"/>
</clipPath>
</defs>
</svg>
