<svg width="63" height="60" viewBox="0 0 63 60" fill="none" xmlns="http://www.w3.org/2000/svg">
<mask id="path-1-inside-1_86_1239" fill="white">
<path fill-rule="evenodd" clip-rule="evenodd" d="M55.6667 48.6094C50.9286 48.7153 47.8941 47.6032 45.7647 46.2262C43.7949 45.0082 41.8784 44.2668 39.4295 44.6904C36.3418 45.22 34.372 47.1265 32.4023 49.2449C32.0829 49.5626 31.9232 50.0393 31.3376 49.8274C30.752 49.6156 30.5923 49.139 30.5923 48.6094C30.5923 47.2324 31.1246 46.1203 32.0296 45.1671C33.2541 43.949 34.5318 42.5721 34.4253 40.6656C34.585 38.9179 33.9994 37.3821 32.8814 36.0582C31.9232 34.8931 31.444 33.675 31.6037 32.1922C31.657 31.4508 31.444 30.8682 30.6987 30.8682C29.7937 30.8682 29.7405 31.6626 29.8469 32.2452C30.0067 33.675 29.5275 34.8401 28.6757 35.8993C28.0901 36.5878 27.4513 37.2762 26.7592 37.8588C25.5348 38.865 24.8427 40.2419 24.683 41.7248C24.47 43.8961 25.3218 45.8026 26.8125 47.3913C27.2916 47.9209 27.9837 48.3446 28.3031 49.033C28.4096 49.1919 28.516 49.4567 28.4096 49.6685C28.2498 49.9333 27.9837 49.8274 27.7175 49.7745C27.0254 49.5626 26.4398 49.086 25.9074 48.5564C24.2039 47.0736 22.4471 45.7496 19.9982 45.6967C18.2414 45.6437 16.8572 45.8026 15.1537 46.2262C14.4083 46.4381 12.3321 47.7091 9.77676 47.9739C9.13792 48.0268 8.60556 48.0798 8.12643 47.6032C7.86025 47.3384 7.43435 47.2325 7.16817 47.6032C6.84875 47.9739 6.74228 48.3975 7.16817 48.7682C8.92498 50.2511 10.735 51.7339 13.1307 52.1576C15.7393 52.6342 18.3478 52.3694 20.9564 52.3165C23.6183 52.2635 25.8542 53.1638 27.824 54.8055C28.4096 55.2822 29.0484 56.0236 28.9952 56.818C28.8887 57.9301 29.6872 58.6186 29.9534 59.5718C30.1131 59.9955 30.539 59.9955 30.9117 59.9955C31.3376 60.0484 31.3908 59.6248 31.4973 59.307C31.6037 58.8304 31.6037 58.3538 31.6037 57.8771C31.6037 56.3943 31.3908 54.9115 32.4023 53.6934C34.6915 50.9396 37.7259 50.0393 41.1331 50.2511C42.8367 50.41 44.487 50.8866 46.0841 51.2573C49.6509 52.1046 52.8984 51.3632 56.1458 49.9863C56.5184 49.8274 57.0508 49.6156 56.9443 49.1919C56.7314 48.6623 56.1458 48.5564 55.6667 48.6094ZM11.0544 23.2422C11.64 23.5599 11.64 23.3481 11.64 22.8185C11.64 22.1301 11.4271 21.4946 10.948 21.0179C10.3624 20.3295 10.2559 19.8528 11.1077 19.2703C11.853 18.7407 13.9292 16.9401 13.663 16.6224C13.4501 16.2516 12.971 16.4635 12.6515 16.6753C11.9062 17.099 11.2142 17.6286 10.4688 17.9993C9.61705 18.4759 9.40411 18.317 9.35087 17.3108C9.2444 15.2984 10.2559 13.7096 11.6933 12.4386C14.5681 9.89661 18.6673 9.41998 21.4888 12.3327C22.1276 12.9682 22.66 13.6567 23.1391 14.3981C23.565 14.9277 24.0974 15.0866 24.683 14.7688C25.3218 14.3451 25.1089 13.8155 24.8427 13.3919C23.8844 11.909 22.8197 10.4262 21.3823 9.41998C20.7967 8.99631 20.7967 8.73152 20.9564 8.14897C21.3823 6.82501 22.5003 5.97767 23.4586 5.07737C25.4283 3.27678 27.6642 2.11169 30.4325 2.32352C31.1246 2.37648 31.9232 2.4824 32.2426 2.95903C32.6152 3.48861 31.657 3.7534 31.4973 4.23003C31.3908 4.49482 31.657 4.97145 32.0296 4.86554C33.0944 4.44187 34.9044 3.54157 36.0224 4.6537C36.7145 5.34216 36.7677 5.71287 36.1288 6.29542C35.3835 6.98388 34.6382 7.61938 33.9462 8.30785C33.7864 8.46672 33.3605 8.78448 33.7332 9.15519C34.0526 9.47294 34.2123 8.99631 34.4253 8.89039C35.2771 8.30785 36.1288 7.7253 36.9806 7.19572C37.5662 6.82501 37.9921 6.93092 38.3115 7.61939C38.7374 8.57264 39.0569 9.63181 39.2698 10.638C39.4828 11.6972 39.1101 12.3327 38.2583 12.8093C37.8324 13.0212 37.4598 13.3389 37.3001 13.8685C37.2468 14.0803 37.0871 14.2922 37.3001 14.504C37.4598 14.6629 37.6727 14.557 37.7792 14.4511C38.7374 13.9744 38.9504 14.4511 38.7374 15.2984C38.6842 15.5102 38.6842 15.7221 38.6842 15.9869C38.7374 16.8342 39.4828 16.7283 39.9619 16.9401C40.3345 17.099 40.654 16.8342 40.654 16.4635C40.5475 14.9277 41.5057 13.5508 41.346 12.1738C41.5057 10.9028 41.2396 9.47294 42.9431 9.31406C44.7532 9.10223 46.4567 9.41998 48.0538 10.3203C48.6394 10.691 48.6394 11.0617 48.1603 11.4324C47.7344 11.7502 47.2553 12.1209 46.9891 12.5975C46.8826 12.7564 46.8294 12.8623 46.9359 13.0212C47.0956 13.18 47.202 13.0741 47.3618 13.0212C48.0538 12.7564 48.7459 12.4916 49.3848 12.2268C50.0768 11.909 50.556 12.3327 50.8754 12.8623C51.248 13.3919 50.6624 13.6037 50.3962 13.9215C49.4912 14.9277 48.1071 15.4043 47.3085 16.4635C47.1488 16.6753 46.7762 16.8871 46.9359 17.1519C47.1488 17.5756 47.415 17.099 47.6279 16.9931C48.7991 16.4105 49.9171 15.775 51.0883 15.1925C51.3013 15.0336 51.5674 14.8218 51.8869 15.0336C52.5789 15.5102 52.6854 17.5756 51.9933 18.1052C50.3962 19.3232 48.8524 20.4883 47.2553 21.6534C46.9891 21.8123 46.7762 22.0241 46.5632 22.236C46.4035 22.3948 46.7229 22.9244 46.9891 22.8715C47.3085 22.7656 47.6279 22.6596 47.8941 22.4478C49.1186 21.4945 50.4495 20.8061 51.7804 20.1176C51.9933 19.9587 52.2595 19.694 52.5789 19.9587C52.7919 20.1706 52.6854 20.4354 52.5789 20.7002C52.2595 21.4416 51.9933 22.183 51.6207 22.9774C51.1948 24.0366 50.3962 24.9369 49.8106 25.8372C49.6509 26.049 49.3848 26.3138 49.6509 26.5786C49.8639 26.7904 50.2365 26.7375 50.5027 26.6315C50.7689 26.5256 51.0351 26.3667 51.248 26.2079C52.7387 25.3076 53.5372 24.0366 54.2293 22.5008C55.7199 19.1114 56.1458 15.7221 53.8034 12.5445C51.1948 8.99631 47.8941 6.61317 43.2093 7.24867C41.9316 7.40755 41.0798 7.24868 40.5475 5.97767C40.2813 5.34216 39.8022 4.86554 39.4295 4.33595C37.9389 2.11169 35.8094 0.999555 33.2541 0.469969C29.634 -0.37737 26.0671 -0.218495 22.9794 2.11169C21.2226 3.43565 19.3593 4.70666 18.614 6.93092C18.2946 7.83122 17.8687 8.09601 16.9637 7.88418C16.591 7.77826 16.2716 7.7253 15.8457 7.7253C13.6098 7.67234 11.5868 8.09601 9.98971 9.89661C8.28614 11.8031 7.70054 12.4916 7.00846 14.8218C6.84875 15.2454 6.84875 16.5694 6.84875 17.046C6.90199 19.694 8.6588 21.9712 11.0544 23.2422ZM9.45734 43.949C9.61705 43.4724 9.13793 43.3135 8.87174 43.1546C8.12643 42.5721 7.27465 42.1484 6.36962 41.7777C5.67755 41.5129 5.35813 41.1422 6.0502 40.4008C6.84875 39.5535 7.86025 39.0239 8.6588 38.2295C8.81851 38.0706 9.13793 37.8588 8.87174 37.594C8.71203 37.4351 8.44585 37.6469 8.28614 37.7529C7.16817 38.2824 5.99697 38.812 4.93224 39.3416C4.50634 39.5535 4.13369 39.6064 3.76103 39.1298C2.80278 37.8058 3.06896 35.9523 4.45311 35.2108C5.67755 34.5224 6.4761 33.4632 7.54083 32.7218C7.70054 32.6159 7.86025 32.457 7.75377 32.2452C7.59406 31.9804 7.32788 32.0333 7.16817 32.0863C6.90199 32.1922 6.63581 32.3511 6.36962 32.5099C5.67755 32.9336 4.98547 33.3573 4.24016 33.675C3.60132 33.9398 3.17543 33.728 3.54809 32.9336C3.97398 31.9274 4.34663 30.8682 4.93224 29.915C5.62431 28.8028 6.42286 27.6378 7.80701 27.373C8.92498 27.1082 9.98971 26.6315 11.1609 26.6845C11.5868 26.6845 12.1192 26.6845 12.1192 26.1549C12.2256 25.6783 11.9062 25.2546 11.3739 25.0957C10.3624 24.778 9.35087 24.5662 8.28614 24.725C6.0502 25.0428 4.45311 26.2079 3.06896 27.8496C1.5251 29.7561 0.726551 30.8153 0.247422 33.1984C0.0877122 33.9398 -0.0719983 35.9523 0.0344748 36.6407C0.300658 38.9179 1.47186 40.3478 2.90925 41.9895C4.39987 43.6842 6.26315 44.7964 8.6588 44.2138C8.87174 44.1079 9.29763 44.3197 9.45734 43.949ZM62.9601 32.5099C63.1198 28.9088 59.6062 24.4073 56.199 23.6129C55.7731 23.507 55.294 23.5599 55.1875 24.0366C55.0278 24.4602 54.7084 25.1487 55.294 25.3076C56.2523 25.5724 56.6249 26.5256 57.5299 26.8963C58.8076 27.4259 58.7544 27.7437 57.6364 28.538C56.6249 29.2265 55.5602 29.7561 54.8149 30.8153C54.6552 30.9741 54.4422 31.186 54.6552 31.3978C54.7084 31.4508 54.9746 31.2919 55.1343 31.2389C56.2523 30.7623 57.3702 30.2327 58.435 29.7561C58.8609 29.5972 59.1803 29.4913 59.4465 29.9679C60.0853 30.9212 59.8724 31.8215 59.0206 32.5099C58.1155 33.1984 56.9976 33.675 56.4652 34.7342C56.3587 34.8931 56.1458 34.999 56.3055 35.1579C56.412 35.2638 56.5717 35.1579 56.7314 35.1579C57.6364 35.052 58.222 34.4165 59.0206 34.0987C59.3932 33.9398 59.8191 33.3573 60.1385 33.9398C60.4047 34.4165 60.5644 35.1579 59.9256 35.5286C58.5414 36.4289 57.4235 37.594 56.0393 38.4413C55.3472 38.865 54.6019 39.3416 54.1228 40.0301C54.0163 40.136 53.9631 40.3478 54.0163 40.4537C54.1228 40.6126 54.2293 40.5067 54.389 40.4537C55.9861 39.6594 57.5832 38.812 59.127 38.0177C59.2867 37.9117 59.5529 37.6999 59.7126 37.8588C59.8723 38.0176 59.7659 38.2824 59.7126 38.4943C59.5529 39.2887 59.127 39.9242 58.5414 40.5067C57.2638 41.7248 55.9861 42.8898 54.5487 43.949C54.2825 44.1079 53.8566 44.3727 53.9631 44.6375C54.1228 45.0611 54.6019 44.9023 54.9213 44.8493C55.5602 44.7964 56.1458 44.7434 56.7314 44.4256C60.6177 42.4662 62.7471 39.5005 62.8004 35.052C63.1198 34.2046 62.9601 33.3573 62.9601 32.5099Z"/>
</mask>
<path fill-rule="evenodd" clip-rule="evenodd" d="M55.6667 48.6094C50.9286 48.7153 47.8941 47.6032 45.7647 46.2262C43.7949 45.0082 41.8784 44.2668 39.4295 44.6904C36.3418 45.22 34.372 47.1265 32.4023 49.2449C32.0829 49.5626 31.9232 50.0393 31.3376 49.8274C30.752 49.6156 30.5923 49.139 30.5923 48.6094C30.5923 47.2324 31.1246 46.1203 32.0296 45.1671C33.2541 43.949 34.5318 42.5721 34.4253 40.6656C34.585 38.9179 33.9994 37.3821 32.8814 36.0582C31.9232 34.8931 31.444 33.675 31.6037 32.1922C31.657 31.4508 31.444 30.8682 30.6987 30.8682C29.7937 30.8682 29.7405 31.6626 29.8469 32.2452C30.0067 33.675 29.5275 34.8401 28.6757 35.8993C28.0901 36.5878 27.4513 37.2762 26.7592 37.8588C25.5348 38.865 24.8427 40.2419 24.683 41.7248C24.47 43.8961 25.3218 45.8026 26.8125 47.3913C27.2916 47.9209 27.9837 48.3446 28.3031 49.033C28.4096 49.1919 28.516 49.4567 28.4096 49.6685C28.2498 49.9333 27.9837 49.8274 27.7175 49.7745C27.0254 49.5626 26.4398 49.086 25.9074 48.5564C24.2039 47.0736 22.4471 45.7496 19.9982 45.6967C18.2414 45.6437 16.8572 45.8026 15.1537 46.2262C14.4083 46.4381 12.3321 47.7091 9.77676 47.9739C9.13792 48.0268 8.60556 48.0798 8.12643 47.6032C7.86025 47.3384 7.43435 47.2325 7.16817 47.6032C6.84875 47.9739 6.74228 48.3975 7.16817 48.7682C8.92498 50.2511 10.735 51.7339 13.1307 52.1576C15.7393 52.6342 18.3478 52.3694 20.9564 52.3165C23.6183 52.2635 25.8542 53.1638 27.824 54.8055C28.4096 55.2822 29.0484 56.0236 28.9952 56.818C28.8887 57.9301 29.6872 58.6186 29.9534 59.5718C30.1131 59.9955 30.539 59.9955 30.9117 59.9955C31.3376 60.0484 31.3908 59.6248 31.4973 59.307C31.6037 58.8304 31.6037 58.3538 31.6037 57.8771C31.6037 56.3943 31.3908 54.9115 32.4023 53.6934C34.6915 50.9396 37.7259 50.0393 41.1331 50.2511C42.8367 50.41 44.487 50.8866 46.0841 51.2573C49.6509 52.1046 52.8984 51.3632 56.1458 49.9863C56.5184 49.8274 57.0508 49.6156 56.9443 49.1919C56.7314 48.6623 56.1458 48.5564 55.6667 48.6094ZM11.0544 23.2422C11.64 23.5599 11.64 23.3481 11.64 22.8185C11.64 22.1301 11.4271 21.4946 10.948 21.0179C10.3624 20.3295 10.2559 19.8528 11.1077 19.2703C11.853 18.7407 13.9292 16.9401 13.663 16.6224C13.4501 16.2516 12.971 16.4635 12.6515 16.6753C11.9062 17.099 11.2142 17.6286 10.4688 17.9993C9.61705 18.4759 9.40411 18.317 9.35087 17.3108C9.2444 15.2984 10.2559 13.7096 11.6933 12.4386C14.5681 9.89661 18.6673 9.41998 21.4888 12.3327C22.1276 12.9682 22.66 13.6567 23.1391 14.3981C23.565 14.9277 24.0974 15.0866 24.683 14.7688C25.3218 14.3451 25.1089 13.8155 24.8427 13.3919C23.8844 11.909 22.8197 10.4262 21.3823 9.41998C20.7967 8.99631 20.7967 8.73152 20.9564 8.14897C21.3823 6.82501 22.5003 5.97767 23.4586 5.07737C25.4283 3.27678 27.6642 2.11169 30.4325 2.32352C31.1246 2.37648 31.9232 2.4824 32.2426 2.95903C32.6152 3.48861 31.657 3.7534 31.4973 4.23003C31.3908 4.49482 31.657 4.97145 32.0296 4.86554C33.0944 4.44187 34.9044 3.54157 36.0224 4.6537C36.7145 5.34216 36.7677 5.71287 36.1288 6.29542C35.3835 6.98388 34.6382 7.61938 33.9462 8.30785C33.7864 8.46672 33.3605 8.78448 33.7332 9.15519C34.0526 9.47294 34.2123 8.99631 34.4253 8.89039C35.2771 8.30785 36.1288 7.7253 36.9806 7.19572C37.5662 6.82501 37.9921 6.93092 38.3115 7.61939C38.7374 8.57264 39.0569 9.63181 39.2698 10.638C39.4828 11.6972 39.1101 12.3327 38.2583 12.8093C37.8324 13.0212 37.4598 13.3389 37.3001 13.8685C37.2468 14.0803 37.0871 14.2922 37.3001 14.504C37.4598 14.6629 37.6727 14.557 37.7792 14.4511C38.7374 13.9744 38.9504 14.4511 38.7374 15.2984C38.6842 15.5102 38.6842 15.7221 38.6842 15.9869C38.7374 16.8342 39.4828 16.7283 39.9619 16.9401C40.3345 17.099 40.654 16.8342 40.654 16.4635C40.5475 14.9277 41.5057 13.5508 41.346 12.1738C41.5057 10.9028 41.2396 9.47294 42.9431 9.31406C44.7532 9.10223 46.4567 9.41998 48.0538 10.3203C48.6394 10.691 48.6394 11.0617 48.1603 11.4324C47.7344 11.7502 47.2553 12.1209 46.9891 12.5975C46.8826 12.7564 46.8294 12.8623 46.9359 13.0212C47.0956 13.18 47.202 13.0741 47.3618 13.0212C48.0538 12.7564 48.7459 12.4916 49.3848 12.2268C50.0768 11.909 50.556 12.3327 50.8754 12.8623C51.248 13.3919 50.6624 13.6037 50.3962 13.9215C49.4912 14.9277 48.1071 15.4043 47.3085 16.4635C47.1488 16.6753 46.7762 16.8871 46.9359 17.1519C47.1488 17.5756 47.415 17.099 47.6279 16.9931C48.7991 16.4105 49.9171 15.775 51.0883 15.1925C51.3013 15.0336 51.5674 14.8218 51.8869 15.0336C52.5789 15.5102 52.6854 17.5756 51.9933 18.1052C50.3962 19.3232 48.8524 20.4883 47.2553 21.6534C46.9891 21.8123 46.7762 22.0241 46.5632 22.236C46.4035 22.3948 46.7229 22.9244 46.9891 22.8715C47.3085 22.7656 47.6279 22.6596 47.8941 22.4478C49.1186 21.4945 50.4495 20.8061 51.7804 20.1176C51.9933 19.9587 52.2595 19.694 52.5789 19.9587C52.7919 20.1706 52.6854 20.4354 52.5789 20.7002C52.2595 21.4416 51.9933 22.183 51.6207 22.9774C51.1948 24.0366 50.3962 24.9369 49.8106 25.8372C49.6509 26.049 49.3848 26.3138 49.6509 26.5786C49.8639 26.7904 50.2365 26.7375 50.5027 26.6315C50.7689 26.5256 51.0351 26.3667 51.248 26.2079C52.7387 25.3076 53.5372 24.0366 54.2293 22.5008C55.7199 19.1114 56.1458 15.7221 53.8034 12.5445C51.1948 8.99631 47.8941 6.61317 43.2093 7.24867C41.9316 7.40755 41.0798 7.24868 40.5475 5.97767C40.2813 5.34216 39.8022 4.86554 39.4295 4.33595C37.9389 2.11169 35.8094 0.999555 33.2541 0.469969C29.634 -0.37737 26.0671 -0.218495 22.9794 2.11169C21.2226 3.43565 19.3593 4.70666 18.614 6.93092C18.2946 7.83122 17.8687 8.09601 16.9637 7.88418C16.591 7.77826 16.2716 7.7253 15.8457 7.7253C13.6098 7.67234 11.5868 8.09601 9.98971 9.89661C8.28614 11.8031 7.70054 12.4916 7.00846 14.8218C6.84875 15.2454 6.84875 16.5694 6.84875 17.046C6.90199 19.694 8.6588 21.9712 11.0544 23.2422ZM9.45734 43.949C9.61705 43.4724 9.13793 43.3135 8.87174 43.1546C8.12643 42.5721 7.27465 42.1484 6.36962 41.7777C5.67755 41.5129 5.35813 41.1422 6.0502 40.4008C6.84875 39.5535 7.86025 39.0239 8.6588 38.2295C8.81851 38.0706 9.13793 37.8588 8.87174 37.594C8.71203 37.4351 8.44585 37.6469 8.28614 37.7529C7.16817 38.2824 5.99697 38.812 4.93224 39.3416C4.50634 39.5535 4.13369 39.6064 3.76103 39.1298C2.80278 37.8058 3.06896 35.9523 4.45311 35.2108C5.67755 34.5224 6.4761 33.4632 7.54083 32.7218C7.70054 32.6159 7.86025 32.457 7.75377 32.2452C7.59406 31.9804 7.32788 32.0333 7.16817 32.0863C6.90199 32.1922 6.63581 32.3511 6.36962 32.5099C5.67755 32.9336 4.98547 33.3573 4.24016 33.675C3.60132 33.9398 3.17543 33.728 3.54809 32.9336C3.97398 31.9274 4.34663 30.8682 4.93224 29.915C5.62431 28.8028 6.42286 27.6378 7.80701 27.373C8.92498 27.1082 9.98971 26.6315 11.1609 26.6845C11.5868 26.6845 12.1192 26.6845 12.1192 26.1549C12.2256 25.6783 11.9062 25.2546 11.3739 25.0957C10.3624 24.778 9.35087 24.5662 8.28614 24.725C6.0502 25.0428 4.45311 26.2079 3.06896 27.8496C1.5251 29.7561 0.726551 30.8153 0.247422 33.1984C0.0877122 33.9398 -0.0719983 35.9523 0.0344748 36.6407C0.300658 38.9179 1.47186 40.3478 2.90925 41.9895C4.39987 43.6842 6.26315 44.7964 8.6588 44.2138C8.87174 44.1079 9.29763 44.3197 9.45734 43.949ZM62.9601 32.5099C63.1198 28.9088 59.6062 24.4073 56.199 23.6129C55.7731 23.507 55.294 23.5599 55.1875 24.0366C55.0278 24.4602 54.7084 25.1487 55.294 25.3076C56.2523 25.5724 56.6249 26.5256 57.5299 26.8963C58.8076 27.4259 58.7544 27.7437 57.6364 28.538C56.6249 29.2265 55.5602 29.7561 54.8149 30.8153C54.6552 30.9741 54.4422 31.186 54.6552 31.3978C54.7084 31.4508 54.9746 31.2919 55.1343 31.2389C56.2523 30.7623 57.3702 30.2327 58.435 29.7561C58.8609 29.5972 59.1803 29.4913 59.4465 29.9679C60.0853 30.9212 59.8724 31.8215 59.0206 32.5099C58.1155 33.1984 56.9976 33.675 56.4652 34.7342C56.3587 34.8931 56.1458 34.999 56.3055 35.1579C56.412 35.2638 56.5717 35.1579 56.7314 35.1579C57.6364 35.052 58.222 34.4165 59.0206 34.0987C59.3932 33.9398 59.8191 33.3573 60.1385 33.9398C60.4047 34.4165 60.5644 35.1579 59.9256 35.5286C58.5414 36.4289 57.4235 37.594 56.0393 38.4413C55.3472 38.865 54.6019 39.3416 54.1228 40.0301C54.0163 40.136 53.9631 40.3478 54.0163 40.4537C54.1228 40.6126 54.2293 40.5067 54.389 40.4537C55.9861 39.6594 57.5832 38.812 59.127 38.0177C59.2867 37.9117 59.5529 37.6999 59.7126 37.8588C59.8723 38.0176 59.7659 38.2824 59.7126 38.4943C59.5529 39.2887 59.127 39.9242 58.5414 40.5067C57.2638 41.7248 55.9861 42.8898 54.5487 43.949C54.2825 44.1079 53.8566 44.3727 53.9631 44.6375C54.1228 45.0611 54.6019 44.9023 54.9213 44.8493C55.5602 44.7964 56.1458 44.7434 56.7314 44.4256C60.6177 42.4662 62.7471 39.5005 62.8004 35.052C63.1198 34.2046 62.9601 33.3573 62.9601 32.5099Z" stroke="black" stroke-width="3" mask="url(#path-1-inside-1_86_1239)"/>
</svg>
