<svg width="60" height="56" viewBox="0 0 60 56" fill="none" xmlns="http://www.w3.org/2000/svg">
<path fill-rule="evenodd" clip-rule="evenodd" d="M37.4572 49.9327C37.6128 49.8979 37.7754 49.9047 37.9279 49.9513C38.0803 49.9979 38.2178 50.0835 38.3273 50.1993C39.2069 51.6748 39.9949 53.2029 40.6857 54.7755C40.7664 54.9599 40.7886 55.1648 40.7502 55.3624C40.7116 55.56 40.6139 55.7412 40.4699 55.8819C40.2828 55.9891 40.0632 56.0257 39.8517 55.9835C39.6402 55.9412 39.451 55.8234 39.3195 55.6524C38.4282 54.0793 37.6569 52.4411 37.0119 50.752C37.0163 50.5901 37.0594 50.4315 37.1369 50.2892C37.2143 50.1469 37.3236 50.0244 37.4572 49.9327ZM27.2912 48.9776C27.7441 48.9776 28.1106 49.4808 28.1681 49.8185C28.1812 49.9769 28.1595 50.1364 28.1037 50.2853C28.0478 50.4342 27.9591 50.5689 27.8449 50.6798C26.939 52.0018 26.0329 53.3247 25.0695 54.6036C24.7753 54.9534 24.3894 55.2142 23.9552 55.3575C23.8016 55.3943 23.6418 55.396 23.4875 55.3624C23.3331 55.3288 23.188 55.2614 23.0636 55.1642C22.9342 55.0564 22.9925 54.5672 23.1291 54.3517C24.1427 52.7351 25.163 51.1252 26.2629 49.5733C26.3766 49.4016 26.529 49.2588 26.7072 49.1554C26.8855 49.0519 27.0854 48.9911 27.2912 48.9776ZM41.1017 9.48057C42.4382 9.17986 43.828 9.20169 45.1545 9.54404C46.4806 9.88636 47.7061 10.5397 48.7297 11.4493C51.0446 13.3893 52.0373 15.5955 52.0158 18.8575C52.0158 24.196 49.6284 29.4486 46.3644 33.5226C43.3379 37.2658 40.2684 41.0236 37.2922 44.8243C36.3663 46.0883 35.5342 47.4187 34.8039 48.8048C34.6175 49.1805 34.3191 49.4893 33.9494 49.6876C33.5797 49.8858 33.1575 49.9637 32.7414 49.9112C31.9793 49.8537 31.7344 49.2932 31.4396 48.5675C29.4698 43.732 27.4203 38.9546 22.6252 36.0519C19.9585 34.4704 17.399 32.7152 14.9621 30.7989C10.5982 27.2782 8.73534 22.6656 9.79215 17.0685C10.547 13.0952 14.7602 10.3934 18.8293 10.4005C23.035 10.4005 25.983 11.3781 28.8947 14.5108C29.8657 15.4779 30.65 16.6154 31.2091 17.8663C32.1155 16.3907 33.133 14.9857 34.2511 13.6632C36.0801 11.6339 38.4601 10.1799 41.1017 9.48057ZM43.7902 41.9337C43.9909 41.9714 44.1794 42.059 44.3381 42.1876C45.6176 43.8399 46.8536 45.5284 47.9894 47.2813C48.1763 47.5615 48.1194 48.5104 47.6593 48.7188C47.1992 48.9272 46.8751 48.4027 46.6379 48.1153C45.4516 46.6783 44.3089 45.198 43.173 43.7179C42.9501 43.4161 42.3753 42.2951 43.1877 41.9718C43.3821 41.9094 43.5895 41.8961 43.7902 41.9337ZM44.7189 11.6261C43.7809 11.3948 42.8027 11.3765 41.8566 11.5724C39.2353 12.1474 36.9261 13.6858 35.3869 15.8829C34.1647 17.5067 33.374 19.4755 32.3244 21.2286C32.2036 21.422 32.0411 21.5869 31.8498 21.711C31.6586 21.835 31.4426 21.9158 31.217 21.9474C31.0482 21.9611 30.8782 21.9403 30.7179 21.8858C30.5576 21.8313 30.4097 21.7438 30.2843 21.63C30.159 21.5162 30.0581 21.378 29.9884 21.2237C29.9188 21.0694 29.8824 20.9018 29.88 20.7325C29.6782 19.0097 28.8763 17.4127 27.6154 16.2208C26.1703 14.8115 24.4591 13.703 22.5822 12.9591C18.6065 11.4503 13.3229 13.4473 12.1222 16.6446C10.7922 20.1941 11.9777 23.4492 13.9045 26.2442C15.7234 28.8811 18.2183 30.5553 20.7345 32.2726C23.1426 33.8298 25.4616 35.5209 27.6798 37.338C30.3181 39.6084 31.7849 43.3298 33.0861 46.7784H33.0929C33.8123 45.8007 41.6552 36.0376 44.8761 31.8917C47.4787 28.5219 50.0099 23.6139 50.0099 19.3028C50.0099 16.6157 49.5996 14.683 47.2775 12.9083C46.5312 12.2953 45.6569 11.8573 44.7189 11.6261ZM18.3478 41.2247C18.8223 40.729 19.5198 40.3837 20.0158 41.0519C20.2027 41.2961 19.9079 42.1229 19.5988 42.4894C18.6762 43.5086 17.6734 44.4525 16.6007 45.3126C16.1119 45.6503 15.2132 46.4837 14.5949 45.9376C14.2212 45.6143 14.6451 45.22 14.7531 45.0978C15.925 43.7973 17.1041 42.4893 18.3478 41.2247ZM50.6535 32.8048C50.7818 32.7741 50.9157 32.7711 51.0451 32.797C51.1746 32.8229 51.2977 32.8764 51.4045 32.9542C53.7769 34.2188 54.9417 34.571 56.5089 36.2667C56.6756 36.4358 56.7807 36.6567 56.8068 36.8927C56.8328 37.1285 56.7782 37.3662 56.6525 37.5675C56.5447 37.7183 55.9984 37.7542 55.3947 37.4024C53.7556 36.4397 52.4685 35.7206 50.8869 34.6788C50.5346 34.4489 49.83 33.8594 50.0529 33.2774C50.1128 33.1601 50.1975 33.0573 50.3009 32.9757C50.4046 32.894 50.5251 32.8355 50.6535 32.8048ZM8.79313 32.6817C9.56958 31.9632 10.4686 31.7834 10.634 31.963C10.9215 32.2432 11.2879 32.8326 11.0724 33.2062C10.5404 34.133 5.37833 37.8759 4.89665 37.0353C4.22883 35.864 8.11725 33.2853 8.79313 32.6817ZM4.41422 21.3722C5.58609 21.3722 6.00336 21.9476 6.01774 22.2853C6.03171 22.6229 5.51399 23.0677 5.19059 23.1036C3.90176 23.245 2.60494 23.301 1.30876 23.2696C0.934897 23.2624 -0.0142169 23.1901 0.000161575 22.5362C0.0434416 21.2503 2.71757 21.3721 4.41422 21.3722ZM55.1779 20.2511C56.5745 20.2457 57.9684 20.3908 59.3341 20.6827C59.5758 20.7962 59.7706 20.9898 59.8859 21.2306C60.0012 21.4716 60.0295 21.7455 59.966 22.005C59.8936 22.4068 59.1894 22.3132 58.7941 22.3204C57.68 22.3204 56.5011 22.2414 55.4445 22.3204C54.661 22.3563 54.1138 22.3208 53.9484 21.6026C53.907 21.4276 53.9092 21.2445 53.9543 21.0704C53.9993 20.8963 54.0861 20.7356 54.2072 20.6026C54.3283 20.4697 54.4804 20.368 54.6496 20.3067C54.8185 20.2457 54.9999 20.2265 55.1779 20.2511ZM3.73942 7.28232C4.03608 7.2757 4.33106 7.33002 4.60563 7.44248C4.88026 7.55499 5.12842 7.72375 5.33512 7.93662C6.41281 8.78076 7.43187 9.69728 8.38395 10.6808C8.52067 10.8754 8.59391 11.108 8.59391 11.3458C8.59386 11.5834 8.52048 11.8153 8.38395 12.0099C8.09638 12.247 7.56402 12.0098 7.29801 11.8302C5.95373 10.8746 4.64534 9.8761 3.35856 8.84873C3.24679 8.73966 3.1611 8.60673 3.10758 8.46006C3.0541 8.31336 3.03367 8.15645 3.04899 8.00107C3.0897 7.83079 3.17572 7.67425 3.29704 7.54795C3.41832 7.42176 3.57094 7.3299 3.73942 7.28232ZM57.5158 7.49033C58.1987 7.2677 59.0899 7.37572 59.1906 7.80674C59.2912 8.33102 58.2644 8.92731 58.0265 9.09287C56.7254 9.96217 55.4094 10.8099 54.0939 11.672C53.9601 11.7975 53.7992 11.8913 53.6242 11.9464C53.4491 12.0015 53.2638 12.0166 53.0822 11.9903C52.9007 11.9641 52.7276 11.8973 52.5754 11.795C52.4231 11.6927 52.2951 11.5577 52.2023 11.3995C51.6775 10.602 52.3612 10.1989 52.8644 9.82529C54.2507 8.75628 55.83 7.96349 57.5158 7.49033ZM32.3381 2.66221C32.5464 2.66221 33.0563 3.14327 33.0568 3.45224C33.0393 5.11327 32.9173 6.77247 32.6906 8.41807C32.5972 9.05025 32.5964 9.7683 31.6476 9.77549C30.6989 9.78255 30.6775 9.17912 30.6847 8.46787C30.8391 6.77118 31.0912 5.08482 31.4396 3.41709C31.5193 3.22948 31.6419 3.06284 31.798 2.93174C31.9542 2.80063 32.1394 2.70828 32.3381 2.66221ZM18.2423 2.01572C18.3625 2.0231 18.4799 2.05455 18.5881 2.10752C18.6961 2.16046 18.7928 2.23396 18.8722 2.32432C19.778 3.76119 20.0083 4.93272 20.6408 6.48447C20.7383 6.67346 20.7601 6.89339 20.7013 7.09775C20.6425 7.30177 20.5081 7.47583 20.3254 7.58408C20.1182 7.6314 19.9008 7.60832 19.7082 7.51865C19.5155 7.42887 19.3579 7.27709 19.2609 7.08799C18.5924 5.8811 18.1533 5.09827 17.4992 3.89853C17.3404 3.64858 17.2634 3.35539 17.2775 3.05967C17.2917 2.76385 17.3963 2.47895 17.5783 2.24521C17.6681 2.16515 17.7732 2.104 17.8869 2.06455C18.0008 2.02509 18.122 2.00837 18.2423 2.01572ZM46.5588 0.0049791C46.7115 0.0221393 46.8563 0.0830565 46.9757 0.179784C47.0951 0.27643 47.1841 0.405233 47.2326 0.550878C47.2811 0.696694 47.2869 0.854067 47.2492 1.00303C47.1938 1.20404 43.942 5.85951 43.6545 6.26182C43.2303 6.84381 41.9146 6.26157 42.1447 5.54307C42.5187 4.42188 44.0647 1.13207 46.1134 0.0831041C46.2514 0.0152904 46.406 -0.0121806 46.5588 0.0049791Z" fill="black"/>
</svg>
